simple-print_bold.sfdir
StartChar: exclam
Encoding: 33 33 58
Width: 303
VWidth: 3000
Flags: W
LayerCount: 2
Back
Fore
SplineSet
204 318 m 2,0,1
 204 258 204 258 142.5 258 c 0,2,3
 82.5 258 82.5 258 82.5 318 c 2,4,-1
 82.5 1440 l 2,5,6
 82.5 1501.5 82.5 1501.5 142.5 1501.5 c 0,7,8
 204 1501.5 204 1501.5 204 1440 c 2,9,-1
 204 318 l 2,0,1
49.5 88.5 m 256,10,11
 49.5 136.5 49.5 136.5 78.75 170.25 c 128,-1,12
 108 204 108 204 150 204 c 0,13,14
 193.5 204 193.5 204 222.75 170.25 c 128,-1,15
 252 136.5 252 136.5 252 88.5 c 256,16,17
 252 40.5 252 40.5 222.75 7.5 c 128,-1,18
 193.5 -25.5 193.5 -25.5 150 -25.5 c 0,19,20
 108 -25.5 108 -25.5 78.75 7.5 c 128,-1,21
 49.5 40.5 49.5 40.5 49.5 88.5 c 256,10,11
EndSplineSet
EndChar
StartChar: quotedbl
Encoding: 34 34 187
Width: 402
VWidth: 3000
Flags: W
LayerCount: 2
Back
Fore
SplineSet
333 1257 m 2,0,1
 333 1197 333 1197 271.5 1197 c 256,2,3
 210 1197 210 1197 210 1257 c 2,4,-1
 210 1441.5 l 2,5,6
 210 1501.5 210 1501.5 271.5 1501.5 c 256,7,8
 333 1501.5 333 1501.5 333 1441.5 c 2,9,-1
 333 1257 l 2,0,1
196.5 1257 m 2,10,11
 196.5 1197 196.5 1197 133.5 1197 c 0,12,13
 73.5 1197 73.5 1197 73.5 1257 c 2,14,-1
 73.5 1441.5 l 2,15,16
 73.5 1501.5 73.5 1501.5 133.5 1501.5 c 0,17,18
 196.5 1501.5 196.5 1501.5 196.5 1441.5 c 2,19,-1
 196.5 1257 l 2,10,11
EndSplineSet
EndChar
StartChar: numbersign
Encoding: 35 35 148
Width: 811
VWidth: 3000
Flags: W
LayerCount: 2
Back
Fore
SplineSet
441 741 m 1,0,-1
 481.5 741 l 1,1,2
 502.5 789 502.5 789 524.25 840 c 128,-1,3
 546 891 546 891 567 939 c 0,4,5
 579 963 579 963 600.75 972.75 c 128,-1,6
 622.5 982.5 622.5 982.5 648 970.5 c 1,7,-1
 646.5 972 l 1,8,9
 705 948 705 948 681 889.5 c 2,10,-1
 616.5 741 l 1,11,12
 676.5 733.5 676.5 733.5 676.5 678 c 0,13,14
 676.5 615 676.5 615 615 615 c 2,15,-1
 559.5 615 l 1,16,17
 552 598.5 552 598.5 547.5 585.75 c 128,-1,18
 543 573 543 573 538.5 560.25 c 128,-1,19
 534 547.5 534 547.5 528 534 c 128,-1,20
 522 520.5 522 520.5 514.5 502.5 c 1,21,-1
 579 502.5 l 2,22,23
 640.5 502.5 640.5 502.5 640.5 438 c 0,24,25
 640.5 376.5 640.5 376.5 579 376.5 c 2,26,-1
 462 376.5 l 1,27,28
 445.5 339 445.5 339 428.25 300.75 c 128,-1,29
 411 262.5 411 262.5 396 225 c 1,30,31
 381 195 381 195 360.75 188.25 c 128,-1,32
 340.5 181.5 340.5 181.5 315 193.5 c 1,33,34
 288 204 288 204 279 225.75 c 128,-1,35
 270 247.5 270 247.5 282 274.5 c 0,36,37
 289.5 291 289.5 291 294.75 303 c 128,-1,38
 300 315 300 315 304.5 325.5 c 128,-1,39
 309 336 309 336 314.25 348 c 128,-1,40
 319.5 360 319.5 360 327 378 c 1,41,-1
 285 378 l 1,42,43
 268.5 340.5 268.5 340.5 252 301.5 c 128,-1,44
 235.5 262.5 235.5 262.5 219 225 c 1,45,-1
 219 226.5 l 1,46,47
 195 166.5 195 166.5 136.5 195 c 1,48,-1
 138 193.5 l 1,49,50
 108 204 108 204 100.5 225 c 128,-1,51
 93 246 93 246 105 274.5 c 0,52,53
 115.5 300 115.5 300 126.75 327 c 128,-1,54
 138 354 138 354 150 379.5 c 1,55,56
 106.5 388.5 106.5 388.5 106.5 441 c 0,57,58
 106.5 502.5 106.5 502.5 171 502.5 c 2,59,-1
 204 502.5 l 1,60,61
 210 517.5 210 517.5 215.25 531 c 128,-1,62
 220.5 544.5 220.5 544.5 225.75 557.25 c 128,-1,63
 231 570 231 570 237 584.25 c 128,-1,64
 243 598.5 243 598.5 252 618 c 1,65,-1
 207 618 l 2,66,67
 141 618 141 618 144 681 c 1,68,69
 144 741 144 741 207 741 c 2,70,-1
 304.5 741 l 1,71,72
 325.5 789 325.5 789 348 840 c 128,-1,73
 370.5 891 370.5 891 391.5 939 c 1,74,-1
 390 937.5 l 1,75,76
 411 996 411 996 471 970.5 c 1,77,78
 528 948 528 948 504 889.5 c 2,79,-1
 441 741 l 1,0,-1
336 502.5 m 1,80,-1
 378 502.5 l 1,81,82
 385.5 519 385.5 519 390.75 531.75 c 128,-1,83
 396 544.5 396 544.5 402 556.5 c 128,-1,84
 408 568.5 408 568.5 414 582.75 c 128,-1,85
 420 597 420 597 427.5 616.5 c 1,86,-1
 387 616.5 l 1,87,-1
 336 502.5 l 1,80,-1
EndSplineSet
EndChar
StartChar: dollar
Encoding: 36 36 171
Width: 786
VWidth: 3000
Flags: W
LayerCount: 2
Back
Fore
SplineSet
438 949.5 m 1,0,1
 475.5 946.5 475.5 946.5 509.25 936.75 c 128,-1,2
 543 927 543 927 573 912 c 0,3,4
 646.5 871.5 646.5 871.5 697.5 790.5 c 1,5,6
 726 739.5 726 739.5 673.5 706.5 c 1,7,8
 621 679.5 621 679.5 591 730.5 c 1,9,-1
 592.5 730.5 l 1,10,11
 564 778.5 564 778.5 516 802.5 c 0,12,13
 481.5 819 481.5 819 438 826.5 c 1,14,-1
 438 610.5 l 1,15,16
 483 594 483 594 525.75 577.5 c 128,-1,17
 568.5 561 568.5 561 607.5 540 c 0,18,19
 663 510 663 510 687 457.5 c 128,-1,20
 711 405 711 405 700.5 333 c 1,21,22
 691.5 289.5 691.5 289.5 661.5 253.5 c 128,-1,23
 631.5 217.5 631.5 217.5 585 192 c 0,24,25
 552 175.5 552 175.5 514.5 164.25 c 128,-1,26
 477 153 477 153 438 148.5 c 1,27,-1
 438 28.5 l 2,28,29
 438 -31.5 438 -31.5 375 -31.5 c 0,30,31
 315 -31.5 315 -31.5 315 28.5 c 2,32,-1
 315 150 l 1,33,34
 247.5 159 247.5 159 193.5 186 c 0,35,36
 114 228 114 228 66 310.5 c 1,37,38
 43.5 363 43.5 363 94.5 393 c 1,39,40
 145.5 418.5 145.5 418.5 175.5 366 c 1,41,-1
 174 367.5 l 1,42,43
 202.5 319.5 202.5 319.5 250.5 295.5 c 0,44,45
 264 288 264 288 279 282 c 128,-1,46
 294 276 294 276 315 273 c 1,47,-1
 315 522 l 1,48,49
 271.5 538.5 271.5 538.5 230.25 554.25 c 128,-1,50
 189 570 189 570 154.5 586.5 c 1,51,52
 52.5 640.5 52.5 640.5 70.5 765 c 1,53,54
 88.5 853.5 88.5 853.5 186 906 c 1,55,56
 216 919.5 216 919.5 248.25 930 c 128,-1,57
 280.5 940.5 280.5 940.5 315 945 c 1,58,-1
 315 1140 l 2,59,60
 315 1200 315 1200 375 1200 c 0,61,62
 438 1200 438 1200 438 1140 c 2,63,-1
 438 949.5 l 1,0,1
528 298.5 m 1,64,65
 550.5 312 550.5 312 563.25 325.5 c 128,-1,66
 576 339 576 339 579 355.5 c 0,67,68
 591 414 591 414 528 442.5 c 1,69,70
 507 454.5 507 454.5 483.75 463.5 c 128,-1,71
 460.5 472.5 460.5 472.5 438 481.5 c 1,72,-1
 438 271.5 l 1,73,74
 490.5 280.5 490.5 280.5 529.5 300 c 1,75,-1
 528 298.5 l 1,64,65
243 799.5 m 1,76,77
 196.5 771 196.5 771 192 745.5 c 0,78,79
 184.5 705 184.5 705 232.5 681 c 0,80,81
 253.5 670.5 253.5 670.5 269.25 663.75 c 128,-1,82
 285 657 285 657 315 648 c 1,83,-1
 315 820.5 l 1,84,85
 273 814.5 273 814.5 241.5 798 c 1,86,-1
 243 799.5 l 1,76,77
EndSplineSet
EndChar
StartChar: percent
Encoding: 37 37 176
Width: 810
VWidth: 3000
Flags: W
LayerCount: 2
Back
Fore
SplineSet
117 36 m 1,0,-1
 117 37.5 l 1,1,2
 90 -19.5 90 -19.5 34.5 9 c 1,3,-1
 36 9 l 1,4,5
 10.5 21 10.5 21 3 42.75 c 128,-1,6
 -4.5 64.5 -4.5 64.5 7.5 90 c 0,7,8
 171 432 171 432 339.75 778.5 c 128,-1,9
 508.5 1125 508.5 1125 672 1467 c 1,10,11
 688.5 1494 688.5 1494 708 1502.25 c 128,-1,12
 727.5 1510.5 727.5 1510.5 754.5 1494 c 1,13,14
 808.5 1465.5 808.5 1465.5 784.5 1411.5 c 1,15,-1
 117 36 l 1,0,-1
799.5 268.5 m 256,16,17
 799.5 213 799.5 213 783.75 164.25 c 128,-1,18
 768 115.5 768 115.5 739.5 79.5 c 128,-1,19
 711 43.5 711 43.5 673.5 22.5 c 128,-1,20
 636 1.5 636 1.5 592.5 1.5 c 256,21,22
 549 1.5 549 1.5 511.5 22.5 c 128,-1,23
 474 43.5 474 43.5 444.75 79.5 c 128,-1,24
 415.5 115.5 415.5 115.5 399 164.25 c 128,-1,25
 382.5 213 382.5 213 382.5 268.5 c 256,26,27
 382.5 324 382.5 324 399 372.75 c 128,-1,28
 415.5 421.5 415.5 421.5 444.75 457.5 c 128,-1,29
 474 493.5 474 493.5 511.5 514.5 c 128,-1,30
 549 535.5 549 535.5 592.5 535.5 c 256,31,32
 636 535.5 636 535.5 673.5 514.5 c 128,-1,33
 711 493.5 711 493.5 739.5 457.5 c 128,-1,34
 768 421.5 768 421.5 783.75 372.75 c 128,-1,35
 799.5 324 799.5 324 799.5 268.5 c 256,16,17
501 267 m 0,36,37
 501 204 501 204 527.25 162 c 128,-1,38
 553.5 120 553.5 120 592.5 120 c 256,39,40
 631.5 120 631.5 120 657.75 162 c 128,-1,41
 684 204 684 204 684 267 c 256,42,43
 684 330 684 330 657.75 372.75 c 128,-1,44
 631.5 415.5 631.5 415.5 592.5 415.5 c 256,45,46
 553.5 415.5 553.5 415.5 527.25 372 c 128,-1,47
 501 328.5 501 328.5 501 267 c 0,36,37
430.5 1218 m 256,48,49
 430.5 1162.5 430.5 1162.5 414 1114.5 c 128,-1,50
 397.5 1066.5 397.5 1066.5 369.75 1030.5 c 128,-1,51
 342 994.5 342 994.5 303.75 973.5 c 128,-1,52
 265.5 952.5 265.5 952.5 222 952.5 c 0,53,54
 180 952.5 180 952.5 141.75 973.5 c 128,-1,55
 103.5 994.5 103.5 994.5 75 1030.5 c 128,-1,56
 46.5 1066.5 46.5 1066.5 30 1114.5 c 128,-1,57
 13.5 1162.5 13.5 1162.5 13.5 1218 c 256,58,59
 13.5 1273.5 13.5 1273.5 30 1322.25 c 128,-1,60
 46.5 1371 46.5 1371 75 1407 c 128,-1,61
 103.5 1443 103.5 1443 141.75 1464 c 128,-1,62
 180 1485 180 1485 222 1485 c 0,63,64
 265.5 1485 265.5 1485 303.75 1464 c 128,-1,65
 342 1443 342 1443 369.75 1407 c 128,-1,66
 397.5 1371 397.5 1371 414 1322.25 c 128,-1,67
 430.5 1273.5 430.5 1273.5 430.5 1218 c 256,48,49
132 1218 m 0,68,69
 132 1155 132 1155 157.5 1112.25 c 128,-1,70
 183 1069.5 183 1069.5 222 1069.5 c 256,71,72
 261 1069.5 261 1069.5 288 1113 c 128,-1,73
 315 1156.5 315 1156.5 315 1218 c 0,74,75
 315 1248 315 1248 307.5 1275 c 128,-1,76
 300 1302 300 1302 288 1322.25 c 128,-1,77
 276 1342.5 276 1342.5 258.75 1354.5 c 128,-1,78
 241.5 1366.5 241.5 1366.5 222 1366.5 c 0,79,80
 183 1366.5 183 1366.5 157.5 1323 c 128,-1,81
 132 1279.5 132 1279.5 132 1218 c 0,68,69
EndSplineSet
EndChar
StartChar: ampersand
Encoding: 38 38 183
Width: 942
VWidth: 3000
Flags: W
LayerCount: 2
Back
Fore
SplineSet
570 153 m 1,0,1
 549 136.5 549 136.5 530.25 119.25 c 128,-1,2
 511.5 102 511.5 102 490.5 85.5 c 0,3,4
 436.5 42 436.5 42 384 22.5 c 128,-1,5
 331.5 3 331.5 3 285 3 c 0,6,7
 241.5 3 241.5 3 204 18 c 1,8,-1
 205.5 18 l 1,9,10
 151.5 36 151.5 36 113.25 89.25 c 128,-1,11
 75 142.5 75 142.5 75 217.5 c 0,12,13
 75 277.5 75 277.5 103.5 342.75 c 128,-1,14
 132 408 132 408 201 472.5 c 1,15,16
 265.5 523.5 265.5 523.5 293.25 545.25 c 128,-1,17
 321 567 321 567 324 570 c 1,18,19
 268.5 667.5 268.5 667.5 268.5 763.5 c 0,20,21
 268.5 780 268.5 780 270 796.5 c 128,-1,22
 271.5 813 271.5 813 274.5 828 c 0,23,24
 292.5 898.5 292.5 898.5 341.25 934.5 c 128,-1,25
 390 970.5 390 970.5 468 967.5 c 0,26,27
 634.5 961.5 634.5 961.5 631.5 805.5 c 0,28,29
 630 667.5 630 667.5 546 591 c 1,30,31
 508.5 559.5 508.5 559.5 497.25 549.75 c 128,-1,32
 486 540 486 540 483 537 c 1,33,34
 514.5 484.5 514.5 484.5 540 441.75 c 128,-1,35
 565.5 399 565.5 399 598.5 343.5 c 1,36,37
 642 384 642 384 667.5 407.25 c 128,-1,38
 693 430.5 693 430.5 697.5 433.5 c 0,39,40
 747 478.5 747 478.5 786 426 c 1,41,42
 817.5 378 817.5 378 777 340.5 c 1,43,-1
 757.5 321 l 2,44,45
 741 306 741 306 721.5 289.5 c 128,-1,46
 702 273 702 273 663 235.5 c 1,47,48
 687 198 687 198 709.5 166.5 c 1,49,50
 729 135 729 135 736.5 130.5 c 1,51,52
 733.5 133.5 733.5 133.5 738.75 149.25 c 128,-1,53
 744 165 744 165 768 210 c 0,54,55
 796.5 264 796.5 264 850.5 235.5 c 1,56,57
 876 219 876 219 881.25 197.25 c 128,-1,58
 886.5 175.5 886.5 175.5 876 153 c 0,59,60
 823.5 54 823.5 54 774 24.75 c 128,-1,61
 724.5 -4.5 724.5 -4.5 679.5 21 c 1,62,63
 663 28.5 663 28.5 646.5 47.25 c 128,-1,64
 630 66 630 66 610.5 93 c 2,65,-1
 570 153 l 1,0,1
507 258 m 1,66,67
 505.5 261 505.5 261 504.75 261 c 128,-1,68
 504 261 504 261 502.5 264 c 0,69,70
 495 277.5 495 277.5 484.5 294.75 c 128,-1,71
 474 312 474 312 460.5 334.5 c 128,-1,72
 447 357 447 357 428.25 388.5 c 128,-1,73
 409.5 420 409.5 420 384 463.5 c 1,74,75
 358.5 442.5 358.5 442.5 333.75 422.25 c 128,-1,76
 309 402 309 402 283.5 381 c 1,77,-1
 285 382.5 l 1,78,79
 232.5 334.5 232.5 334.5 211.5 288 c 128,-1,80
 190.5 241.5 190.5 241.5 195 207 c 0,81,82
 201 151.5 201 151.5 246 133.5 c 0,83,84
 256.5 130.5 256.5 130.5 266.25 128.25 c 128,-1,85
 276 126 276 126 286.5 126 c 0,86,87
 315 126 315 126 349.5 142.5 c 128,-1,88
 384 159 384 159 418.5 184.5 c 1,89,-1
 507 258 l 1,66,67
394.5 621 m 1,90,91
 397.5 624 397.5 624 403.5 629.25 c 128,-1,92
 409.5 634.5 409.5 634.5 421.5 645 c 1,93,94
 426 637.5 426 637.5 430.5 630.75 c 128,-1,95
 435 624 435 624 439.5 618 c 1,96,-1
 394.5 621 l 1,90,91
385.5 789 m 0,97,98
 381 759 381 759 390.75 723 c 128,-1,99
 400.5 687 400.5 687 421.5 645 c 1,100,101
 430.5 652.5 430.5 652.5 441.75 660.75 c 128,-1,102
 453 669 453 669 465 681 c 1,103,104
 522 727.5 522 727.5 516 792 c 1,105,106
 513 847.5 513 847.5 456 844.5 c 1,107,108
 396 843 396 843 385.5 789 c 0,97,98
EndSplineSet
EndChar
StartChar: quotesingle
Encoding: 39 39 186
Width: 294
VWidth: 3000
Flags: W
LayerCount: 2
Back
Fore
SplineSet
195 1257 m 2,0,1
 195 1197 195 1197 132 1197 c 0,2,3
 72 1197 72 1197 72 1257 c 2,4,-1
 72 1441.5 l 2,5,6
 72 1501.5 72 1501.5 132 1501.5 c 0,7,8
 195 1501.5 195 1501.5 195 1441.5 c 2,9,-1
 195 1257 l 2,0,1
EndSplineSet
EndChar

StartChar: parenleft
Encoding: 40 40 184
Width: 184
Flags: W
LayerCount: 2
Fore
SplineSet
178 1004 m 1,0,1
 114 872 114 872 81.5 740 c 128,-1,2
 49 608 49 608 50 472 c 0,3,4
 51 340 51 340 82.5 208 c 128,-1,5
 114 76 114 76 178 -59 c 1,6,7
 198 -94 198 -94 159 -114 c 1,8,9
 124 -128 124 -128 105 -94 c 1,10,11
 -26 185 -26 185 -31 472 c 1,12,13
 -33 764 -33 764 106 1040 c 1,14,-1
 106 1039 l 1,15,16
 125 1077 125 1077 160 1059 c 1,17,-1
 159 1059 l 1,18,19
 197 1040 197 1040 178 1004 c 1,0,1
EndSplineSet
EndChar
StartChar: parenright
Encoding: 41 41 185
Width: 184
Flags: W
LayerCount: 2
Back
Fore
SplineSet
-21 -57 m 0,0,1
 44 75 44 75 76.5 207 c 128,-1,2
 109 339 109 339 108 475 c 0,3,4
 107 607 107 607 75.5 739 c 128,-1,5
 44 871 44 871 -21 1006 c 1,6,7
 -40 1040 -40 1040 -1 1062 c 1,8,9
 34 1074 34 1074 53 1041 c 1,10,11
 184 762 184 762 189 475 c 1,12,13
 191 183 191 183 52 -93 c 1,14,-1
 52 -92 l 1,15,16
 33 -130 33 -130 -2 -112 c 1,17,-1
 -1 -112 l 1,18,19
 -38 -93 -38 -93 -21 -57 c 0,0,1
EndSplineSet
EndChar

StartChar: asterisk
Encoding: 42 42 150
Width: 369
Flags: W
LayerCount: 2
Fore
SplineSet
251 805 m 1,0,1
 256 794 256 794 262 785 c 128,-1,2
 268 776 268 776 274 765 c 0,3,4
 284 746 284 746 279.5 734 c 128,-1,5
 275 722 275 722 257 711 c 0,6,7
 222 690 222 690 202 726 c 1,8,-1
 203 725 l 1,9,10
 198 733 198 733 195.5 737 c 128,-1,11
 193 741 193 741 191 744.5 c 128,-1,12
 189 748 189 748 186.5 752 c 128,-1,13
 184 756 184 756 179 764 c 1,14,-1
 156 727 l 1,15,16
 134 688 134 688 99 713 c 1,17,-1
 101 712 l 1,18,19
 67 731 67 731 84 767 c 1,20,-1
 106 805 l 1,21,22
 96 805 96 805 86 805.5 c 128,-1,23
 76 806 76 806 65 806 c 0,24,25
 21 806 21 806 24 848 c 1,26,27
 24 888 24 888 65 888 c 2,28,-1
 108 888 l 1,29,30
 103 898 103 898 97.5 907 c 128,-1,31
 92 916 92 916 87 925 c 0,32,33
 66 963 66 963 105 983 c 1,34,-1
 104 983 l 1,35,36
 141 1002 141 1002 159 965 c 1,37,-1
 158 966 l 1,38,39
 163 958 163 958 165 954.5 c 128,-1,40
 167 951 167 951 168.5 948.5 c 128,-1,41
 170 946 170 946 172 942.5 c 128,-1,42
 174 939 174 939 179 931 c 1,43,44
 184 941 184 941 190 949.5 c 128,-1,45
 196 958 196 958 202 968 c 0,46,47
 223 1001 223 1001 259 981 c 1,48,-1
 258 982 l 1,49,50
 295 960 295 960 274 926 c 2,51,-1
 251 888 l 1,52,-1
 296 888 l 1,53,54
 336 887 336 887 336 845 c 0,55,56
 336 802 336 802 296 805 c 1,57,-1
 251 805 l 1,0,1
EndSplineSet
EndChar

StartChar: plus
Encoding: 43 43 149
Width: 634
Flags: W
LayerCount: 2
Fore
SplineSet
536 362 m 0,0,1
 536 318 536 318 495 321 c 1,2,-1
 352 321 l 1,3,-1
 352 181 l 2,4,5
 352 160 352 160 341.5 148.5 c 128,-1,6
 331 137 331 137 309 139 c 1,7,8
 270 139 270 139 270 181 c 2,9,-1
 270 321 l 1,10,11
 237 321 237 321 199.5 321.5 c 128,-1,12
 162 322 162 322 130 322 c 0,13,14
 86 322 86 322 89 364 c 1,15,16
 89 405 89 405 130 405 c 2,17,-1
 270 405 l 1,18,-1
 270 546 l 1,19,20
 271 587 271 587 313 587 c 256,21,22
 355 587 355 587 353 546 c 1,23,24
 353 506 353 506 352.5 475.5 c 128,-1,25
 352 445 352 445 352 405 c 1,26,-1
 496 405 l 1,27,28
 536 402 536 402 536 362 c 0,0,1
EndSplineSet
EndChar
StartChar: comma
Encoding: 44 44 146
Width: 265
VWidth: 3000
Flags: W
LayerCount: 2
Back
Fore
SplineSet
60 136.5 m 0,0,1
 33 190.5 33 190.5 109.5 237 c 1,2,3
 184.5 280.5 184.5 280.5 225 222 c 0,4,5
 240 202.5 240 202.5 246.75 177.75 c 128,-1,6
 253.5 153 253.5 153 253.5 127.5 c 0,7,8
 253.5 75 253.5 75 232.5 24 c 0,9,10
 216 -19.5 216 -19.5 183.75 -78 c 128,-1,11
 151.5 -136.5 151.5 -136.5 105 -207 c 1,12,13
 67.5 -253.5 67.5 -253.5 18 -219 c 0,14,15
 -28.5 -186 -28.5 -186 3 -135 c 1,16,17
 46.5 -73.5 46.5 -73.5 74.25 -23.25 c 128,-1,18
 102 27 102 27 117 66 c 1,19,20
 126 94.5 126 94.5 132 96 c 1,21,22
 81 94.5 81 94.5 60 136.5 c 0,0,1
EndSplineSet
EndChar
StartChar: period
Encoding: 46 46 59
Width: 303
VWidth: 3000
Flags: W
LayerCount: 2
Back
Fore
SplineSet
49.5 88.5 m 256,0,1
 49.5 136.5 49.5 136.5 78.75 170.25 c 128,-1,2
 108 204 108 204 150 204 c 0,3,4
 193.5 204 193.5 204 222.75 170.25 c 128,-1,5
 252 136.5 252 136.5 252 88.5 c 256,6,7
 252 40.5 252 40.5 222.75 7.5 c 128,-1,8
 193.5 -25.5 193.5 -25.5 150 -25.5 c 0,9,10
 108 -25.5 108 -25.5 78.75 7.5 c 128,-1,11
 49.5 40.5 49.5 40.5 49.5 88.5 c 256,0,1
EndSplineSet
EndChar
StartChar: slash
Encoding: 47 47 74
Width: 540
Flags: W
LayerCount: 2
Back
Fore
SplineSet
78 24 m 1,0,-1
 78 25 l 1,1,2
 60 -13 60 -13 23 6 c 1,3,-1
 24 6 l 1,4,5
 7 14 7 14 2 28.5 c 128,-1,6
 -3 43 -3 43 5 60 c 0,7,8
 114 288 114 288 226.5 519 c 128,-1,9
 339 750 339 750 448 978 c 1,10,11
 459 996 459 996 472 1001.5 c 128,-1,12
 485 1007 485 1007 503 996 c 1,13,14
 540 977 540 977 522 941 c 2,15,-1
 78 24 l 1,0,-1
EndSplineSet
EndChar

StartChar: zero
Encoding: 48 48 115
Width: 673
Flags: W
LayerCount: 2
Fore
SplineSet
330 -21 m 256,0,1
 201 -21 201 -21 115 138 c 1,2,-1
 115 137 l 1,3,4
 35 285 35 285 35 490 c 0,5,6
 35 594 35 594 55 681 c 128,-1,7
 75 768 75 768 115 842 c 1,8,-1
 115 841 l 1,9,10
 201 1001 201 1001 330 1001 c 256,11,12
 459 1001 459 1001 545 841 c 1,13,-1
 545 842 l 1,14,15
 625 696 625 696 625 490 c 0,16,17
 625 285 625 285 545 137 c 1,18,-1
 545 138 l 1,19,20
 459 -21 459 -21 330 -21 c 256,0,1
187 176 m 1,21,22
 249 60 249 60 330 60 c 0,23,24
 369 60 369 60 405 88.5 c 128,-1,25
 441 117 441 117 473 176 c 0,26,27
 543 304 543 304 543 490 c 0,28,29
 543 675 543 675 473 803 c 0,30,31
 410 919 410 919 330 919 c 256,32,33
 250 919 250 919 187 803 c 1,34,-1
 187 804 l 1,35,36
 117 674 117 674 117 490 c 0,37,38
 117 304 117 304 187 177 c 1,39,-1
 187 176 l 1,21,22
EndSplineSet
EndChar
StartChar: one
Encoding: 49 49 116
Width: 217
VWidth: 3000
Flags: W
LayerCount: 2
Back
Fore
SplineSet
168 28.5 m 2,0,1
 168 -31.5 168 -31.5 106.5 -31.5 c 256,2,3
 45 -31.5 45 -31.5 45 28.5 c 2,4,-1
 45 1441.5 l 2,5,6
 45 1501.5 45 1501.5 106.5 1501.5 c 256,7,8
 168 1501.5 168 1501.5 168 1441.5 c 2,9,-1
 168 28.5 l 2,0,1
EndSplineSet
EndChar
StartChar: two
Encoding: 50 50 117
Width: 955
VWidth: 3000
Flags: W
LayerCount: 2
Back
Fore
SplineSet
52.5 984 m 0,0,1
 52.5 1195.5 52.5 1195.5 169.5 1344 c 0,2,3
 292.5 1501.5 292.5 1501.5 468 1501.5 c 0,4,5
 642 1501.5 642 1501.5 768 1344 c 1,6,7
 885 1192.5 885 1192.5 885 984 c 0,8,9
 885 862.5 885 862.5 847.5 763.5 c 1,10,11
 805.5 658.5 805.5 658.5 735 582 c 1,12,-1
 255 90 l 1,13,-1
 823.5 90 l 2,14,15
 885 90 885 90 885 28.5 c 0,16,17
 885 -31.5 885 -31.5 823.5 -31.5 c 2,18,-1
 112.5 -31.5 l 2,19,20
 52.5 -31.5 52.5 -31.5 52.5 28.5 c 0,21,22
 52.5 52.5 52.5 52.5 70.5 73.5 c 1,23,-1
 646.5 667.5 l 2,24,25
 673.5 696 673.5 696 694.5 731.25 c 128,-1,26
 715.5 766.5 715.5 766.5 732 805.5 c 1,27,28
 747 849 747 849 755.25 892.5 c 128,-1,29
 763.5 936 763.5 936 763.5 984 c 0,30,31
 763.5 1146 763.5 1146 670.5 1269 c 0,32,33
 588 1378.5 588 1378.5 468 1378.5 c 0,34,35
 351 1378.5 351 1378.5 265.5 1269 c 1,36,37
 174 1146 174 1146 174 984 c 0,38,39
 174 921 174 921 112.5 921 c 0,40,41
 52.5 921 52.5 921 52.5 984 c 0,0,1
EndSplineSet
EndChar
StartChar: three
Encoding: 51 51 118
Width: 637
Flags: W
LayerCount: 2
Back
Fore
SplineSet
35 725 m 0,0,1
 35 839 35 839 116 920 c 0,2,3
 198 1001 198 1001 312 1001 c 256,4,5
 426 1001 426 1001 509 920 c 1,6,7
 590 839 590 839 590 725 c 0,8,9
 590 609 590 609 509 530 c 0,10,11
 497 517 497 517 484 507.5 c 128,-1,12
 471 498 471 498 457 489 c 1,13,14
 471 481 471 481 484.5 470.5 c 128,-1,15
 498 460 498 460 509 449 c 0,16,17
 590 368 590 368 590 255 c 0,18,19
 590 139 590 139 509 60 c 0,20,21
 426 -21 426 -21 312 -21 c 0,22,23
 197 -21 197 -21 116 60 c 1,24,25
 35 139 35 139 35 255 c 0,26,27
 35 295 35 295 75 295 c 0,28,29
 116 295 116 295 116 255 c 0,30,31
 116 174 116 174 173 116 c 1,32,33
 232 60 232 60 312 60 c 0,34,35
 393 60 393 60 451 116 c 1,36,37
 509 174 509 174 509 255 c 0,38,39
 509 337 509 337 451 392 c 1,40,41
 394 449 394 449 312 449 c 0,42,43
 271 449 271 449 271 490 c 256,44,45
 271 531 271 531 312 531 c 0,46,47
 393 531 393 531 451 587 c 0,48,49
 509 644 509 644 509 725 c 0,50,51
 509 807 509 807 451 862 c 1,52,53
 394 919 394 919 312 919 c 0,54,55
 231 919 231 919 173 862 c 0,56,57
 116 806 116 806 116 725 c 0,58,59
 116 685 116 685 75 685 c 0,60,61
 35 685 35 685 35 725 c 0,0,1
EndSplineSet
EndChar
StartChar: four
Encoding: 52 52 119
Width: 951
VWidth: 3000
Flags: W
LayerCount: 2
Back
Fore
SplineSet
555 771 m 1,0,-1
 819 771 l 2,1,2
 880.5 771 880.5 771 880.5 709.5 c 0,3,4
 880.5 649.5 880.5 649.5 819 649.5 c 2,5,-1
 555 649.5 l 1,6,-1
 555 28.5 l 2,7,8
 555 -31.5 555 -31.5 495 -31.5 c 0,9,10
 433.5 -31.5 433.5 -31.5 433.5 28.5 c 2,11,-1
 433.5 649.5 l 1,12,-1
 114 649.5 l 1,13,14
 72 652.5 72 652.5 63 684 c 1,15,-1
 57 684 l 1,16,-1
 108 1443 l 2,17,18
 112.5 1506 112.5 1506 174 1501.5 c 0,19,20
 234 1497 234 1497 229.5 1437 c 2,21,-1
 181.5 771 l 1,22,-1
 433.5 771 l 1,23,-1
 433.5 1441.5 l 2,24,25
 433.5 1501.5 433.5 1501.5 495 1501.5 c 0,26,27
 555 1501.5 555 1501.5 555 1441.5 c 2,28,-1
 555 771 l 1,0,-1
EndSplineSet
EndChar
StartChar: five
Encoding: 53 53 120
Width: 955
VWidth: 3000
Flags: W
LayerCount: 2
Back
Fore
SplineSet
207 672 m 2,0,1
 208.5 672 208.5 672 210 677.25 c 128,-1,2
 211.5 682.5 211.5 682.5 214.5 687 c 2,3,-1
 210 678 l 1,4,-1
 207 672 l 2,0,1
174 486 m 0,5,6
 174 318 174 318 265.5 199.5 c 0,7,8
 351 90 351 90 468 90 c 256,9,10
 585 90 585 90 670.5 199.5 c 0,11,12
 763.5 318 763.5 318 763.5 486 c 256,13,14
 763.5 654 763.5 654 667.5 777 c 1,15,16
 588 883.5 588 883.5 468 883.5 c 0,17,18
 430.5 883.5 430.5 883.5 395.25 870.75 c 128,-1,19
 360 858 360 858 327 834 c 1,20,21
 292.5 805.5 292.5 805.5 264 768.75 c 128,-1,22
 235.5 732 235.5 732 216 688.5 c 1,23,-1
 214.5 687 l 1,24,-1
 214.5 690 l 2,25,26
 214.5 691.5 214.5 691.5 216 691.5 c 1,27,28
 184.5 625.5 184.5 625.5 133.5 654 c 1,29,30
 114 661.5 114 661.5 105.75 680.25 c 128,-1,31
 97.5 699 97.5 699 97.5 717 c 0,32,33
 111 897 111 897 126 1080.75 c 128,-1,34
 141 1264.5 141 1264.5 154.5 1444.5 c 1,35,36
 154.5 1503 154.5 1503 216 1503 c 2,37,-1
 762 1503 l 2,38,39
 822 1503 822 1503 822 1441.5 c 256,40,41
 822 1380 822 1380 762 1380 c 2,42,-1
 270 1380 l 1,43,44
 265.5 1314 265.5 1314 261.75 1259.25 c 128,-1,45
 258 1204.5 258 1204.5 254.25 1152 c 128,-1,46
 250.5 1099.5 250.5 1099.5 246.75 1043.25 c 128,-1,47
 243 987 243 987 237 918 c 1,48,49
 243 922.5 243 922.5 245.25 924 c 128,-1,50
 247.5 925.5 247.5 925.5 253.5 930 c 0,51,52
 351 1005 351 1005 468 1005 c 0,53,54
 645 1005 645 1005 765 852 c 0,55,56
 825 774 825 774 855 675.75 c 128,-1,57
 885 577.5 885 577.5 885 486 c 0,58,59
 885 382.5 885 382.5 854.25 291 c 128,-1,60
 823.5 199.5 823.5 199.5 768 127.5 c 0,61,62
 708 51 708 51 632.25 9.75 c 128,-1,63
 556.5 -31.5 556.5 -31.5 468 -31.5 c 256,64,65
 379.5 -31.5 379.5 -31.5 303.75 9.75 c 128,-1,66
 228 51 228 51 169.5 127.5 c 0,67,68
 114 199.5 114 199.5 83.25 291 c 128,-1,69
 52.5 382.5 52.5 382.5 52.5 486 c 0,70,71
 52.5 546 52.5 546 112.5 546 c 0,72,73
 174 546 174 546 174 486 c 0,5,6
EndSplineSet
EndChar
StartChar: six
Encoding: 54 54 121
Width: 955
VWidth: 3000
Flags: W
LayerCount: 2
Back
Fore
SplineSet
468 883.5 m 0,0,1
 349.5 883.5 349.5 883.5 265.5 772.5 c 0,2,3
 174 651 174 651 174 486 c 0,4,5
 174 318 174 318 265.5 199.5 c 0,6,7
 351 90 351 90 468 90 c 256,8,9
 585 90 585 90 670.5 199.5 c 0,10,11
 763.5 318 763.5 318 763.5 486 c 0,12,13
 763.5 652.5 763.5 652.5 670.5 772.5 c 1,14,15
 588 883.5 588 883.5 468 883.5 c 0,0,1
361.5 988.5 m 1,16,17
 414 1005 414 1005 468 1005 c 0,18,19
 646.5 1005 646.5 1005 768 846 c 0,20,21
 885 694.5 885 694.5 885 486 c 0,22,23
 885 382.5 885 382.5 854.25 291 c 128,-1,24
 823.5 199.5 823.5 199.5 768 127.5 c 0,25,26
 708 51 708 51 632.25 9.75 c 128,-1,27
 556.5 -31.5 556.5 -31.5 468 -31.5 c 256,28,29
 379.5 -31.5 379.5 -31.5 303.75 9.75 c 128,-1,30
 228 51 228 51 169.5 127.5 c 0,31,32
 114 199.5 114 199.5 83.25 291 c 128,-1,33
 52.5 382.5 52.5 382.5 52.5 486 c 0,34,35
 52.5 558 52.5 558 70.5 631.5 c 128,-1,36
 88.5 705 88.5 705 117 766.5 c 0,37,38
 198 934.5 198 934.5 288.75 1117.5 c 128,-1,39
 379.5 1300.5 379.5 1300.5 460.5 1468.5 c 1,40,-1
 460.5 1467 l 1,41,42
 486 1524 486 1524 543 1494 c 1,43,44
 592.5 1471.5 592.5 1471.5 571.5 1416 c 1,45,-1
 361.5 988.5 l 1,16,17
EndSplineSet
EndChar
StartChar: seven
Encoding: 55 55 122
Width: 865
VWidth: 3000
Flags: W
LayerCount: 2
Back
Fore
SplineSet
735 1501.5 m 2,0,1
 796.5 1501.5 796.5 1501.5 796.5 1441.5 c 0,2,3
 796.5 1435.5 796.5 1435.5 796.5 1428.75 c 128,-1,4
 796.5 1422 796.5 1422 793.5 1416 c 0,5,6
 700.5 1063.5 700.5 1063.5 608.25 714.75 c 128,-1,7
 516 366 516 366 423 13.5 c 1,8,9
 405 -45 405 -45 346.5 -28.5 c 1,10,11
 288 -7.5 288 -7.5 306 46.5 c 1,12,-1
 306 45 l 1,13,14
 351 216 351 216 394.5 381.75 c 128,-1,15
 438 547.5 438 547.5 481.5 711.75 c 128,-1,16
 525 876 525 876 569.25 1041.75 c 128,-1,17
 613.5 1207.5 613.5 1207.5 658.5 1378.5 c 1,18,-1
 114 1378.5 l 2,19,20
 51 1378.5 51 1378.5 51 1441.5 c 0,21,22
 51 1501.5 51 1501.5 114 1501.5 c 2,23,-1
 735 1501.5 l 2,0,1
EndSplineSet
EndChar
StartChar: eight
Encoding: 56 56 123
Width: 955
VWidth: 3000
Flags: W
LayerCount: 2
Back
Fore
SplineSet
259.5 588 m 1,0,1
 174 504 174 504 174 382.5 c 256,2,3
 174 261 174 261 259.5 174 c 1,4,5
 348 90 348 90 468 90 c 0,6,7
 589.5 90 589.5 90 676.5 174 c 1,8,9
 763.5 261 763.5 261 763.5 382.5 c 0,10,11
 763.5 505.5 763.5 505.5 676.5 588 c 1,12,-1
 676.5 586.5 l 1,13,14
 579 679.5 579 679.5 465 675 c 0,15,16
 354 672 354 672 259.5 586.5 c 1,17,-1
 259.5 588 l 1,0,1
174 673.5 m 0,18,19
 208.5 708 208.5 708 250.5 733.5 c 1,20,21
 229.5 745.5 229.5 745.5 210 760.5 c 128,-1,22
 190.5 775.5 190.5 775.5 174 795 c 1,23,24
 52.5 913.5 52.5 913.5 52.5 1087.5 c 0,25,26
 52.5 1258.5 52.5 1258.5 174 1380 c 0,27,28
 297 1501.5 297 1501.5 468 1501.5 c 256,29,30
 639 1501.5 639 1501.5 763.5 1380 c 1,31,32
 885 1258.5 885 1258.5 885 1087.5 c 0,33,34
 885 913.5 885 913.5 763.5 795 c 0,35,36
 745.5 775.5 745.5 775.5 726 761.25 c 128,-1,37
 706.5 747 706.5 747 685.5 733.5 c 1,38,39
 706.5 721.5 706.5 721.5 726.75 705.75 c 128,-1,40
 747 690 747 690 763.5 673.5 c 0,41,42
 885 552 885 552 885 382.5 c 0,43,44
 885 208.5 885 208.5 763.5 90 c 0,45,46
 639 -31.5 639 -31.5 468 -31.5 c 0,47,48
 295.5 -31.5 295.5 -31.5 174 90 c 1,49,50
 52.5 208.5 52.5 208.5 52.5 382.5 c 0,51,52
 52.5 552 52.5 552 174 673.5 c 0,18,19
259.5 880.5 m 1,53,54
 346.5 796.5 346.5 796.5 468 796.5 c 256,55,56
 589.5 796.5 589.5 796.5 676.5 880.5 c 0,57,58
 763.5 966 763.5 966 763.5 1087.5 c 0,59,60
 763.5 1210.5 763.5 1210.5 676.5 1293 c 1,61,62
 591 1378.5 591 1378.5 468 1378.5 c 0,63,64
 346.5 1378.5 346.5 1378.5 259.5 1293 c 0,65,66
 174 1209 174 1209 174 1087.5 c 256,67,68
 174 966 174 966 259.5 880.5 c 1,53,54
EndSplineSet
EndChar
StartChar: nine
Encoding: 57 57 124
Width: 955
VWidth: 3000
Flags: W
LayerCount: 2
Back
Fore
SplineSet
468 586.5 m 0,0,1
 588 586.5 588 586.5 670.5 696 c 1,2,3
 763.5 814.5 763.5 814.5 763.5 984 c 0,4,5
 763.5 1146 763.5 1146 670.5 1269 c 0,6,7
 588 1378.5 588 1378.5 468 1378.5 c 0,8,9
 351 1378.5 351 1378.5 265.5 1269 c 1,10,11
 174 1146 174 1146 174 984 c 0,12,13
 174 814.5 174 814.5 265.5 696 c 0,14,15
 351 586.5 351 586.5 468 586.5 c 0,0,1
577.5 481.5 m 1,16,17
 550.5 472.5 550.5 472.5 523.5 468.75 c 128,-1,18
 496.5 465 496.5 465 468 465 c 0,19,20
 291 465 291 465 169.5 621 c 0,21,22
 52.5 769.5 52.5 769.5 52.5 984 c 0,23,24
 52.5 1195.5 52.5 1195.5 169.5 1344 c 0,25,26
 292.5 1501.5 292.5 1501.5 468 1501.5 c 0,27,28
 642 1501.5 642 1501.5 768 1344 c 1,29,30
 885 1192.5 885 1192.5 885 984 c 0,31,32
 885 906 885 906 867.75 834.75 c 128,-1,33
 850.5 763.5 850.5 763.5 819 702 c 1,34,35
 780 621 780 621 736.5 532.5 c 128,-1,36
 693 444 693 444 648 352.5 c 128,-1,37
 603 261 603 261 559.5 172.5 c 128,-1,38
 516 84 516 84 477 3 c 1,39,-1
 477 4.5 l 1,40,41
 450 -48 450 -48 397.5 -24 c 1,42,-1
 399 -25.5 l 1,43,44
 369 -13.5 369 -13.5 362.25 8.25 c 128,-1,45
 355.5 30 355.5 30 367.5 55.5 c 2,46,-1
 577.5 481.5 l 1,16,17
EndSplineSet
EndChar
StartChar: colon
Encoding: 58 58 137
Width: 303
VWidth: 3000
Flags: W
LayerCount: 2
Back
Fore
SplineSet
49.5 673.5 m 256,0,1
 49.5 721.5 49.5 721.5 78.75 755.25 c 128,-1,2
 108 789 108 789 150 789 c 0,3,4
 193.5 789 193.5 789 222.75 755.25 c 128,-1,5
 252 721.5 252 721.5 252 673.5 c 256,6,7
 252 625.5 252 625.5 222.75 592.5 c 128,-1,8
 193.5 559.5 193.5 559.5 150 559.5 c 0,9,10
 108 559.5 108 559.5 78.75 592.5 c 128,-1,11
 49.5 625.5 49.5 625.5 49.5 673.5 c 256,0,1
49.5 88.5 m 256,12,13
 49.5 136.5 49.5 136.5 78.75 170.25 c 128,-1,14
 108 204 108 204 150 204 c 0,15,16
 193.5 204 193.5 204 222.75 170.25 c 128,-1,17
 252 136.5 252 136.5 252 88.5 c 256,18,19
 252 40.5 252 40.5 222.75 7.5 c 128,-1,20
 193.5 -25.5 193.5 -25.5 150 -25.5 c 0,21,22
 108 -25.5 108 -25.5 78.75 7.5 c 128,-1,23
 49.5 40.5 49.5 40.5 49.5 88.5 c 256,12,13
EndSplineSet
EndChar
StartChar: semicolon
Encoding: 59 59 147
Width: 265
VWidth: 3000
Flags: W
LayerCount: 2
Back
Fore
SplineSet
60 136.5 m 0,0,1
 33 190.5 33 190.5 109.5 237 c 1,2,3
 184.5 280.5 184.5 280.5 225 222 c 0,4,5
 240 202.5 240 202.5 246.75 177.75 c 128,-1,6
 253.5 153 253.5 153 253.5 127.5 c 0,7,8
 253.5 75 253.5 75 232.5 24 c 0,9,10
 216 -19.5 216 -19.5 183.75 -78 c 128,-1,11
 151.5 -136.5 151.5 -136.5 105 -207 c 1,12,13
 67.5 -253.5 67.5 -253.5 18 -219 c 0,14,15
 -28.5 -186 -28.5 -186 3 -135 c 1,16,17
 46.5 -73.5 46.5 -73.5 74.25 -23.25 c 128,-1,18
 102 27 102 27 117 66 c 1,19,20
 126 94.5 126 94.5 132 96 c 1,21,22
 81 94.5 81 94.5 60 136.5 c 0,0,1
48 673.5 m 256,23,24
 48 721.5 48 721.5 77.25 755.25 c 128,-1,25
 106.5 789 106.5 789 150 789 c 0,26,27
 192 789 192 789 222 755.25 c 128,-1,28
 252 721.5 252 721.5 252 673.5 c 256,29,30
 252 625.5 252 625.5 222 592.5 c 128,-1,31
 192 559.5 192 559.5 150 559.5 c 0,32,33
 106.5 559.5 106.5 559.5 77.25 592.5 c 128,-1,34
 48 625.5 48 625.5 48 673.5 c 256,23,24
EndSplineSet
EndChar

StartChar: less
Encoding: 60 60 57
Width: 323
Flags: W
LayerCount: 2
Fore
SplineSet
27 247 m 1,0,-1
 220 497 l 1,1,2
 233 511 233 511 248 514 c 128,-1,3
 263 517 263 517 278 506 c 1,4,5
 292 492 292 492 293 477.5 c 128,-1,6
 294 463 294 463 285 450 c 0,7,8
 244 397 244 397 206.5 348.5 c 128,-1,9
 169 300 169 300 128 247 c 1,10,11
 167 197 167 197 207 146.5 c 128,-1,12
 247 96 247 96 285 45 c 1,13,14
 305 16 305 16 278 -13 c 1,15,16
 246 -36 246 -36 220 -6 c 1,17,-1
 27 247 l 1,0,-1
EndSplineSet
EndChar
StartChar: equal
Encoding: 61 61 126
Width: 810
VWidth: 3000
Flags: W
LayerCount: 2
Back
Fore
SplineSet
190.5 378 m 2,0,1
 127.5 378 127.5 378 129 439.5 c 1,2,3
 124.5 502.5 124.5 502.5 190.5 502.5 c 2,4,-1
 598.5 502.5 l 2,5,6
 630 502.5 630 502.5 644.25 486 c 128,-1,7
 658.5 469.5 658.5 469.5 661.5 438 c 1,8,9
 661.5 376.5 661.5 376.5 597 376.5 c 2,10,-1
 190.5 378 l 2,0,1
187.5 618 m 2,11,12
 123 618 123 618 127.5 679.5 c 1,13,14
 127.5 741 127.5 741 187.5 741 c 2,15,-1
 598.5 741 l 1,16,17
 630 738 630 738 644.25 723 c 128,-1,18
 658.5 708 658.5 708 661.5 678 c 1,19,20
 661.5 615 661.5 615 597 615 c 2,21,-1
 187.5 618 l 2,11,12
EndSplineSet
EndChar
StartChar: question
Encoding: 63 63 53
Width: 724
VWidth: 3000
Flags: W
LayerCount: 2
Back
Fore
SplineSet
-169.5 1195.5 m 1,0,1
 -144 1269 -144 1269 -104.25 1325.25 c 128,-1,2
 -64.5 1381.5 -64.5 1381.5 -13.5 1422 c 1,3,4
 36 1458 36 1458 99 1479.75 c 128,-1,5
 162 1501.5 162 1501.5 231 1501.5 c 0,6,7
 310.5 1501.5 310.5 1501.5 382.5 1478.25 c 128,-1,8
 454.5 1455 454.5 1455 511.5 1411.5 c 0,9,10
 576 1362 576 1362 612 1294.5 c 128,-1,11
 648 1227 648 1227 651 1141.5 c 0,12,13
 657 975 657 975 592.5 880.5 c 0,14,15
 562.5 837 562.5 837 528 798.75 c 128,-1,16
 493.5 760.5 493.5 760.5 454.5 729 c 1,17,18
 420 699 420 699 386.25 661.5 c 128,-1,19
 352.5 624 352.5 624 325.5 585 c 0,20,21
 282 520.5 282 520.5 282 382.5 c 0,22,23
 282 366 282 366 282.75 349.5 c 128,-1,24
 283.5 333 283.5 333 285 316.5 c 1,25,26
 283.5 289.5 283.5 289.5 268.5 270.75 c 128,-1,27
 253.5 252 253.5 252 225 252 c 1,28,29
 166.5 247.5 166.5 247.5 162 310.5 c 0,30,31
 160.5 330 160.5 330 159.75 349.5 c 128,-1,32
 159 369 159 369 159 387 c 0,33,34
 159 558 159 558 220.5 649.5 c 0,35,36
 255 699 255 699 294.75 742.5 c 128,-1,37
 334.5 786 334.5 786 375 820.5 c 0,38,39
 405 846 405 846 434.25 879 c 128,-1,40
 463.5 912 463.5 912 487.5 945 c 1,41,42
 528 996 528 996 528 1116 c 0,43,44
 528 1126.5 528 1126.5 528 1136.25 c 128,-1,45
 528 1146 528 1146 526.5 1158 c 1,46,-1
 526.5 1156.5 l 1,47,48
 519 1206 519 1206 497.25 1245.75 c 128,-1,49
 475.5 1285.5 475.5 1285.5 438 1314 c 0,50,51
 354 1378.5 354 1378.5 231 1378.5 c 0,52,53
 129 1378.5 129 1378.5 60 1326 c 1,54,-1
 61.5 1326 l 1,55,56
 -10.5 1267.5 -10.5 1267.5 -55.5 1152 c 1,57,-1
 -55.5 1153.5 l 1,58,59
 -78 1092 -78 1092 -136.5 1119 c 1,60,61
 -192 1137 -192 1137 -169.5 1194 c 1,62,-1
 -169.5 1195.5 l 1,0,1
189 88.5 m 0,63,64
 189 63 189 63 201.75 47.25 c 128,-1,65
 214.5 31.5 214.5 31.5 232.5 31.5 c 256,66,67
 250.5 31.5 250.5 31.5 264 47.25 c 128,-1,68
 277.5 63 277.5 63 277.5 88.5 c 0,69,70
 277.5 112.5 277.5 112.5 264 129 c 128,-1,71
 250.5 145.5 250.5 145.5 232.5 145.5 c 256,72,73
 214.5 145.5 214.5 145.5 201.75 129 c 128,-1,74
 189 112.5 189 112.5 189 88.5 c 0,63,64
EndSplineSet
EndChar
StartChar: at
Encoding: 64 64 125
Width: 841
VWidth: 3000
Flags: W
LayerCount: 2
Back
Fore
SplineSet
582 543 m 1,0,1
 573 550.5 573 550.5 564 558 c 128,-1,2
 555 565.5 555 565.5 547.5 573 c 1,3,-1
 547.5 565.5 l 1,4,-1
 547.5 189 l 1,5,6
 546 127.5 546 127.5 560.25 108 c 128,-1,7
 574.5 88.5 574.5 88.5 606 88.5 c 0,8,9
 627 88.5 627 88.5 648 124.5 c 0,10,11
 657 141 657 141 663.75 163.5 c 128,-1,12
 670.5 186 670.5 186 675 210 c 128,-1,13
 679.5 234 679.5 234 681.75 257.25 c 128,-1,14
 684 280.5 684 280.5 684 298.5 c 1,15,-1
 685.5 300 l 1,16,17
 685.5 438 685.5 438 582 544.5 c 1,18,-1
 582 543 l 1,0,1
511.5 -24 m 2,19,20
 516 -19.5 516 -19.5 519 -19.5 c 1,21,22
 478.5 -1.5 478.5 -1.5 454.5 31.5 c 1,23,24
 420 1.5 420 1.5 375 -15.75 c 128,-1,25
 330 -33 330 -33 279 -33 c 0,26,27
 147 -33 147 -33 76.5 55.5 c 0,28,29
 42 97.5 42 97.5 26.25 155.25 c 128,-1,30
 10.5 213 10.5 213 10.5 285 c 0,31,32
 10.5 414 10.5 414 69 507 c 1,33,34
 129 607.5 129 607.5 279 607.5 c 0,35,36
 363 607.5 363 607.5 424.5 567 c 1,37,38
 424.5 613.5 424.5 613.5 463.5 621 c 1,39,40
 402 648 402 648 331.5 652.5 c 1,41,-1
 319.5 652.5 l 2,42,43
 165 652.5 165 652.5 60 544.5 c 0,44,45
 -45 435 -45 435 -45 285 c 0,46,47
 -45 133.5 -45 133.5 60 28.5 c 1,48,49
 165 -79.5 165 -79.5 319.5 -79.5 c 0,50,51
 343.5 -79.5 343.5 -79.5 368.25 -75.75 c 128,-1,52
 393 -72 393 -72 420 -64.5 c 1,53,-1
 418.5 -64.5 l 1,54,55
 444 -57 444 -57 467.25 -46.5 c 128,-1,56
 490.5 -36 490.5 -36 513 -22.5 c 1,57,-1
 511.5 -24 l 2,19,20
577.5 -126 m 1,58,59
 522 -162 522 -162 453 -181.5 c 0,60,61
 388.5 -201 388.5 -201 319.5 -201 c 0,62,63
 112.5 -201 112.5 -201 -24 -57 c 1,64,65
 -168 82.5 -168 82.5 -168 285 c 256,66,67
 -168 487.5 -168 487.5 -24 630 c 1,68,69
 114 772.5 114 772.5 319.5 772.5 c 2,70,-1
 337.5 772.5 l 1,71,72
 526.5 766.5 526.5 766.5 667.5 630 c 1,73,74
 807 492 807 492 807 300 c 2,75,-1
 807 283.5 l 1,76,77
 805.5 241.5 805.5 241.5 795 178.5 c 128,-1,78
 784.5 115.5 784.5 115.5 756 64.5 c 1,79,-1
 756 66 l 1,80,81
 702 -33 702 -33 607.5 -33 c 2,82,-1
 589.5 -33 l 1,83,84
 591 -36 591 -36 592.5 -38.25 c 128,-1,85
 594 -40.5 594 -40.5 595.5 -43.5 c 0,86,87
 627 -94.5 627 -94.5 576 -126 c 1,88,-1
 577.5 -126 l 1,58,59
279 484.5 m 0,89,90
 199.5 484.5 199.5 484.5 166.5 430.5 c 0,91,92
 150 402 150 402 141 364.5 c 128,-1,93
 132 327 132 327 132 285 c 0,94,95
 132 183 132 183 174 130.5 c 0,96,97
 207 88.5 207 88.5 279 88.5 c 256,98,99
 351 88.5 351 88.5 382.5 130.5 c 0,100,101
 403.5 157.5 403.5 157.5 414 195 c 128,-1,102
 424.5 232.5 424.5 232.5 424.5 285 c 0,103,104
 424.5 385.5 424.5 385.5 382.5 441 c 1,105,-1
 384 439.5 l 1,106,107
 346.5 484.5 346.5 484.5 279 484.5 c 0,89,90
EndSplineSet
EndChar

StartChar: A
Encoding: 65 65 3
Width: 790
Flags: W
LayerCount: 2
Fore
SplineSet
258 437 m 1,0,1
 223 329 223 329 187.5 223 c 128,-1,2
 152 117 152 117 117 8 c 1,3,-1
 117 9 l 1,4,5
 105 -32 105 -32 66 -18 c 1,6,7
 30 -8 30 -8 38 27 c 1,8,-1
 349 983 l 2,9,10
 353 994 353 994 360 999.5 c 128,-1,11
 367 1005 367 1005 377 1010 c 1,12,13
 413 1021 413 1021 427 984 c 1,14,-1
 737 32 l 1,15,-1
 737 33 l 1,16,17
 751 -5 751 -5 711 -18 c 1,18,19
 672 -32 672 -32 658 7 c 1,20,-1
 518 437 l 1,21,-1
 258 437 l 1,0,1
388 837 m 1,22,23
 374 793 374 793 361.5 755 c 128,-1,24
 349 717 349 717 336.5 680 c 128,-1,25
 324 643 324 643 311.5 604.5 c 128,-1,26
 299 566 299 566 284 520 c 1,27,-1
 493 520 l 1,28,-1
 388 837 l 1,22,23
EndSplineSet
EndChar
StartChar: B
Encoding: 66 66 4
Width: 868
VWidth: 3000
Flags: W
LayerCount: 2
Back
Fore
SplineSet
174 681 m 1,0,-1
 174 90 l 1,1,-1
 357 90 l 2,2,3
 520.5 90 520.5 90 601.5 166.5 c 1,4,5
 682.5 240 682.5 240 682.5 387 c 0,6,7
 682.5 529.5 682.5 529.5 601.5 606 c 1,8,-1
 601.5 604.5 l 1,9,10
 520.5 681 520.5 681 357 681 c 2,11,-1
 174 681 l 1,0,-1
111 -31.5 m 2,12,13
 102 -31.5 102 -31.5 97.5 -30.75 c 128,-1,14
 93 -30 93 -30 87 -27 c 0,15,16
 49.5 -10.5 49.5 -10.5 49.5 31.5 c 2,17,-1
 49.5 1456.5 l 2,18,19
 49.5 1518 49.5 1518 114 1518 c 2,20,-1
 357 1518 l 2,21,22
 568.5 1518 568.5 1518 685.5 1410 c 0,23,24
 807 1299 807 1299 807 1099.5 c 256,25,26
 807 900 807 900 687 789 c 1,27,-1
 685.5 789 l 1,28,29
 657 763.5 657 763.5 621 742.5 c 1,30,31
 637.5 732 637.5 732 654.75 720 c 128,-1,32
 672 708 672 708 685.5 696 c 0,33,34
 807 585 807 585 807 387 c 0,35,36
 807 186 807 186 685.5 75 c 1,37,38
 565.5 -31.5 565.5 -31.5 357 -31.5 c 2,39,-1
 111 -31.5 l 2,12,13
174 1395 m 1,40,-1
 174 805.5 l 1,41,-1
 357 805.5 l 2,42,43
 522 805.5 522 805.5 601.5 880.5 c 0,44,45
 682.5 957 682.5 957 682.5 1099.5 c 256,46,47
 682.5 1242 682.5 1242 601.5 1318.5 c 1,48,49
 520.5 1392 520.5 1392 354 1395 c 1,50,-1
 174 1395 l 1,40,-1
EndSplineSet
EndChar
StartChar: C
Encoding: 67 67 5
Width: 1026
VWidth: 3000
Flags: W
LayerCount: 2
Back
Fore
SplineSet
946.5 286.5 m 1,0,1
 918 211.5 918 211.5 875.25 150.75 c 128,-1,2
 832.5 90 832.5 90 784.5 51 c 1,3,4
 732 12 732 12 668.25 -9.75 c 128,-1,5
 604.5 -31.5 604.5 -31.5 534 -31.5 c 0,6,7
 294 -31.5 294 -31.5 171 183 c 1,8,9
 106.5 288 106.5 288 78.75 432 c 128,-1,10
 51 576 51 576 51 744 c 0,11,12
 51 909 51 909 78.75 1052.25 c 128,-1,13
 106.5 1195.5 106.5 1195.5 171 1303.5 c 1,14,15
 295.5 1518 295.5 1518 534 1518 c 0,16,17
 679.5 1518 679.5 1518 784.5 1435.5 c 0,18,19
 832.5 1396.5 832.5 1396.5 875.25 1332 c 128,-1,20
 918 1267.5 918 1267.5 946.5 1200 c 0,21,22
 970.5 1140 970.5 1140 910.5 1120.5 c 0,23,24
 853.5 1101 853.5 1101 831 1156.5 c 0,25,26
 807 1215 807 1215 776.25 1262.25 c 128,-1,27
 745.5 1309.5 745.5 1309.5 709.5 1338 c 0,28,29
 636 1393.5 636 1393.5 534 1393.5 c 0,30,31
 451.5 1393.5 451.5 1393.5 385.5 1353.75 c 128,-1,32
 319.5 1314 319.5 1314 276 1242 c 0,33,34
 223.5 1152 223.5 1152 199.5 1021.5 c 128,-1,35
 175.5 891 175.5 891 175.5 744 c 0,36,37
 175.5 589.5 175.5 589.5 198.75 462 c 128,-1,38
 222 334.5 222 334.5 276 244.5 c 1,39,40
 364.5 90 364.5 90 534 90 c 0,41,42
 633 90 633 90 709.5 148.5 c 0,43,44
 784.5 205.5 784.5 205.5 831 330 c 1,45,46
 843 357 843 357 861 366.75 c 128,-1,47
 879 376.5 879 376.5 909 366 c 1,48,49
 969 339 969 339 945 285 c 1,50,-1
 946.5 286.5 l 1,0,1
EndSplineSet
EndChar

StartChar: D
Encoding: 68 68 6
Width: 621
Flags: W
LayerCount: 2
Fore
SplineSet
257 1012 m 2,0,1
 416 1012 416 1012 499 869 c 1,2,3
 542 797 542 797 560.5 701.5 c 128,-1,4
 579 606 579 606 579 496 c 0,5,6
 579 384 579 384 560.5 288 c 128,-1,7
 542 192 542 192 499 122 c 1,8,9
 417 -21 417 -21 257 -21 c 2,10,-1
 74 -21 l 2,11,12
 33 -21 33 -21 33 19 c 2,13,-1
 33 971 l 2,14,15
 33 1012 33 1012 74 1012 c 2,16,-1
 257 1012 l 2,0,1
257 60 m 2,17,18
 368 60 368 60 429 163 c 0,19,20
 465 223 465 223 480.5 308 c 128,-1,21
 496 393 496 393 496 496 c 0,22,23
 496 594 496 594 480 681 c 128,-1,24
 464 768 464 768 429 828 c 1,25,26
 399 876 399 876 355.5 902.5 c 128,-1,27
 312 929 312 929 257 929 c 2,28,-1
 116 929 l 1,29,-1
 116 60 l 1,30,-1
 257 60 l 2,17,18
EndSplineSet
EndChar

StartChar: E
Encoding: 69 69 7
Width: 549
Flags: W
LayerCount: 2
Fore
SplineSet
116 437 m 1,0,-1
 116 60 l 1,1,-1
 468 60 l 2,2,3
 508 60 508 60 508 19 c 0,4,5
 508 -21 508 -21 468 -21 c 2,6,-1
 74 -21 l 2,7,8
 33 -21 33 -21 33 19 c 2,9,-1
 33 971 l 2,10,11
 33 1012 33 1012 74 1012 c 2,12,-1
 468 1012 l 2,13,14
 508 1012 508 1012 508 971 c 0,15,16
 508 929 508 929 468 929 c 2,17,-1
 116 929 l 1,18,-1
 116 520 l 1,19,-1
 468 520 l 2,20,21
 508 520 508 520 508 478 c 0,22,23
 508 437 508 437 468 437 c 2,24,-1
 116 437 l 1,0,-1
EndSplineSet
EndChar
StartChar: F
Encoding: 70 70 8
Width: 823
VWidth: 3000
Flags: W
LayerCount: 2
Back
Fore
SplineSet
174 655.5 m 1,0,-1
 174 28.5 l 2,1,2
 174 -31.5 174 -31.5 111 -31.5 c 0,3,4
 49.5 -31.5 49.5 -31.5 49.5 28.5 c 2,5,-1
 49.5 1456.5 l 2,6,7
 49.5 1518 49.5 1518 111 1518 c 2,8,-1
 702 1518 l 2,9,10
 762 1518 762 1518 762 1456.5 c 0,11,12
 762 1393.5 762 1393.5 702 1393.5 c 2,13,-1
 174 1393.5 l 1,14,-1
 174 780 l 1,15,-1
 702 780 l 2,16,17
 762 780 762 780 762 717 c 0,18,19
 762 655.5 762 655.5 702 655.5 c 2,20,-1
 174 655.5 l 1,0,-1
EndSplineSet
EndChar

StartChar: G
Encoding: 71 71 9
Width: 763
Flags: W
LayerCount: 2
Fore
SplineSet
634 437 m 1,0,-1
 634 19 l 2,1,2
 634 -21 634 -21 593 -21 c 256,3,4
 552 -21 552 -21 552 19 c 2,5,-1
 552 57 l 1,6,7
 546 52 546 52 537.5 45.5 c 128,-1,8
 529 39 529 39 523 34 c 0,9,10
 489 8 489 8 446 -6.5 c 128,-1,11
 403 -21 403 -21 356 -21 c 0,12,13
 197 -21 197 -21 114 122 c 1,14,15
 72 192 72 192 53 288 c 128,-1,16
 34 384 34 384 34 496 c 0,17,18
 34 606 34 606 53 701.5 c 128,-1,19
 72 797 72 797 114 869 c 0,20,21
 198 1012 198 1012 356 1012 c 0,22,23
 404 1012 404 1012 446 998.5 c 128,-1,24
 488 985 488 985 523 957 c 0,25,26
 555 931 555 931 583.5 888 c 128,-1,27
 612 845 612 845 631 800 c 0,28,29
 647 760 647 760 607 747 c 1,30,31
 569 733 569 733 555 771 c 1,32,33
 538 810 538 810 518 841.5 c 128,-1,34
 498 873 498 873 474 892 c 0,35,36
 425 929 425 929 356 929 c 0,37,38
 301 929 301 929 257.5 902.5 c 128,-1,39
 214 876 214 876 184 828 c 1,40,41
 149 768 149 768 133 681 c 128,-1,42
 117 594 117 594 117 496 c 0,43,44
 117 393 117 393 133 308 c 128,-1,45
 149 223 149 223 184 163 c 0,46,47
 214 112 214 112 256.5 86 c 128,-1,48
 299 60 299 60 356 60 c 0,49,50
 423 60 423 60 474 99 c 0,51,52
 499 118 499 118 517.5 146 c 128,-1,53
 536 174 536 174 552 213 c 1,54,-1
 552 437 l 1,55,-1
 451 437 l 2,56,57
 411 437 411 437 411 478 c 0,58,59
 411 520 411 520 451 520 c 2,60,-1
 678 520 l 2,61,62
 718 520 718 520 718 478 c 0,63,64
 718 437 718 437 678 437 c 2,65,-1
 634 437 l 1,0,-1
EndSplineSet
EndChar
StartChar: H
Encoding: 72 72 10
Width: 936
VWidth: 3000
Flags: W
LayerCount: 2
Back
Fore
SplineSet
873 28.5 m 2,0,1
 873 -31.5 873 -31.5 810 -31.5 c 0,2,3
 748.5 -31.5 748.5 -31.5 748.5 28.5 c 2,4,-1
 748.5 655.5 l 1,5,-1
 174 655.5 l 1,6,-1
 174 28.5 l 2,7,8
 174 -31.5 174 -31.5 111 -31.5 c 0,9,10
 49.5 -31.5 49.5 -31.5 49.5 28.5 c 2,11,-1
 49.5 1456.5 l 2,12,13
 49.5 1518 49.5 1518 111 1518 c 0,14,15
 174 1518 174 1518 174 1456.5 c 2,16,-1
 174 780 l 1,17,-1
 748.5 780 l 1,18,-1
 748.5 1456.5 l 2,19,20
 748.5 1518 748.5 1518 810 1518 c 0,21,22
 873 1518 873 1518 873 1456.5 c 2,23,-1
 873 28.5 l 2,0,1
EndSplineSet
EndChar
StartChar: I
Encoding: 73 73 11
Width: 640
VWidth: 3000
Flags: W
LayerCount: 2
Back
Fore
SplineSet
253.5 90 m 1,0,-1
 253.5 1393.5 l 1,1,-1
 109.5 1393.5 l 2,2,3
 48 1393.5 48 1393.5 48 1456.5 c 0,4,5
 48 1518 48 1518 109.5 1518 c 2,6,-1
 522 1518 l 2,7,8
 583.5 1518 583.5 1518 583.5 1456.5 c 0,9,10
 583.5 1393.5 583.5 1393.5 522 1393.5 c 2,11,-1
 378 1393.5 l 1,12,-1
 378 90 l 1,13,-1
 522 90 l 2,14,15
 583.5 90 583.5 90 583.5 28.5 c 0,16,17
 583.5 -31.5 583.5 -31.5 522 -31.5 c 2,18,-1
 109.5 -31.5 l 2,19,20
 48 -31.5 48 -31.5 48 28.5 c 0,21,22
 48 90 48 90 109.5 90 c 2,23,-1
 253.5 90 l 1,0,-1
EndSplineSet
EndChar

StartChar: J
Encoding: 74 74 12
Width: 529
Flags: W
LayerCount: 2
Fore
SplineSet
399 929 m 1,0,-1
 303 929 l 2,1,2
 262 929 262 929 262 971 c 0,3,4
 262 1012 262 1012 303 1012 c 2,5,-1
 577 1012 l 2,6,7
 619 1012 619 1012 619 971 c 0,8,9
 619 929 619 929 577 929 c 2,10,-1
 482 929 l 1,11,-1
 482 249 l 2,12,13
 482 123 482 123 426 52 c 1,14,15
 366 -21 366 -21 257 -21 c 0,16,17
 150 -21 150 -21 90 52 c 0,18,19
 34 121 34 121 34 249 c 0,20,21
 34 290 34 290 75 290 c 256,22,23
 116 290 116 290 116 249 c 0,24,25
 116 155 116 155 155 104 c 1,26,27
 190 60 190 60 257 60 c 0,28,29
 289 60 289 60 316 72 c 128,-1,30
 343 84 343 84 360 104 c 1,31,32
 399 155 399 155 399 249 c 2,33,-1
 399 929 l 1,0,-1
EndSplineSet
EndChar
StartChar: K
Encoding: 75 75 13
Width: 931
VWidth: 3000
Flags: W
LayerCount: 2
Back
Fore
SplineSet
196.5 744 m 1,0,1
 358.5 574.5 358.5 574.5 517.5 406.5 c 128,-1,2
 676.5 238.5 676.5 238.5 837 70.5 c 0,3,4
 877.5 28.5 877.5 28.5 835.5 -13.5 c 256,5,6
 793.5 -55.5 793.5 -55.5 748.5 -10.5 c 2,7,-1
 750 -12 l 1,8,9
 672 69 672 69 601.5 143.25 c 128,-1,10
 531 217.5 531 217.5 462 289.5 c 128,-1,11
 393 361.5 393 361.5 322.5 435.75 c 128,-1,12
 252 510 252 510 174 591 c 1,13,-1
 174 28.5 l 2,14,15
 174 -31.5 174 -31.5 111 -31.5 c 0,16,17
 49.5 -31.5 49.5 -31.5 49.5 28.5 c 2,18,-1
 49.5 1456.5 l 2,19,20
 49.5 1518 49.5 1518 111 1518 c 0,21,22
 174 1518 174 1518 174 1456.5 c 2,23,-1
 174 895.5 l 1,24,25
 319.5 1047 319.5 1047 462 1197.75 c 128,-1,26
 604.5 1348.5 604.5 1348.5 750 1498.5 c 0,27,28
 790.5 1539 790.5 1539 834 1501.5 c 0,29,30
 858 1479 858 1479 857.25 1457.25 c 128,-1,31
 856.5 1435.5 856.5 1435.5 837 1414.5 c 2,32,-1
 196.5 744 l 1,0,1
EndSplineSet
EndChar
StartChar: L
Encoding: 76 76 14
Width: 823
VWidth: 3000
Flags: W
LayerCount: 2
Back
Fore
SplineSet
174 90 m 1,0,-1
 702 90 l 2,1,2
 762 90 762 90 762 28.5 c 0,3,4
 762 -31.5 762 -31.5 702 -31.5 c 2,5,-1
 111 -31.5 l 2,6,7
 49.5 -31.5 49.5 -31.5 49.5 28.5 c 2,8,-1
 49.5 1456.5 l 2,9,10
 49.5 1518 49.5 1518 111 1518 c 0,11,12
 174 1518 174 1518 174 1456.5 c 2,13,-1
 174 90 l 1,0,-1
EndSplineSet
EndChar
StartChar: M
Encoding: 77 77 15
Width: 1201
VWidth: 3000
Flags: W
LayerCount: 2
Back
Fore
SplineSet
1090.5 1513.5 m 1,0,1
 1107 1506 1107 1506 1116 1496.25 c 128,-1,2
 1125 1486.5 1125 1486.5 1129.5 1471.5 c 0,3,4
 1132.5 1465.5 1132.5 1465.5 1132.5 1456.5 c 2,5,-1
 1132.5 28.5 l 2,6,7
 1132.5 -31.5 1132.5 -31.5 1069.5 -31.5 c 0,8,9
 1008 -31.5 1008 -31.5 1008 28.5 c 2,10,-1
 1008 1078.5 l 1,11,12
 918 808.5 918 808.5 827.25 541.5 c 128,-1,13
 736.5 274.5 736.5 274.5 646.5 4.5 c 1,14,15
 636 -21 636 -21 610.5 -27 c 1,16,17
 550.5 -49.5 550.5 -49.5 534 13.5 c 1,18,-1
 534 12 l 1,19,20
 481.5 166.5 481.5 166.5 438.75 294 c 128,-1,21
 396 421.5 396 421.5 354.75 543.75 c 128,-1,22
 313.5 666 313.5 666 270 793.5 c 128,-1,23
 226.5 921 226.5 921 175.5 1075.5 c 1,24,-1
 175.5 28.5 l 2,25,26
 175.5 -31.5 175.5 -31.5 114 -31.5 c 256,27,28
 52.5 -31.5 52.5 -31.5 52.5 28.5 c 2,29,-1
 52.5 1464 l 1,30,31
 57 1497 57 1497 93 1513.5 c 1,32,33
 123 1522.5 123 1522.5 143.25 1511.25 c 128,-1,34
 163.5 1500 163.5 1500 171 1476 c 0,35,36
 225 1314 225 1314 277.5 1159.5 c 128,-1,37
 330 1005 330 1005 381.75 851.25 c 128,-1,38
 433.5 697.5 433.5 697.5 485.25 542.25 c 128,-1,39
 537 387 537 387 591 225 c 1,40,-1
 1011 1476 l 2,41,42
 1018.5 1500 1018.5 1500 1039.5 1510.5 c 128,-1,43
 1060.5 1521 1060.5 1521 1090.5 1513.5 c 1,0,1
EndSplineSet
EndChar
StartChar: N
Encoding: 78 78 16
Width: 643
Flags: W
LayerCount: 2
Back
Fore
SplineSet
600 19 m 2,0,1
 600 -21 600 -21 559 -21 c 0,2,3
 532 -21 532 -21 522 4 c 1,4,-1
 522 3 l 1,5,6
 467 112 467 112 417.5 209 c 128,-1,7
 368 306 368 306 319 401 c 128,-1,8
 270 496 270 496 220.5 593 c 128,-1,9
 171 690 171 690 116 799 c 1,10,-1
 116 19 l 2,11,12
 116 -21 116 -21 74 -21 c 0,13,14
 34 -21 34 -21 34 19 c 2,15,-1
 34 972 l 2,16,17
 34 999 34 999 57 1008 c 1,18,19
 92 1028 92 1028 111 990 c 2,20,-1
 518 191 l 1,21,-1
 518 971 l 2,22,23
 518 1012 518 1012 559 1012 c 256,24,25
 600 1012 600 1012 600 971 c 2,26,-1
 600 19 l 2,0,1
EndSplineSet
EndChar

StartChar: O
Encoding: 79 79 17
Width: 722
Flags: W
LayerCount: 2
Fore
SplineSet
356 1012 m 0,0,1
 513 1012 513 1012 599 869 c 1,2,3
 640 797 640 797 659 701.5 c 128,-1,4
 678 606 678 606 678 496 c 0,5,6
 678 385 678 385 659 288.5 c 128,-1,7
 640 192 640 192 599 122 c 0,8,9
 514 -21 514 -21 356 -21 c 0,10,11
 196 -21 196 -21 114 122 c 1,12,13
 72 192 72 192 53 288 c 128,-1,14
 34 384 34 384 34 496 c 0,15,16
 34 606 34 606 53 701.5 c 128,-1,17
 72 797 72 797 114 869 c 0,18,19
 197 1012 197 1012 356 1012 c 0,0,1
528 828 m 0,20,21
 468 929 468 929 356 929 c 0,22,23
 301 929 301 929 257.5 902.5 c 128,-1,24
 214 876 214 876 184 828 c 1,25,26
 149 768 149 768 133 681 c 128,-1,27
 117 594 117 594 117 496 c 0,28,29
 117 393 117 393 132.5 308 c 128,-1,30
 148 223 148 223 184 163 c 0,31,32
 214 112 214 112 256.5 86 c 128,-1,33
 299 60 299 60 356 60 c 0,34,35
 411 60 411 60 454.5 87 c 128,-1,36
 498 114 498 114 528 163 c 1,37,38
 561 223 561 223 578.5 309.5 c 128,-1,39
 596 396 596 396 596 496 c 256,40,41
 596 596 596 596 579.5 682 c 128,-1,42
 563 768 563 768 528 828 c 0,20,21
EndSplineSet
EndChar
StartChar: P
Encoding: 80 80 18
Width: 579
Flags: W
LayerCount: 2
Back
Fore
SplineSet
116 454 m 1,0,-1
 116 19 l 2,1,2
 116 -21 116 -21 74 -21 c 0,3,4
 33 -21 33 -21 33 19 c 2,5,-1
 33 971 l 2,6,7
 33 1012 33 1012 76 1012 c 2,8,-1
 238 1012 l 2,9,10
 379 1012 379 1012 457 940 c 0,11,12
 538 866 538 866 538 733 c 256,13,14
 538 600 538 600 457 526 c 0,15,16
 379 454 379 454 238 454 c 2,17,-1
 116 454 l 1,0,-1
116 930 m 1,18,-1
 116 537 l 1,19,-1
 238 537 l 2,20,21
 348 537 348 537 401 587 c 0,22,23
 455 638 455 638 455 733 c 256,24,25
 455 828 455 828 401 879 c 1,26,27
 347 928 347 928 236 930 c 1,28,-1
 116 930 l 1,18,-1
EndSplineSet
EndChar

StartChar: Q
Encoding: 81 81 19
Width: 731
Flags: W
LayerCount: 2
Fore
SplineSet
546 52 m 1,0,1
 470 -21 470 -21 356 -21 c 0,2,3
 196 -21 196 -21 114 122 c 1,4,5
 72 192 72 192 53 288 c 128,-1,6
 34 384 34 384 34 496 c 0,7,8
 34 606 34 606 53 701.5 c 128,-1,9
 72 797 72 797 114 869 c 0,10,11
 197 1012 197 1012 356 1012 c 0,12,13
 513 1012 513 1012 599 869 c 1,14,15
 640 797 640 797 659 701.5 c 128,-1,16
 678 606 678 606 678 496 c 0,17,18
 678 385 678 385 659 288.5 c 128,-1,19
 640 192 640 192 599 122 c 0,20,21
 597 120 597 120 597 119 c 128,-1,22
 597 118 597 118 596 117 c 1,23,-1
 664 50 l 1,24,25
 695 21 695 21 665 -9 c 0,26,27
 651 -23 651 -23 636 -22 c 128,-1,28
 621 -21 621 -21 607 -9 c 1,29,-1
 546 52 l 1,0,1
528 163 m 1,30,31
 530 166 530 166 532 169.5 c 128,-1,32
 534 173 534 173 536 177 c 1,33,-1
 553 159 l 1,34,-1
 526 159 l 1,35,36
 520 154 520 154 523 158 c 128,-1,37
 526 162 526 162 528 164 c 1,38,-1
 528 163 l 1,30,31
536 177 m 1,39,40
 567 236 567 236 581.5 317.5 c 128,-1,41
 596 399 596 399 596 496 c 256,42,43
 596 593 596 593 578.5 680.5 c 128,-1,44
 561 768 561 768 528 828 c 1,45,46
 498 876 498 876 454.5 902.5 c 128,-1,47
 411 929 411 929 356 929 c 256,48,49
 301 929 301 929 257.5 902.5 c 128,-1,50
 214 876 214 876 184 828 c 1,51,52
 149 768 149 768 133 681 c 128,-1,53
 117 594 117 594 117 496 c 0,54,55
 117 393 117 393 132.5 308 c 128,-1,56
 148 223 148 223 184 163 c 0,57,58
 214 112 214 112 256.5 86 c 128,-1,59
 299 60 299 60 356 60 c 0,60,61
 394 60 394 60 427.5 73.5 c 128,-1,62
 461 87 461 87 487 111 c 1,63,64
 448 149 448 149 407 190 c 128,-1,65
 366 231 366 231 327 269 c 1,66,67
 301 298 301 298 327 327 c 1,68,69
 357 357 357 357 386 328 c 2,70,-1
 536 177 l 1,39,40
EndSplineSet
EndChar
StartChar: R
Encoding: 82 82 20
Width: 880
VWidth: 3000
Flags: W
LayerCount: 2
Back
Fore
SplineSet
174 580.5 m 1,0,-1
 174 28.5 l 2,1,2
 174 -31.5 174 -31.5 111 -31.5 c 0,3,4
 49.5 -31.5 49.5 -31.5 49.5 28.5 c 2,5,-1
 49.5 1461 l 1,6,7
 54 1518 54 1518 111 1518 c 2,8,-1
 357 1518 l 2,9,10
 568.5 1518 568.5 1518 685.5 1410 c 0,11,12
 807 1299 807 1299 807 1099.5 c 256,13,14
 807 900 807 900 685.5 789 c 0,15,16
 568.5 681 568.5 681 357 681 c 2,17,-1
 247.5 681 l 1,18,19
 385.5 526.5 385.5 526.5 519.75 375.75 c 128,-1,20
 654 225 654 225 790.5 70.5 c 0,21,22
 810 46.5 810 46.5 809.25 25.5 c 128,-1,23
 808.5 4.5 808.5 4.5 784.5 -16.5 c 0,24,25
 741 -57 741 -57 699 -10.5 c 2,26,-1
 174 580.5 l 1,0,-1
174 1395 m 1,27,-1
 174 805.5 l 1,28,-1
 357 805.5 l 2,29,30
 522 805.5 522 805.5 601.5 880.5 c 0,31,32
 682.5 957 682.5 957 682.5 1099.5 c 256,33,34
 682.5 1242 682.5 1242 601.5 1318.5 c 1,35,36
 520.5 1392 520.5 1392 354 1395 c 1,37,-1
 174 1395 l 1,27,-1
EndSplineSet
EndChar
StartChar: T
Encoding: 84 84 22
Width: 695
Flags: W
LayerCount: 2
Back
Fore
SplineSet
611 1012 m 2,0,1
 651 1012 651 1012 651 971 c 0,2,3
 651 929 651 929 611 929 c 2,4,-1
 384 929 l 1,5,-1
 384 19 l 2,6,7
 384 -21 384 -21 343 -21 c 256,8,9
 302 -21 302 -21 302 19 c 2,10,-1
 302 929 l 1,11,-1
 75 929 l 2,12,13
 34 929 34 929 34 971 c 0,14,15
 34 1012 34 1012 75 1012 c 2,16,-1
 611 1012 l 2,0,1
EndSplineSet
EndChar
StartChar: U
Encoding: 85 85 23
Width: 722
Flags: W
LayerCount: 2
Back
Fore
SplineSet
678 402 m 2,0,1
 678 314 678 314 658 232.5 c 128,-1,2
 638 151 638 151 596 94 c 256,3,4
 554 37 554 37 494 8 c 128,-1,5
 434 -21 434 -21 356 -21 c 0,6,7
 199 -21 199 -21 116 94 c 0,8,9
 74 152 74 152 54 233 c 128,-1,10
 34 314 34 314 34 402 c 2,11,-1
 34 971 l 2,12,13
 34 1012 34 1012 75 1012 c 0,14,15
 117 1012 117 1012 117 971 c 2,16,-1
 117 402 l 2,17,18
 117 320 117 320 134 254 c 128,-1,19
 151 188 151 188 181 143 c 1,20,21
 211 103 211 103 255.5 81.5 c 128,-1,22
 300 60 300 60 356 60 c 0,23,24
 411 60 411 60 455 81.5 c 128,-1,25
 499 103 499 103 530 143 c 1,26,27
 562 188 562 188 579 254 c 128,-1,28
 596 320 596 320 596 402 c 2,29,-1
 596 971 l 2,30,31
 596 1012 596 1012 636 1012 c 0,32,33
 678 1012 678 1012 678 971 c 2,34,-1
 678 402 l 2,0,1
EndSplineSet
EndChar
StartChar: V
Encoding: 86 86 24
Width: 789
Flags: W
LayerCount: 2
Back
Fore
SplineSet
428 11 m 1,0,1
 427 -3 427 -3 416 -10.5 c 128,-1,2
 405 -18 405 -18 389 -18 c 0,3,4
 372 -18 372 -18 360.5 -10.5 c 128,-1,5
 349 -3 349 -3 348 11 c 1,6,7
 270 250 270 250 193 487.5 c 128,-1,8
 116 725 116 725 38 963 c 1,9,10
 31 995 31 995 65 1010 c 1,11,12
 85 1016 85 1016 98 1008 c 128,-1,13
 111 1000 111 1000 117 984 c 0,14,15
 152 877 152 877 185.5 774 c 128,-1,16
 219 671 219 671 252 568.5 c 128,-1,17
 285 466 285 466 318.5 363 c 128,-1,18
 352 260 352 260 388 152 c 1,19,20
 455 360 455 360 522.5 568 c 128,-1,21
 590 776 590 776 658 984 c 1,22,23
 665 1001 665 1001 678.5 1008 c 128,-1,24
 692 1015 692 1015 716 1008 c 1,25,26
 748 996 748 996 737 959 c 1,27,-1
 428 11 l 1,0,1
EndSplineSet
EndChar
StartChar: W
Encoding: 87 87 25
Width: 1641
VWidth: 3000
Flags: W
LayerCount: 2
Back
Fore
SplineSet
808.5 1194 m 1,0,1
 736.5 897 736.5 897 666.75 605.25 c 128,-1,2
 597 313.5 597 313.5 525 16.5 c 1,3,-1
 526.5 18 l 1,4,5
 513 -46.5 513 -46.5 450 -28.5 c 1,6,-1
 451.5 -30 l 1,7,8
 409.5 -22.5 409.5 -22.5 405 21 c 1,9,-1
 406.5 16.5 l 1,10,11
 321 375 321 375 234 729.75 c 128,-1,12
 147 1084.5 147 1084.5 61.5 1443 c 0,13,14
 48 1500 48 1500 108 1515 c 1,15,-1
 105 1515 l 1,16,17
 160.5 1533 160.5 1533 178.5 1477.5 c 1,18,-1
 465 291 l 1,19,20
 537 588 537 588 607.5 881.25 c 128,-1,21
 678 1174.5 678 1174.5 750 1471.5 c 1,22,-1
 748.5 1470 l 1,23,24
 754.5 1506 754.5 1506 796.5 1516.5 c 1,25,-1
 795 1515 l 1,26,27
 855 1533 855 1533 868.5 1470 c 1,28,-1
 867 1471.5 l 1,29,30
 906 1309.5 906 1309.5 941.25 1165.5 c 128,-1,31
 976.5 1021.5 976.5 1021.5 1010.25 881.25 c 128,-1,32
 1044 741 1044 741 1079.25 597 c 128,-1,33
 1114.5 453 1114.5 453 1153.5 291 c 1,34,35
 1225.5 588 1225.5 588 1295.25 881.25 c 128,-1,36
 1365 1174.5 1365 1174.5 1437 1471.5 c 1,37,-1
 1435.5 1470 l 1,38,39
 1446 1531.5 1446 1531.5 1510.5 1515 c 1,40,-1
 1509 1516.5 l 1,41,42
 1569 1501.5 1569 1501.5 1555.5 1443 c 2,43,-1
 1210.5 6 l 1,44,45
 1200 -21 1200 -21 1168.5 -28.5 c 0,46,47
 1105.5 -45 1105.5 -45 1092 18 c 1,48,-1
 1093.5 16.5 l 1,49,-1
 808.5 1194 l 1,0,1
EndSplineSet
EndChar

StartChar: X
Encoding: 88 88 26
Width: 641
Flags: W
LayerCount: 2
Fore
SplineSet
315 401 m 1,0,1
 265 300 265 300 215.5 200.5 c 128,-1,2
 166 101 166 101 117 1 c 1,3,4
 99 -31 99 -31 64 -18 c 1,5,6
 28 2 28 2 44 37 c 1,7,-1
 270 496 l 1,8,9
 213 611 213 611 156.5 725.5 c 128,-1,10
 100 840 100 840 43 955 c 1,11,12
 37 972 37 972 41.5 985.5 c 128,-1,13
 46 999 46 999 63 1007 c 1,14,15
 100 1028 100 1028 118 990 c 2,16,-1
 315 589 l 1,17,18
 364 690 364 690 413.5 789.5 c 128,-1,19
 463 889 463 889 512 990 c 1,20,21
 532 1027 532 1027 567 1007 c 1,22,-1
 566 1007 l 1,23,24
 584 999 584 999 589 984.5 c 128,-1,25
 594 970 594 970 586 953 c 0,26,27
 532 843 532 843 473 725 c 128,-1,28
 414 607 414 607 360 496 c 1,29,30
 417 380 417 380 473 266.5 c 128,-1,31
 529 153 529 153 586 38 c 0,32,33
 594 22 594 22 589.5 7 c 128,-1,34
 585 -8 585 -8 565 -18 c 1,35,36
 531 -30 531 -30 512 1 c 1,37,-1
 315 401 l 1,0,1
EndSplineSet
EndChar
StartChar: Y
Encoding: 89 89 27
Width: 958
VWidth: 3000
Flags: W
LayerCount: 2
Back
Fore
SplineSet
471 883.5 m 1,0,1
 544.5 1035 544.5 1035 618.75 1184.25 c 128,-1,2
 693 1333.5 693 1333.5 766.5 1485 c 1,3,4
 796.5 1540.5 796.5 1540.5 849 1510.5 c 1,5,-1
 847.5 1510.5 l 1,6,7
 874.5 1498.5 874.5 1498.5 882 1476.75 c 128,-1,8
 889.5 1455 889.5 1455 877.5 1429.5 c 0,9,10
 837 1348.5 837 1348.5 793.5 1259.25 c 128,-1,11
 750 1170 750 1170 705 1079.25 c 128,-1,12
 660 988.5 660 988.5 616.5 899.25 c 128,-1,13
 573 810 573 810 532.5 729 c 1,14,-1
 532.5 28.5 l 2,15,16
 532.5 -31.5 532.5 -31.5 471 -31.5 c 256,17,18
 409.5 -31.5 409.5 -31.5 409.5 28.5 c 2,19,-1
 409.5 729 l 1,20,21
 322.5 906 322.5 906 236.25 1080.75 c 128,-1,22
 150 1255.5 150 1255.5 63 1432.5 c 1,23,24
 54 1458 54 1458 60.75 1478.25 c 128,-1,25
 67.5 1498.5 67.5 1498.5 93 1510.5 c 1,26,27
 148.5 1542 148.5 1542 175.5 1485 c 2,28,-1
 471 883.5 l 1,0,1
EndSplineSet
EndChar
StartChar: Z
Encoding: 90 90 28
Width: 937
VWidth: 3000
Flags: W
LayerCount: 2
Back
Fore
SplineSet
714 1393.5 m 1,0,-1
 111 1393.5 l 2,1,2
 49.5 1393.5 49.5 1393.5 49.5 1456.5 c 0,3,4
 49.5 1518 49.5 1518 111 1518 c 2,5,-1
 813 1518 l 2,6,7
 874.5 1518 874.5 1518 874.5 1456.5 c 0,8,9
 874.5 1446 874.5 1446 871.5 1438.5 c 128,-1,10
 868.5 1431 868.5 1431 865.5 1423.5 c 0,11,12
 781.5 1251 781.5 1251 699.75 1086 c 128,-1,13
 618 921 618 921 537.75 757.5 c 128,-1,14
 457.5 594 457.5 594 375.75 428.25 c 128,-1,15
 294 262.5 294 262.5 210 90 c 1,16,-1
 813 90 l 2,17,18
 874.5 90 874.5 90 874.5 28.5 c 0,19,20
 874.5 -31.5 874.5 -31.5 813 -31.5 c 2,21,-1
 111 -31.5 l 2,22,23
 49.5 -31.5 49.5 -31.5 49.5 28.5 c 0,24,25
 49.5 39 49.5 39 52.5 47.25 c 128,-1,26
 55.5 55.5 55.5 55.5 58.5 63 c 2,27,-1
 714 1393.5 l 1,0,-1
EndSplineSet
EndChar
StartChar: bracketleft
Encoding: 91 91 188
Width: 294
VWidth: 3000
Flags: W
LayerCount: 2
Back
Fore
SplineSet
117 -127.5 m 1,0,-1
 124.5 -129 l 2,1,2
 123 -129 123 -129 122.25 -128.25 c 128,-1,3
 121.5 -127.5 121.5 -127.5 120 -127.5 c 2,4,-1
 117 -127.5 l 1,0,-1
307.5 1594.5 m 2,5,6
 367.5 1594.5 367.5 1594.5 367.5 1533 c 0,7,8
 367.5 1473 367.5 1473 307.5 1473 c 2,9,-1
 196.5 1473 l 1,10,-1
 196.5 -7.5 l 1,11,-1
 307.5 -7.5 l 2,12,13
 367.5 -7.5 367.5 -7.5 367.5 -69 c 256,14,15
 367.5 -130.5 367.5 -130.5 307.5 -130.5 c 2,16,-1
 133.5 -130.5 l 2,17,18
 121.5 -130.5 121.5 -130.5 114 -127.5 c 1,19,20
 105 -127.5 105 -127.5 96 -120 c 0,21,22
 78 -105 78 -105 73.5 -85.5 c 1,23,-1
 73.5 1533 l 2,24,25
 73.5 1594.5 73.5 1594.5 133.5 1594.5 c 2,26,-1
 307.5 1594.5 l 2,5,6
EndSplineSet
EndChar
StartChar: backslash
Encoding: 92 92 151
Width: 540
Flags: W
LayerCount: 2
Back
Fore
SplineSet
4 941 m 2,0,1
 -13 977 -13 977 23 996 c 1,2,3
 57 1016 57 1016 78 978 c 1,4,-1
 521 60 l 2,5,6
 529 43 529 43 524 28.5 c 128,-1,7
 519 14 519 14 502 6 c 1,8,-1
 503 6 l 1,9,10
 467 -13 467 -13 448 25 c 1,11,-1
 448 24 l 1,12,-1
 4 941 l 2,0,1
EndSplineSet
EndChar
StartChar: bracketright
Encoding: 93 93 189
Width: 294
VWidth: 3000
Flags: W
LayerCount: 2
Back
Fore
SplineSet
321 -132 m 1,0,-1
 318 -132 l 1,1,-1
 322.5 -132 l 1,2,-1
 321 -132 l 1,0,-1
307.5 1594.5 m 2,3,4
 367.5 1594.5 367.5 1594.5 367.5 1533 c 2,5,-1
 367.5 -90 l 1,6,7
 363 -109.5 363 -109.5 345 -124.5 c 0,8,9
 340.5 -127.5 340.5 -127.5 335.25 -129 c 128,-1,10
 330 -130.5 330 -130.5 327 -132 c 0,11,12
 319.5 -133.5 319.5 -133.5 303 -133.5 c 2,13,-1
 133.5 -133.5 l 2,14,15
 73.5 -133.5 73.5 -133.5 73.5 -73.5 c 0,16,17
 73.5 -12 73.5 -12 133.5 -12 c 2,18,-1
 244.5 -12 l 1,19,-1
 244.5 1473 l 1,20,-1
 133.5 1473 l 2,21,22
 73.5 1473 73.5 1473 73.5 1533 c 0,23,24
 73.5 1594.5 73.5 1594.5 133.5 1594.5 c 2,25,-1
 307.5 1594.5 l 2,3,4
EndSplineSet
EndChar
StartChar: asciicircum
Encoding: 94 94 62
Width: 879
VWidth: 3000
Flags: W
LayerCount: 2
Back
Fore
SplineSet
375 735 m 1,0,1
 378 753 378 753 393 765.75 c 128,-1,2
 408 778.5 408 778.5 432 778.5 c 256,3,4
 456 778.5 456 778.5 471.75 765.75 c 128,-1,5
 487.5 753 487.5 753 490.5 735 c 1,6,7
 567 565.5 567 565.5 642.75 398.25 c 128,-1,8
 718.5 231 718.5 231 796.5 61.5 c 1,9,10
 805.5 34.5 805.5 34.5 798.75 15 c 128,-1,11
 792 -4.5 792 -4.5 765 -16.5 c 256,12,13
 738 -28.5 738 -28.5 719.25 -20.25 c 128,-1,14
 700.5 -12 700.5 -12 687 13.5 c 1,15,-1
 432 573 l 1,16,17
 369 432 369 432 306 294 c 128,-1,18
 243 156 243 156 178.5 15 c 1,19,-1
 180 16.5 l 1,20,21
 157.5 -36 157.5 -36 96 -16.5 c 1,22,23
 46.5 13.5 46.5 13.5 67.5 63 c 1,24,-1
 375 735 l 1,0,1
EndSplineSet
EndChar
StartChar: underscore
Encoding: 95 95 152
Width: 756
VWidth: 3000
Flags: W
LayerCount: 2
Back
Fore
SplineSet
9 -244.5 m 2,0,1
 -55.5 -244.5 -55.5 -244.5 -52.5 -181.5 c 1,2,3
 -57 -120 -57 -120 9 -120 c 2,4,-1
 732 -120 l 1,5,6
 789 -124.5 789 -124.5 793.5 -183 c 1,7,8
 793.5 -247.5 793.5 -247.5 732 -244.5 c 1,9,-1
 9 -244.5 l 2,0,1
EndSplineSet
EndChar
StartChar: grave
Encoding: 96 96 66
Width: 450
VWidth: 3000
Flags: W
LayerCount: 2
Back
Fore
SplineSet
70.5 1125 m 1,0,-1
 72 1123.5 l 1,1,2
 19.5 1152 19.5 1152 48 1207.5 c 1,3,4
 81 1263 81 1263 133.5 1228.5 c 1,5,-1
 372 1086 l 2,6,7
 424.5 1054.5 424.5 1054.5 393 1003.5 c 256,8,9
 361.5 952.5 361.5 952.5 310.5 979.5 c 1,10,-1
 70.5 1125 l 1,0,-1
EndSplineSet
EndChar
StartChar: a
Encoding: 97 97 29
Width: 521
Flags: W
LayerCount: 2
Back
Fore
SplineSet
477 19 m 2,0,1
 477 -21 477 -21 436 -21 c 256,2,3
 395 -21 395 -21 395 19 c 2,4,-1
 395 25 l 1,5,6
 342 -21 342 -21 255 -21 c 0,7,8
 148 -21 148 -21 90 52 c 1,9,10
 34 120 34 120 34 246 c 0,11,12
 34 307 34 307 49 355.5 c 128,-1,13
 64 404 64 404 90 439 c 1,14,15
 119 475 119 475 161 494.5 c 128,-1,16
 203 514 203 514 255 514 c 0,17,18
 338 514 338 514 395 465 c 1,19,-1
 395 473 l 2,20,21
 395 514 395 514 436 514 c 256,22,23
 477 514 477 514 477 473 c 2,24,-1
 477 19 l 2,0,1
357 390 m 0,25,26
 324 433 324 433 255 433 c 0,27,28
 223 433 223 433 197 421.5 c 128,-1,29
 171 410 171 410 154 390 c 1,30,31
 136 366 136 366 126 329.5 c 128,-1,32
 116 293 116 293 116 246 c 0,33,34
 116 153 116 153 154 103 c 0,35,36
 187 60 187 60 255 60 c 0,37,38
 287 60 287 60 313.5 71.5 c 128,-1,39
 340 83 340 83 357 103 c 1,40,41
 375 128 375 128 385 164 c 128,-1,42
 395 200 395 200 395 246 c 0,43,44
 395 341 395 341 357 390 c 0,25,26
EndSplineSet
EndChar

StartChar: b
Encoding: 98 98 54
Width: 521
Flags: W
LayerCount: 2
Fore
SplineSet
34 959 m 2,0,1
 34 999 34 999 74 999 c 0,2,3
 116 999 116 999 116 959 c 2,4,-1
 116 468 l 1,5,6
 169 514 169 514 256 514 c 0,7,8
 362 514 362 514 421 440 c 0,9,10
 477 370 477 370 477 247 c 0,11,12
 477 186 477 186 462.5 137.5 c 128,-1,13
 448 89 448 89 421 54 c 1,14,15
 392 19 392 19 350 -1 c 128,-1,16
 308 -21 308 -21 256 -21 c 0,17,18
 172 -21 172 -21 116 27 c 1,19,-1
 116 20 l 2,20,21
 116 -21 116 -21 74 -21 c 0,22,23
 34 -21 34 -21 34 20 c 2,24,-1
 34 959 l 2,0,1
154 104 m 1,25,26
 188 61 188 61 256 61 c 0,27,28
 288 61 288 61 314 72.5 c 128,-1,29
 340 84 340 84 357 104 c 1,30,31
 375 129 375 129 385 165.5 c 128,-1,32
 395 202 395 202 395 247 c 0,33,34
 395 294 395 294 385 330 c 128,-1,35
 375 366 375 366 357 390 c 1,36,37
 340 410 340 410 314 422 c 128,-1,38
 288 434 288 434 256 434 c 256,39,40
 224 434 224 434 197.5 422 c 128,-1,41
 171 410 171 410 154 390 c 1,42,43
 136 366 136 366 126 330 c 128,-1,44
 116 294 116 294 116 247 c 0,45,46
 116 154 116 154 154 104 c 1,25,26
EndSplineSet
EndChar
StartChar: d
Encoding: 100 100 33
Width: 781
VWidth: 3000
Flags: W
LayerCount: 2
Back
Fore
SplineSet
535.5 156 m 1,0,1
 592.5 231 592.5 231 592.5 370.5 c 0,2,3
 592.5 441 592.5 441 577.5 495 c 128,-1,4
 562.5 549 562.5 549 535.5 585 c 1,5,6
 510 615 510 615 470.25 633 c 128,-1,7
 430.5 651 430.5 651 382.5 651 c 256,8,9
 334.5 651 334.5 651 295.5 633 c 128,-1,10
 256.5 615 256.5 615 231 585 c 1,11,12
 204 549 204 549 189 495 c 128,-1,13
 174 441 174 441 174 370.5 c 0,14,15
 174 303 174 303 189 248.25 c 128,-1,16
 204 193.5 204 193.5 231 156 c 1,17,18
 256.5 126 256.5 126 295.5 108.75 c 128,-1,19
 334.5 91.5 334.5 91.5 382.5 91.5 c 0,20,21
 484.5 91.5 484.5 91.5 535.5 156 c 1,0,1
715.5 30 m 2,22,23
 715.5 -31.5 715.5 -31.5 655.5 -31.5 c 0,24,25
 592.5 -31.5 592.5 -31.5 592.5 30 c 2,26,-1
 592.5 40.5 l 1,27,28
 507 -31.5 507 -31.5 382.5 -31.5 c 0,29,30
 304.5 -31.5 304.5 -31.5 241.5 -1.5 c 128,-1,31
 178.5 28.5 178.5 28.5 135 81 c 1,32,33
 94.5 133.5 94.5 133.5 72.75 206.25 c 128,-1,34
 51 279 51 279 51 370.5 c 0,35,36
 51 555 51 555 135 660 c 0,37,38
 222 771 222 771 382.5 771 c 0,39,40
 513 771 513 771 592.5 702 c 1,41,-1
 592.5 1438.5 l 2,42,43
 592.5 1498.5 592.5 1498.5 655.5 1498.5 c 0,44,45
 715.5 1498.5 715.5 1498.5 715.5 1438.5 c 2,46,-1
 715.5 30 l 2,22,23
EndSplineSet
EndChar
StartChar: e
Encoding: 101 101 34
Width: 780
VWidth: 3000
Flags: W
LayerCount: 2
Back
Fore
SplineSet
229.5 585 m 0,0,1
 207 556.5 207 556.5 192.75 519 c 128,-1,2
 178.5 481.5 178.5 481.5 174 430.5 c 1,3,-1
 588 430.5 l 1,4,5
 582 478.5 582 478.5 568.5 517.5 c 128,-1,6
 555 556.5 555 556.5 534 585 c 1,7,8
 508.5 615 508.5 615 468.75 632.25 c 128,-1,9
 429 649.5 429 649.5 381 649.5 c 0,10,11
 279 649.5 279 649.5 229.5 585 c 0,0,1
682.5 171 m 1,12,13
 661.5 120 661.5 120 632.25 81.75 c 128,-1,14
 603 43.5 603 43.5 565.5 18 c 1,15,16
 486 -31.5 486 -31.5 381 -31.5 c 0,17,18
 220.5 -31.5 220.5 -31.5 133.5 78 c 1,19,-1
 135 78 l 1,20,21
 82.5 141 82.5 141 66 217.5 c 128,-1,22
 49.5 294 49.5 294 49.5 369 c 0,23,24
 49.5 460.5 49.5 460.5 72 533.25 c 128,-1,25
 94.5 606 94.5 606 133.5 658.5 c 1,26,27
 177 712.5 177 712.5 240 741.75 c 128,-1,28
 303 771 303 771 381 771 c 0,29,30
 541.5 771 541.5 771 630 658.5 c 1,31,32
 714 555 714 555 714 369 c 0,33,34
 714 309 714 309 652.5 309 c 2,35,-1
 174 309 l 1,36,37
 183 213 183 213 229.5 154.5 c 0,38,39
 279 90 279 90 381 90 c 0,40,41
 453 90 453 90 498 121.5 c 0,42,43
 541.5 151.5 541.5 151.5 567 214.5 c 1,44,45
 579 240 579 240 599.25 249.75 c 128,-1,46
 619.5 259.5 619.5 259.5 648 247.5 c 1,47,-1
 646.5 249 l 1,48,49
 703.5 228 703.5 228 682.5 171 c 1,12,13
EndSplineSet
EndChar

StartChar: f
Encoding: 102 102 35
Width: 126
Flags: W
LayerCount: 2
Fore
SplineSet
269 867 m 1,0,1
 257 896 257 896 240 908 c 1,2,-1
 241 907 l 1,3,4
 221 919 221 919 191 919 c 0,5,6
 149 919 149 919 128 892 c 1,7,8
 114 877 114 877 108.5 853.5 c 128,-1,9
 103 830 103 830 103 798 c 2,10,-1
 103 615 l 1,11,-1
 240 615 l 2,12,13
 281 615 281 615 281 576 c 0,14,15
 281 535 281 535 240 535 c 2,16,-1
 103 535 l 1,17,-1
 103 19 l 2,18,19
 103 -21 103 -21 63 -21 c 0,20,21
 21 -21 21 -21 21 19 c 2,22,-1
 21 535 l 1,23,-1
 -25 535 l 2,24,25
 -65 535 -65 535 -65 576 c 0,26,27
 -65 615 -65 615 -25 615 c 2,28,-1
 21 615 l 1,29,-1
 21 798 l 2,30,31
 21 891 21 891 64 944 c 1,32,33
 108 1001 108 1001 191 1001 c 0,34,35
 247 1001 247 1001 285 975 c 0,36,37
 306 961 306 961 321.5 942 c 128,-1,38
 337 923 337 923 345 897 c 1,39,-1
 344 898 l 1,40,41
 363 858 363 858 321 843 c 0,42,43
 301 836 301 836 288.5 842 c 128,-1,44
 276 848 276 848 269 869 c 1,45,-1
 269 867 l 1,0,1
EndSplineSet
EndChar
StartChar: g
Encoding: 103 103 36
Width: 781
VWidth: 3000
Flags: W
LayerCount: 2
Back
Fore
SplineSet
198 -456 m 1,0,1
 219 -517.5 219 -517.5 267 -549 c 1,2,3
 312 -580.5 312 -580.5 382.5 -580.5 c 0,4,5
 430.5 -580.5 430.5 -580.5 470.25 -563.25 c 128,-1,6
 510 -546 510 -546 535.5 -516 c 1,7,8
 562.5 -480 562.5 -480 577.5 -425.25 c 128,-1,9
 592.5 -370.5 592.5 -370.5 592.5 -300 c 2,10,-1
 592.5 37.5 l 1,11,12
 513 -31.5 513 -31.5 382.5 -31.5 c 0,13,14
 222 -31.5 222 -31.5 135 78 c 1,15,16
 51 180 51 180 51 369 c 0,17,18
 51 460.5 51 460.5 73.5 533.25 c 128,-1,19
 96 606 96 606 135 658.5 c 1,20,21
 178.5 712.5 178.5 712.5 241.5 741.75 c 128,-1,22
 304.5 771 304.5 771 382.5 771 c 0,23,24
 507 771 507 771 592.5 697.5 c 1,25,-1
 592.5 709.5 l 2,26,27
 592.5 771 592.5 771 654 771 c 256,28,29
 715.5 771 715.5 771 715.5 709.5 c 2,30,-1
 715.5 -300 l 2,31,32
 715.5 -391.5 715.5 -391.5 693.75 -464.25 c 128,-1,33
 672 -537 672 -537 631.5 -589.5 c 1,34,35
 588 -642 588 -642 524.25 -672 c 128,-1,36
 460.5 -702 460.5 -702 382.5 -702 c 0,37,38
 279 -702 279 -702 199.5 -651 c 1,39,40
 121.5 -598.5 121.5 -598.5 82.5 -501 c 0,41,42
 57 -441 57 -441 120 -420 c 1,43,-1
 118.5 -420 l 1,44,45
 171 -400.5 171 -400.5 196.5 -454.5 c 1,46,-1
 198 -456 l 1,0,1
535.5 585 m 0,47,48
 486 649.5 486 649.5 382.5 649.5 c 0,49,50
 334.5 649.5 334.5 649.5 295.5 632.25 c 128,-1,51
 256.5 615 256.5 615 231 585 c 1,52,53
 204 549 204 549 189 494.25 c 128,-1,54
 174 439.5 174 439.5 174 369 c 0,55,56
 174 229.5 174 229.5 231 154.5 c 0,57,58
 280.5 90 280.5 90 382.5 90 c 0,59,60
 430.5 90 430.5 90 470.25 107.25 c 128,-1,61
 510 124.5 510 124.5 535.5 154.5 c 1,62,63
 562.5 192 562.5 192 577.5 246 c 128,-1,64
 592.5 300 592.5 300 592.5 369 c 0,65,66
 592.5 511.5 592.5 511.5 535.5 585 c 0,47,48
EndSplineSet
EndChar
StartChar: h
Encoding: 104 104 30
Width: 521
Flags: W
LayerCount: 2
Back
Fore
SplineSet
395 246 m 2,0,1
 395 293 395 293 385 329.5 c 128,-1,2
 375 366 375 366 357 390 c 1,3,4
 340 410 340 410 313.5 421.5 c 128,-1,5
 287 433 287 433 255 433 c 256,6,7
 223 433 223 433 197 421.5 c 128,-1,8
 171 410 171 410 154 390 c 1,9,10
 136 366 136 366 126 329.5 c 128,-1,11
 116 293 116 293 116 246 c 2,12,-1
 116 19 l 2,13,14
 116 -21 116 -21 74 -21 c 0,15,16
 34 -21 34 -21 34 19 c 2,17,-1
 34 961 l 2,18,19
 34 1001 34 1001 74 1001 c 0,20,21
 116 1001 116 1001 116 961 c 2,22,-1
 116 465 l 1,23,24
 143 488 143 488 178 501 c 128,-1,25
 213 514 213 514 255 514 c 0,26,27
 362 514 362 514 421 439 c 1,28,29
 477 370 477 370 477 246 c 2,30,-1
 477 19 l 2,31,32
 477 -21 477 -21 436 -21 c 256,33,34
 395 -21 395 -21 395 19 c 2,35,-1
 395 246 l 2,0,1
EndSplineSet
EndChar
StartChar: i
Encoding: 105 105 37
Width: 170
Flags: W
LayerCount: 2
Back
Fore
SplineSet
124 19 m 2,0,1
 124 -21 124 -21 82 -21 c 0,2,3
 42 -21 42 -21 42 19 c 2,4,-1
 42 473 l 2,5,6
 42 514 42 514 82 514 c 0,7,8
 124 514 124 514 124 473 c 2,9,-1
 124 19 l 2,0,1
17 737 m 256,10,11
 17 769 17 769 36.5 791 c 128,-1,12
 56 813 56 813 84 813 c 0,13,14
 113 813 113 813 133 791 c 128,-1,15
 153 769 153 769 153 737 c 256,16,17
 153 705 153 705 133 683 c 128,-1,18
 113 661 113 661 84 661 c 0,19,20
 56 661 56 661 36.5 683 c 128,-1,21
 17 705 17 705 17 737 c 256,10,11
EndSplineSet
EndChar
StartChar: j
Encoding: 106 106 47
Width: 234
VWidth: 3000
Flags: W
LayerCount: 2
Back
Fore
SplineSet
-196.5 -501 m 1,0,1
 -180 -543 -180 -543 -154.5 -562.5 c 1,2,-1
 -156 -561 l 1,3,4
 -126 -580.5 -126 -580.5 -81 -580.5 c 0,5,6
 -16.5 -580.5 -16.5 -580.5 13.5 -543 c 1,7,8
 30 -517.5 30 -517.5 40.5 -480.75 c 128,-1,9
 51 -444 51 -444 51 -397.5 c 2,10,-1
 51 709.5 l 2,11,12
 51 771 51 771 111 771 c 0,13,14
 172.5 771 172.5 771 172.5 709.5 c 2,15,-1
 172.5 -397.5 l 2,16,17
 172.5 -531 172.5 -531 109.5 -616.5 c 1,18,19
 43.5 -702 43.5 -702 -81 -702 c 0,20,21
 -123 -702 -123 -702 -158.25 -692.25 c 128,-1,22
 -193.5 -682.5 -193.5 -682.5 -223.5 -661.5 c 0,23,24
 -279 -624 -279 -624 -310.5 -544.5 c 1,25,26
 -327 -489 -327 -489 -276 -468 c 0,27,28
 -250.5 -457.5 -250.5 -457.5 -228.75 -465.75 c 128,-1,29
 -207 -474 -207 -474 -196.5 -504 c 1,30,-1
 -196.5 -501 l 1,0,1
13.5 1105.5 m 256,31,32
 13.5 1153.5 13.5 1153.5 42.75 1186.5 c 128,-1,33
 72 1219.5 72 1219.5 114 1219.5 c 0,34,35
 157.5 1219.5 157.5 1219.5 187.5 1186.5 c 128,-1,36
 217.5 1153.5 217.5 1153.5 217.5 1105.5 c 256,37,38
 217.5 1057.5 217.5 1057.5 187.5 1024.5 c 128,-1,39
 157.5 991.5 157.5 991.5 114 991.5 c 0,40,41
 72 991.5 72 991.5 42.75 1024.5 c 128,-1,42
 13.5 1057.5 13.5 1057.5 13.5 1105.5 c 256,31,32
EndSplineSet
EndChar
StartChar: k
Encoding: 107 107 55
Width: 733
VWidth: 3000
Flags: W
LayerCount: 2
Back
Fore
SplineSet
216 369 m 1,0,1
 316.5 298.5 316.5 298.5 424.5 222.75 c 128,-1,2
 532.5 147 532.5 147 633 76.5 c 1,3,4
 676.5 40.5 676.5 40.5 648 -6 c 1,5,6
 607.5 -55.5 607.5 -55.5 561 -19.5 c 1,7,-1
 562.5 -19.5 l 1,8,9
 508.5 18 508.5 18 461.25 51.75 c 128,-1,10
 414 85.5 414 85.5 367.5 117 c 128,-1,11
 321 148.5 321 148.5 273.75 181.5 c 128,-1,12
 226.5 214.5 226.5 214.5 172.5 252 c 1,13,-1
 172.5 28.5 l 2,14,15
 172.5 -31.5 172.5 -31.5 111 -31.5 c 256,16,17
 49.5 -31.5 49.5 -31.5 49.5 28.5 c 2,18,-1
 49.5 1441.5 l 2,19,20
 49.5 1501.5 49.5 1501.5 111 1501.5 c 256,21,22
 172.5 1501.5 172.5 1501.5 172.5 1441.5 c 2,23,-1
 172.5 484.5 l 1,24,25
 271.5 553.5 271.5 553.5 371.25 624.75 c 128,-1,26
 471 696 471 696 568.5 763.5 c 1,27,28
 610.5 787.5 610.5 787.5 649.5 742.5 c 1,29,30
 675 693 675 693 631.5 660 c 1,31,-1
 216 369 l 1,0,1
EndSplineSet
EndChar
StartChar: m
Encoding: 109 109 40
Width: 1065
VWidth: 3000
Flags: W
LayerCount: 2
Back
Fore
SplineSet
522 651 m 1,0,1
 520.5 654 520.5 654 519.75 654.75 c 128,-1,2
 519 655.5 519 655.5 520.5 651 c 0,3,4
 522 649.5 522 649.5 522 649.5 c 1,5,-1
 522 651 l 1,0,1
868.5 369 m 2,6,7
 868.5 516 868.5 516 825 591 c 1,8,-1
 825 589.5 l 1,9,10
 787.5 649.5 787.5 649.5 727.5 649.5 c 0,11,12
 661.5 649.5 661.5 649.5 627 591 c 0,13,14
 583.5 517.5 583.5 517.5 583.5 369 c 2,15,-1
 583.5 28.5 l 2,16,17
 583.5 -31.5 583.5 -31.5 522 -31.5 c 0,18,19
 462 -31.5 462 -31.5 462 28.5 c 2,20,-1
 462 369 l 2,21,22
 462 514.5 462 514.5 417 591 c 1,23,-1
 417 589.5 l 1,24,25
 379.5 649.5 379.5 649.5 319.5 649.5 c 0,26,27
 258 649.5 258 649.5 220.5 589.5 c 0,28,29
 175.5 517.5 175.5 517.5 175.5 369 c 2,30,-1
 175.5 28.5 l 2,31,32
 175.5 -31.5 175.5 -31.5 114 -31.5 c 0,33,34
 54 -31.5 54 -31.5 54 28.5 c 2,35,-1
 54 709.5 l 2,36,37
 54 771 54 771 114 771 c 0,38,39
 169.5 771 169.5 771 174 723 c 1,40,41
 235.5 771 235.5 771 319.5 771 c 0,42,43
 448.5 771 448.5 771 520.5 652.5 c 1,44,-1
 520.5 651 l 1,45,-1
 522 649.5 l 2,46,47
 525 645 525 645 522 651 c 1,48,-1
 523.5 652.5 l 1,49,50
 592.5 771 592.5 771 727.5 771 c 0,51,52
 790.5 771 790.5 771 842.25 738.75 c 128,-1,53
 894 706.5 894 706.5 928.5 652.5 c 1,54,55
 958.5 600 958.5 600 975 528.75 c 128,-1,56
 991.5 457.5 991.5 457.5 991.5 369 c 2,57,-1
 991.5 28.5 l 2,58,59
 991.5 -31.5 991.5 -31.5 930 -31.5 c 256,60,61
 868.5 -31.5 868.5 -31.5 868.5 28.5 c 2,62,-1
 868.5 369 l 2,6,7
EndSplineSet
EndChar
StartChar: o
Encoding: 111 111 31
Width: 783
VWidth: 3000
Flags: W
LayerCount: 2
Back
Fore
SplineSet
382.5 649.5 m 256,0,1
 334.5 649.5 334.5 649.5 295.5 632.25 c 128,-1,2
 256.5 615 256.5 615 231 585 c 1,3,4
 204 549 204 549 189 494.25 c 128,-1,5
 174 439.5 174 439.5 174 369 c 0,6,7
 174 229.5 174 229.5 231 154.5 c 0,8,9
 280.5 90 280.5 90 382.5 90 c 0,10,11
 430.5 90 430.5 90 470.25 107.25 c 128,-1,12
 510 124.5 510 124.5 535.5 154.5 c 1,13,14
 562.5 192 562.5 192 577.5 246 c 128,-1,15
 592.5 300 592.5 300 592.5 369 c 0,16,17
 592.5 439.5 592.5 439.5 577.5 494.25 c 128,-1,18
 562.5 549 562.5 549 535.5 585 c 1,19,20
 510 615 510 615 470.25 632.25 c 128,-1,21
 430.5 649.5 430.5 649.5 382.5 649.5 c 256,0,1
135 658.5 m 1,22,23
 222 771 222 771 382.5 771 c 256,24,25
 543 771 543 771 631.5 658.5 c 1,26,27
 715.5 555 715.5 555 715.5 369 c 0,28,29
 715.5 180 715.5 180 631.5 78 c 1,30,31
 544.5 -31.5 544.5 -31.5 382.5 -31.5 c 0,32,33
 222 -31.5 222 -31.5 135 78 c 1,34,35
 51 180 51 180 51 369 c 0,36,37
 51 553.5 51 553.5 135 658.5 c 1,22,23
EndSplineSet
EndChar
StartChar: p
Encoding: 112 112 41
Width: 781
VWidth: 3000
Flags: W
LayerCount: 2
Back
Fore
SplineSet
174 697.5 m 1,0,1
 214.5 732 214.5 732 267 751.5 c 128,-1,2
 319.5 771 319.5 771 382.5 771 c 0,3,4
 543 771 543 771 631.5 658.5 c 1,5,6
 715.5 555 715.5 555 715.5 369 c 0,7,8
 715.5 180 715.5 180 631.5 78 c 1,9,10
 544.5 -31.5 544.5 -31.5 382.5 -31.5 c 0,11,12
 253.5 -31.5 253.5 -31.5 174 37.5 c 1,13,-1
 174 -642 l 2,14,15
 174 -702 174 -702 111 -702 c 0,16,17
 51 -702 51 -702 51 -642 c 2,18,-1
 51 709.5 l 2,19,20
 51 771 51 771 111 771 c 0,21,22
 174 771 174 771 174 709.5 c 2,23,-1
 174 697.5 l 1,0,1
382.5 649.5 m 256,24,25
 334.5 649.5 334.5 649.5 295.5 632.25 c 128,-1,26
 256.5 615 256.5 615 231 585 c 1,27,28
 204 549 204 549 189 494.25 c 128,-1,29
 174 439.5 174 439.5 174 369 c 0,30,31
 174 229.5 174 229.5 231 154.5 c 0,32,33
 280.5 90 280.5 90 382.5 90 c 0,34,35
 430.5 90 430.5 90 470.25 107.25 c 128,-1,36
 510 124.5 510 124.5 535.5 154.5 c 1,37,38
 562.5 192 562.5 192 577.5 246 c 128,-1,39
 592.5 300 592.5 300 592.5 369 c 0,40,41
 592.5 439.5 592.5 439.5 577.5 494.25 c 128,-1,42
 562.5 549 562.5 549 535.5 585 c 1,43,44
 510 615 510 615 470.25 632.25 c 128,-1,45
 430.5 649.5 430.5 649.5 382.5 649.5 c 256,24,25
EndSplineSet
EndChar
StartChar: q
Encoding: 113 113 42
Width: 789
VWidth: 3000
Flags: W
LayerCount: 2
Back
Fore
SplineSet
717 -190.5 m 1,0,-1
 717 -642 l 2,1,2
 717 -702 717 -702 655.5 -702 c 0,3,4
 595.5 -702 595.5 -702 595.5 -642 c 2,5,-1
 595.5 37.5 l 1,6,7
 513 -31.5 513 -31.5 384 -31.5 c 0,8,9
 223.5 -31.5 223.5 -31.5 136.5 78 c 1,10,11
 52.5 180 52.5 180 52.5 369 c 0,12,13
 52.5 460.5 52.5 460.5 75 533.25 c 128,-1,14
 97.5 606 97.5 606 136.5 658.5 c 1,15,16
 180 712.5 180 712.5 243 741.75 c 128,-1,17
 306 771 306 771 384 771 c 0,18,19
 508.5 771 508.5 771 595.5 697.5 c 1,20,-1
 595.5 709.5 l 2,21,22
 595.5 771 595.5 771 655.5 771 c 0,23,24
 717 771 717 771 717 709.5 c 2,25,-1
 717 120 l 1,26,27
 763.5 223.5 763.5 223.5 807 327 c 1,28,29
 831 378 831 378 882 361.5 c 1,30,31
 937.5 336 937.5 336 918 280.5 c 1,32,-1
 717 -190.5 l 1,0,-1
537 585 m 0,33,34
 487.5 649.5 487.5 649.5 384 649.5 c 0,35,36
 336 649.5 336 649.5 297 632.25 c 128,-1,37
 258 615 258 615 232.5 585 c 1,38,39
 205.5 549 205.5 549 190.5 494.25 c 128,-1,40
 175.5 439.5 175.5 439.5 175.5 369 c 0,41,42
 175.5 229.5 175.5 229.5 232.5 154.5 c 1,43,44
 283.5 90 283.5 90 384 90 c 0,45,46
 432 90 432 90 471.75 107.25 c 128,-1,47
 511.5 124.5 511.5 124.5 537 154.5 c 1,48,49
 564 192 564 192 579.75 246 c 128,-1,50
 595.5 300 595.5 300 595.5 369 c 0,51,52
 595.5 510 595.5 510 537 585 c 0,33,34
EndSplineSet
EndChar
StartChar: r
Encoding: 114 114 44
Width: 762
VWidth: 3000
Flags: W
LayerCount: 2
Back
Fore
SplineSet
172.5 697.5 m 1,0,1
 214.5 732 214.5 732 267 751.5 c 128,-1,2
 319.5 771 319.5 771 382.5 771 c 0,3,4
 489 771 489 771 567 717 c 1,5,-1
 567 718.5 l 1,6,7
 645 667.5 645 667.5 684 565.5 c 1,8,9
 693 535.5 693 535.5 685.5 517.5 c 128,-1,10
 678 499.5 678 499.5 648 487.5 c 0,11,12
 622.5 478.5 622.5 478.5 600.75 490.5 c 128,-1,13
 579 502.5 579 502.5 568.5 523.5 c 1,14,15
 543 586.5 543 586.5 499.5 618 c 1,16,17
 451.5 649.5 451.5 649.5 382.5 649.5 c 0,18,19
 334.5 649.5 334.5 649.5 295.5 632.25 c 128,-1,20
 256.5 615 256.5 615 231 585 c 1,21,22
 204 549 204 549 188.25 494.25 c 128,-1,23
 172.5 439.5 172.5 439.5 172.5 369 c 2,24,-1
 172.5 28.5 l 2,25,26
 172.5 -31.5 172.5 -31.5 111 -31.5 c 0,27,28
 51 -31.5 51 -31.5 51 28.5 c 2,29,-1
 51 709.5 l 2,30,31
 51 771 51 771 111 771 c 0,32,33
 172.5 771 172.5 771 172.5 709.5 c 2,34,-1
 172.5 697.5 l 1,0,1
EndSplineSet
EndChar
StartChar: s
Encoding: 115 115 45
Width: 524
Flags: W
LayerCount: 2
Back
Fore
SplineSet
116 126 m 1,0,1
 135 92 135 92 167 77 c 1,2,3
 197 60 197 60 250 60 c 0,4,5
 281 60 281 60 306.5 65 c 128,-1,6
 332 70 332 70 353 81 c 1,7,-1
 352 80 l 1,8,9
 383 97 383 97 386 117 c 1,10,11
 394 156 394 156 352 176 c 0,12,13
 326 189 326 189 297.5 200.5 c 128,-1,14
 269 212 269 212 237 220 c 1,15,16
 199 231 199 231 165.5 244.5 c 128,-1,17
 132 258 132 258 103 272 c 1,18,19
 35 308 35 308 47 390 c 1,20,21
 53 422 53 422 72.5 445 c 128,-1,22
 92 468 92 468 124 485 c 1,23,24
 185 514 185 514 262 514 c 0,25,26
 333 514 333 514 382 488 c 0,27,28
 407 475 407 475 427.5 454.5 c 128,-1,29
 448 434 448 434 465 408 c 1,30,31
 485 372 485 372 449 352 c 0,32,33
 415 333 415 333 394 368 c 1,34,-1
 395 367 l 1,35,36
 386 383 386 383 373.5 395 c 128,-1,37
 361 407 361 407 344 415 c 1,38,39
 311 433 311 433 262 433 c 0,40,41
 201 433 201 433 161 412 c 1,42,-1
 162 413 l 1,43,44
 131 396 131 396 128 378 c 0,45,46
 123 350 123 350 155 335 c 0,47,48
 201 314 201 314 260 298 c 0,49,50
 301 286 301 286 337 271.5 c 128,-1,51
 373 257 373 257 405 240 c 0,52,53
 481 201 481 201 467 103 c 1,54,55
 455 41 455 41 390 9 c 0,56,57
 330 -21 330 -21 250 -21 c 0,58,59
 178 -21 178 -21 129 5 c 0,60,61
 77 32 77 32 44 87 c 1,62,63
 29 123 29 123 63 142 c 0,64,65
 81 152 81 152 93.5 147.5 c 128,-1,66
 106 143 106 143 117 125 c 1,67,-1
 116 126 l 1,0,1
EndSplineSet
EndChar
StartChar: t
Encoding: 116 116 46
Width: 401
Flags: W
LayerCount: 2
Back
Fore
SplineSet
43 615 m 1,0,-1
 43 961 l 2,1,2
 43 1001 43 1001 85 1001 c 0,3,4
 125 1001 125 1001 125 961 c 2,5,-1
 125 615 l 1,6,-1
 251 615 l 2,7,8
 292 615 292 615 292 576 c 0,9,10
 292 535 292 535 251 535 c 2,11,-1
 125 535 l 1,12,-1
 125 181 l 2,13,14
 125 115 125 115 150 86 c 1,15,16
 169 60 169 60 214 60 c 0,17,18
 243 60 243 60 263 73 c 1,19,-1
 262 72 l 1,20,21
 282 87 282 87 293 113 c 1,22,-1
 292 112 l 1,23,24
 305 148 305 148 343 136 c 1,25,26
 381 121 381 121 368 84 c 1,27,28
 348 32 348 32 308 5 c 0,29,30
 269 -21 269 -21 214 -21 c 0,31,32
 132 -21 132 -21 87 37 c 1,33,-1
 88 36 l 1,34,35
 43 90 43 90 43 181 c 2,36,-1
 43 535 l 1,37,-1
 -14 535 l 2,38,39
 -55 535 -55 535 -55 576 c 0,40,41
 -55 615 -55 615 -14 615 c 2,42,-1
 43 615 l 1,0,-1
EndSplineSet
EndChar

StartChar: u
Encoding: 117 117 43
Width: 521
Flags: W
LayerCount: 2
Fore
SplineSet
116 246 m 2,0,1
 116 153 116 153 154 103 c 0,2,3
 187 60 187 60 255 60 c 0,4,5
 287 60 287 60 313.5 71.5 c 128,-1,6
 340 83 340 83 357 103 c 1,7,8
 375 128 375 128 385 164 c 128,-1,9
 395 200 395 200 395 246 c 2,10,-1
 395 473 l 2,11,12
 395 514 395 514 436 514 c 256,13,14
 477 514 477 514 477 473 c 2,15,-1
 477 19 l 2,16,17
 477 -21 477 -21 436 -21 c 256,18,19
 395 -21 395 -21 395 19 c 2,20,-1
 395 25 l 1,21,22
 342 -21 342 -21 255 -21 c 0,23,24
 148 -21 148 -21 90 52 c 1,25,26
 34 120 34 120 34 246 c 2,27,-1
 34 473 l 2,28,29
 34 514 34 514 74 514 c 0,30,31
 116 514 116 514 116 473 c 2,32,-1
 116 246 l 2,0,1
EndSplineSet
EndChar
StartChar: v
Encoding: 118 118 48
Width: 879
VWidth: 3000
Flags: W
LayerCount: 2
Back
Fore
SplineSet
481.5 -4.5 m 1,0,-1
 462 -24 l 1,1,-1
 462 -27 l 1,2,-1
 448.5 -27 l 1,3,-1
 447 -27 l 1,4,5
 438 -31.5 438 -31.5 430.5 -31.5 c 0,6,7
 424.5 -31.5 424.5 -31.5 411 -27 c 1,8,-1
 418.5 -28.5 l 2,9,10
 417 -28.5 417 -28.5 416.25 -27 c 128,-1,11
 415.5 -25.5 415.5 -25.5 414 -25.5 c 2,12,-1
 381 -24 l 1,13,-1
 379.5 -4.5 l 1,14,-1
 373.5 1.5 l 1,15,-1
 372 12 l 1,16,17
 295.5 180 295.5 180 218.25 348 c 128,-1,18
 141 516 141 516 64.5 685.5 c 0,19,20
 42 738 42 738 96 765 c 1,21,22
 148.5 786 148.5 786 175.5 733.5 c 1,23,-1
 429 175.5 l 1,24,25
 493.5 316.5 493.5 316.5 556.5 454.5 c 128,-1,26
 619.5 592.5 619.5 592.5 684 733.5 c 1,27,-1
 682.5 732 l 1,28,29
 702 786 702 786 765 765 c 1,30,31
 814.5 736.5 814.5 736.5 795 685.5 c 1,32,-1
 481.5 -4.5 l 1,0,-1
EndSplineSet
EndChar
StartChar: w
Encoding: 119 119 49
Width: 1192
VWidth: 3000
Flags: W
LayerCount: 2
Back
Fore
SplineSet
640.5 729 m 1,0,-1
 814.5 220.5 l 1,1,2
 858 348 858 348 901.5 474.75 c 128,-1,3
 945 601.5 945 601.5 988.5 729 c 0,4,5
 1009.5 786 1009.5 786 1066.5 768 c 1,6,7
 1122 745.5 1122 745.5 1104 691.5 c 2,8,-1
 873 9 l 2,9,10
 870 0 870 0 865.5 -5.25 c 128,-1,11
 861 -10.5 861 -10.5 858 -13.5 c 256,12,13
 855 -16.5 855 -16.5 849 -20.25 c 128,-1,14
 843 -24 843 -24 837 -28.5 c 1,15,-1
 823.5 -30 l 1,16,-1
 817.5 -31.5 l 1,17,-1
 811.5 -31.5 l 1,18,-1
 807 -30 l 1,19,-1
 795 -28.5 l 2,20,21
 792 -27 792 -27 787.5 -24 c 0,22,23
 784.5 -21 784.5 -21 780.75 -19.5 c 128,-1,24
 777 -18 777 -18 774 -16.5 c 0,25,26
 766.5 -9 766.5 -9 764.25 -4.5 c 128,-1,27
 762 0 762 0 759 6 c 2,28,-1
 583.5 520.5 l 1,29,30
 540 391.5 540 391.5 495.75 264.75 c 128,-1,31
 451.5 138 451.5 138 408 9 c 0,32,33
 405 1.5 405 1.5 401.25 -5.25 c 128,-1,34
 397.5 -12 397.5 -12 390 -18 c 0,35,36
 387 -19.5 387 -19.5 382.5 -22.5 c 128,-1,37
 378 -25.5 378 -25.5 370.5 -28.5 c 1,38,-1
 358.5 -30 l 1,39,-1
 354 -31.5 l 1,40,-1
 349.5 -31.5 l 1,41,-1
 343.5 -30 l 1,42,-1
 327 -28.5 l 2,43,44
 324 -27 324 -27 321 -24 c 0,45,46
 315 -18 315 -18 312 -16.5 c 0,47,48
 304.5 -9 304.5 -9 301.5 -4.5 c 128,-1,49
 298.5 0 298.5 0 295.5 6 c 2,50,-1
 58.5 697.5 l 1,51,52
 49.5 744 49.5 744 99 766.5 c 1,53,54
 159 786 159 786 177 727.5 c 1,55,-1
 177 729 l 1,56,57
 201 655.5 201 655.5 222.75 594 c 128,-1,58
 244.5 532.5 244.5 532.5 264.75 474 c 128,-1,59
 285 415.5 285 415.5 306 354.75 c 128,-1,60
 327 294 327 294 352.5 220.5 c 1,61,62
 396 351 396 351 440.25 478.5 c 128,-1,63
 484.5 606 484.5 606 528 735 c 0,64,65
 529.5 738 529.5 738 531.75 741.75 c 128,-1,66
 534 745.5 534 745.5 537 748.5 c 0,67,68
 543 759 543 759 559.5 768 c 1,69,-1
 574.5 769.5 l 1,70,-1
 579 769.5 l 1,71,-1
 583.5 771 l 1,72,-1
 592.5 768 l 1,73,-1
 604.5 768 l 1,74,75
 610.5 765 610.5 765 615.75 761.25 c 128,-1,76
 621 757.5 621 757.5 630 748.5 c 1,77,-1
 630 745.5 l 2,78,79
 630 744 630 744 631.5 744 c 0,80,81
 634.5 741 634.5 741 637.5 737.25 c 128,-1,82
 640.5 733.5 640.5 733.5 642 732 c 1,83,-1
 640.5 729 l 1,0,-1
EndSplineSet
EndChar
StartChar: x
Encoding: 120 120 50
Width: 525
Flags: W
LayerCount: 2
Back
Fore
SplineSet
257 312 m 1,0,1
 295 362 295 362 328 406 c 128,-1,2
 361 450 361 450 399 498 c 1,3,4
 425 528 425 528 456 506 c 1,5,6
 488 477 488 477 463 447 c 1,7,-1
 464 448 l 1,8,9
 422 394 422 394 385.5 347 c 128,-1,10
 349 300 349 300 307 246 c 1,11,12
 346 196 346 196 386 145 c 128,-1,13
 426 94 426 94 464 43 c 1,14,15
 487 16 487 16 457 -13 c 1,16,17
 442 -25 442 -25 427 -21.5 c 128,-1,18
 412 -18 412 -18 399 -4 c 1,19,20
 364 41 364 41 329 86 c 128,-1,21
 294 131 294 131 257 179 c 1,22,23
 221 131 221 131 185.5 87.5 c 128,-1,24
 150 44 150 44 114 -4 c 1,25,26
 101 -18 101 -18 86 -21.5 c 128,-1,27
 71 -25 71 -25 56 -13 c 1,28,29
 42 1 42 1 41 15.5 c 128,-1,30
 40 30 40 30 49 43 c 0,31,32
 90 96 90 96 127.5 144.5 c 128,-1,33
 165 193 165 193 206 246 c 1,34,35
 167 296 167 296 127 347 c 128,-1,36
 87 398 87 398 49 448 c 1,37,38
 29 477 29 477 56 506 c 1,39,40
 87 528 87 528 113 498 c 1,41,-1
 257 312 l 1,0,1
EndSplineSet
EndChar

StartChar: y
Encoding: 121 121 51
Width: 586
Flags: W
LayerCount: 2
Fore
SplineSet
121 -444 m 1,0,1
 104 -478 104 -478 67 -465 c 1,2,3
 32 -447 32 -447 47 -412 c 0,4,5
 95 -304 95 -304 145 -196 c 128,-1,6
 195 -88 195 -88 243 19 c 1,7,8
 193 129 193 129 143 238 c 128,-1,9
 93 347 93 347 43 457 c 0,10,11
 28 492 28 492 64 510 c 1,12,13
 99 524 99 524 117 489 c 1,14,-1
 286 117 l 1,15,16
 329 211 329 211 371 303 c 128,-1,17
 413 395 413 395 456 489 c 1,18,-1
 455 488 l 1,19,20
 468 524 468 524 510 510 c 1,21,22
 543 491 543 491 530 457 c 1,23,-1
 121 -444 l 1,0,1
EndSplineSet
EndChar

StartChar: z
Encoding: 122 122 52
Width: 509
Flags: W
LayerCount: 2
Fore
SplineSet
343 433 m 1,0,-1
 74 433 l 2,1,2
 34 433 34 433 34 473 c 0,3,4
 34 514 34 514 74 514 c 2,5,-1
 425 514 l 2,6,7
 465 514 465 514 465 473 c 0,8,9
 465 454 465 454 454 444 c 1,10,11
 414 393 414 393 377.5 346 c 128,-1,12
 341 299 341 299 305.5 252.5 c 128,-1,13
 270 206 270 206 233.5 159 c 128,-1,14
 197 112 197 112 157 60 c 1,15,-1
 425 60 l 2,16,17
 465 60 465 60 465 19 c 0,18,19
 465 -21 465 -21 425 -21 c 2,20,-1
 74 -21 l 2,21,22
 34 -21 34 -21 34 19 c 0,23,24
 34 31 34 31 43 45 c 1,25,-1
 343 433 l 1,0,-1
EndSplineSet
EndChar
StartChar: braceleft
Encoding: 123 123 241
Width: 565
VWidth: 3000
Flags: W
LayerCount: 2
Back
Fore
SplineSet
469.5 1483.5 m 0,0,1
 348 1396.5 348 1396.5 337.5 1311 c 0,2,3
 334.5 1287 334.5 1287 333 1264.5 c 128,-1,4
 331.5 1242 331.5 1242 331.5 1219.5 c 256,5,6
 331.5 1197 331.5 1197 333 1174.5 c 128,-1,7
 334.5 1152 334.5 1152 337.5 1128 c 0,8,9
 340.5 1101 340.5 1101 342.75 1074 c 128,-1,10
 345 1047 345 1047 345 1017 c 0,11,12
 345 990 345 990 343.5 964.5 c 128,-1,13
 342 939 342 939 339 913.5 c 0,14,15
 333 859.5 333 859.5 305.25 810 c 128,-1,16
 277.5 760.5 277.5 760.5 217.5 708 c 1,17,18
 277.5 655.5 277.5 655.5 305.25 606.75 c 128,-1,19
 333 558 333 558 339 504 c 0,20,21
 342 478.5 342 478.5 343.5 453 c 128,-1,22
 345 427.5 345 427.5 345 400.5 c 0,23,24
 345 370.5 345 370.5 342.75 342.75 c 128,-1,25
 340.5 315 340.5 315 337.5 288 c 0,26,27
 334.5 262.5 334.5 262.5 333 240 c 128,-1,28
 331.5 217.5 331.5 217.5 331.5 196.5 c 256,29,30
 331.5 175.5 331.5 175.5 333 152.25 c 128,-1,31
 334.5 129 334.5 129 337.5 105 c 0,32,33
 349.5 21 349.5 21 469.5 -66 c 0,34,35
 514.5 -99 514.5 -99 483 -148.5 c 1,36,37
 463.5 -175.5 463.5 -175.5 441 -177.75 c 128,-1,38
 418.5 -180 418.5 -180 396 -162 c 1,39,-1
 397.5 -163.5 l 1,40,41
 313.5 -105 313.5 -105 269.25 -45 c 128,-1,42
 225 15 225 15 216 75 c 0,43,44
 213 102 213 102 211.5 129 c 128,-1,45
 210 156 210 156 210 186 c 256,46,47
 210 216 210 216 211.5 246 c 128,-1,48
 213 276 213 276 217.5 304.5 c 1,49,-1
 217.5 303 l 1,50,51
 222 343.5 222 343.5 222 384 c 0,52,53
 222 409.5 222 409.5 219.75 435.75 c 128,-1,54
 217.5 462 217.5 462 214.5 489 c 0,55,56
 210 529.5 210 529.5 177.75 570.75 c 128,-1,57
 145.5 612 145.5 612 88.5 655.5 c 1,58,59
 75 663 75 663 70.5 678 c 1,60,61
 52.5 700.5 52.5 700.5 69 730.5 c 1,62,-1
 63 741 l 1,63,64
 205.5 843 205.5 843 214.5 927 c 0,65,66
 217.5 955.5 217.5 955.5 219.75 981.75 c 128,-1,67
 222 1008 222 1008 222 1033.5 c 0,68,69
 222 1074 222 1074 217.5 1114.5 c 1,70,-1
 217.5 1113 l 1,71,72
 213 1141.5 213 1141.5 211.5 1171.5 c 128,-1,73
 210 1201.5 210 1201.5 210 1231.5 c 0,74,75
 210 1258.5 210 1258.5 211.5 1285.5 c 128,-1,76
 213 1312.5 213 1312.5 216 1339.5 c 0,77,78
 225 1402.5 225 1402.5 269.25 1463.25 c 128,-1,79
 313.5 1524 313.5 1524 397.5 1582.5 c 1,80,-1
 396 1581 l 1,81,82
 418.5 1599 418.5 1599 441 1596.75 c 128,-1,83
 463.5 1594.5 463.5 1594.5 483 1566 c 1,84,85
 511.5 1515 511.5 1515 469.5 1483.5 c 0,0,1
EndSplineSet
EndChar

StartChar: bar
Encoding: 124 124 169
Width: 145
Flags: W
LayerCount: 2
Fore
SplineSet
112 -437 m 2,0,1
 112 -477 112 -477 71 -477 c 256,2,3
 30 -477 30 -477 30 -437 c 2,4,-1
 30 1034 l 2,5,6
 30 1074 30 1074 71 1074 c 256,7,8
 112 1074 112 1074 112 1034 c 2,9,-1
 112 -437 l 2,0,1
EndSplineSet
EndChar
StartChar: braceright
Encoding: 125 125 242
Width: 565
VWidth: 3000
Flags: W
LayerCount: 2
Back
Fore
SplineSet
84 -64.5 m 0,0,1
 207 22.5 207 22.5 216 105 c 0,2,3
 219 130.5 219 130.5 221.25 155.25 c 128,-1,4
 223.5 180 223.5 180 223.5 204 c 0,5,6
 223.5 225 223.5 225 222 246.75 c 128,-1,7
 220.5 268.5 220.5 268.5 217.5 291 c 0,8,9
 214.5 321 214.5 321 212.25 351.75 c 128,-1,10
 210 382.5 210 382.5 210 412.5 c 0,11,12
 210 457.5 210 457.5 214.5 505.5 c 0,13,14
 220.5 561 220.5 561 249 609.75 c 128,-1,15
 277.5 658.5 277.5 658.5 337.5 711 c 1,16,17
 277.5 763.5 277.5 763.5 249 812.25 c 128,-1,18
 220.5 861 220.5 861 214.5 916.5 c 0,19,20
 210 961.5 210 961.5 210 1008 c 0,21,22
 210 1038 210 1038 212.25 1068.75 c 128,-1,23
 214.5 1099.5 214.5 1099.5 217.5 1129.5 c 0,24,25
 220.5 1152 220.5 1152 222 1174.5 c 128,-1,26
 223.5 1197 223.5 1197 223.5 1218 c 0,27,28
 223.5 1242 223.5 1242 221.25 1265.25 c 128,-1,29
 219 1288.5 219 1288.5 216 1314 c 0,30,31
 204 1398 204 1398 84 1485 c 1,32,33
 37.5 1522.5 37.5 1522.5 70.5 1567.5 c 1,34,35
 105 1620 105 1620 157.5 1582.5 c 0,36,37
 238.5 1525.5 238.5 1525.5 282.75 1464 c 128,-1,38
 327 1402.5 327 1402.5 337.5 1341 c 0,39,40
 340.5 1315.5 340.5 1315.5 342.75 1285.5 c 128,-1,41
 345 1255.5 345 1255.5 345 1228.5 c 256,42,43
 345 1201.5 345 1201.5 342.75 1171.5 c 128,-1,44
 340.5 1141.5 340.5 1141.5 337.5 1116 c 0,45,46
 333 1075.5 333 1075.5 333 1032 c 0,47,48
 333 1008 333 1008 334.5 981.75 c 128,-1,49
 336 955.5 336 955.5 339 930 c 0,50,51
 349.5 849 349.5 849 465 762 c 1,52,53
 480 754.5 480 754.5 484.5 741 c 1,54,55
 501 715.5 501 715.5 484.5 688.5 c 1,56,-1
 492 678 l 1,57,58
 351 576 351 576 339 490.5 c 0,59,60
 336 465 336 465 334.5 438.75 c 128,-1,61
 333 412.5 333 412.5 333 388.5 c 0,62,63
 333 345 333 345 337.5 304.5 c 0,64,65
 340.5 277.5 340.5 277.5 342.75 247.5 c 128,-1,66
 345 217.5 345 217.5 345 190.5 c 0,67,68
 345 160.5 345 160.5 342.75 132 c 128,-1,69
 340.5 103.5 340.5 103.5 337.5 78 c 0,70,71
 328.5 16.5 328.5 16.5 283.5 -45 c 128,-1,72
 238.5 -106.5 238.5 -106.5 157.5 -163.5 c 0,73,74
 105 -201 105 -201 70.5 -148.5 c 0,75,76
 37.5 -99 37.5 -99 84 -64.5 c 0,0,1
EndSplineSet
EndChar
StartChar: asciitilde
Encoding: 126 126 170
Width: 669
VWidth: 3000
Flags: W
LayerCount: 2
Back
Fore
SplineSet
10.5 607.5 m 0,0,1
 48 657 48 657 84.75 693.75 c 128,-1,2
 121.5 730.5 121.5 730.5 165 745.5 c 0,3,4
 268.5 778.5 268.5 778.5 373.5 642 c 1,5,6
 397.5 604.5 397.5 604.5 427.5 597 c 1,7,8
 430.5 594 430.5 594 436.5 594.75 c 128,-1,9
 442.5 595.5 442.5 595.5 448.5 597 c 0,10,11
 456 600 456 600 463.5 603.75 c 128,-1,12
 471 607.5 471 607.5 478.5 612 c 1,13,-1
 477 612 l 1,14,15
 523.5 645 523.5 645 541.5 703.5 c 1,16,-1
 541.5 702 l 1,17,18
 559.5 760.5 559.5 760.5 610.5 750 c 1,19,20
 679.5 727.5 679.5 727.5 660 669 c 0,21,22
 628.5 571.5 628.5 571.5 552 511.5 c 1,23,24
 531 498 531 498 513.75 489 c 128,-1,25
 496.5 480 496.5 480 477 475.5 c 1,26,-1
 478.5 477 l 1,27,28
 432 463.5 432 463.5 388.5 478.5 c 0,29,30
 358.5 489 358.5 489 327.75 513 c 128,-1,31
 297 537 297 537 273 568.5 c 0,32,33
 225 634.5 225 634.5 202.5 627 c 0,34,35
 184.5 621 184.5 621 161.25 594.75 c 128,-1,36
 138 568.5 138 568.5 109.5 532.5 c 1,37,-1
 109.5 534 l 1,38,39
 70.5 480 70.5 480 21 520.5 c 1,40,41
 -24 559.5 -24 559.5 10.5 607.5 c 0,0,1
EndSplineSet
EndChar
StartChar: exclamdown
Encoding: 161 161 203
Width: 301
VWidth: 3000
Flags: W
LayerCount: 2
Back
Fore
SplineSet
249 738 m 256,0,1
 249 690 249 690 220.5 656.25 c 128,-1,2
 192 622.5 192 622.5 148.5 622.5 c 0,3,4
 106.5 622.5 106.5 622.5 76.5 656.25 c 128,-1,5
 46.5 690 46.5 690 46.5 738 c 256,6,7
 46.5 786 46.5 786 76.5 819 c 128,-1,8
 106.5 852 106.5 852 148.5 852 c 0,9,10
 192 852 192 852 220.5 819 c 128,-1,11
 249 786 249 786 249 738 c 256,0,1
93 507 m 2,12,13
 93 568.5 93 568.5 156 568.5 c 0,14,15
 216 568.5 216 568.5 216 507 c 2,16,-1
 216 -613.5 l 2,17,18
 216 -675 216 -675 156 -675 c 0,19,20
 93 -675 93 -675 93 -613.5 c 2,21,-1
 93 507 l 2,12,13
EndSplineSet
EndChar

StartChar: cent
Encoding: 162 162 205
Width: 508
Flags: W
LayerCount: 2
Fore
SplineSet
289 646 m 1,0,1
 338 640 338 640 378 612 c 0,2,3
 403 595 403 595 422.5 570.5 c 128,-1,4
 442 546 442 546 456 511 c 1,5,6
 462 491 462 491 457 478.5 c 128,-1,7
 452 466 452 466 432 459 c 0,8,9
 415 453 415 453 400.5 461 c 128,-1,10
 386 469 386 469 379 483 c 1,11,12
 362 525 362 525 333 545 c 0,13,14
 313 558 313 558 289 562 c 1,15,-1
 289 197 l 1,16,17
 302 200 302 200 312.5 204.5 c 128,-1,18
 323 209 323 209 333 214 c 1,19,20
 362 235 362 235 379 277 c 0,21,22
 386 294 386 294 400 300.5 c 128,-1,23
 414 307 414 307 433 299 c 1,24,-1
 432 300 l 1,25,26
 469 285 469 285 456 248 c 1,27,28
 429 180 429 180 378 146 c 0,29,30
 341 122 341 122 289 114 c 1,31,-1
 289 30 l 2,32,33
 289 -11 289 -11 248 -11 c 0,34,35
 208 -11 208 -11 208 30 c 2,36,-1
 208 116 l 1,37,38
 173 124 173 124 142 142.5 c 128,-1,39
 111 161 111 161 89 187 c 1,40,41
 63 222 63 222 48.5 270.5 c 128,-1,42
 34 319 34 319 34 380 c 256,43,44
 34 441 34 441 48.5 489.5 c 128,-1,45
 63 538 63 538 89 573 c 1,46,47
 136 632 136 632 208 644 c 1,48,-1
 208 722 l 2,49,50
 208 762 208 762 248 762 c 0,51,52
 289 762 289 762 289 722 c 2,53,-1
 289 646 l 1,0,1
154 524 m 1,54,55
 115 473 115 473 115 380 c 0,56,57
 115 333 115 333 125.5 297 c 128,-1,58
 136 261 136 261 154 237 c 0,59,60
 174 211 174 211 208 200 c 1,61,-1
 208 560 l 1,62,63
 176 550 176 550 154 524 c 1,54,55
EndSplineSet
EndChar
StartChar: sterling
Encoding: 163 163 247
Width: 1018
VWidth: 3000
Flags: W
LayerCount: 2
Back
Fore
SplineSet
379.5 483 m 1,0,-1
 379.5 91.5 l 1,1,-1
 898.5 91.5 l 2,2,3
 958.5 91.5 958.5 91.5 958.5 28.5 c 0,4,5
 958.5 -31.5 958.5 -31.5 898.5 -31.5 c 2,6,-1
 115.5 -31.5 l 2,7,8
 52.5 -31.5 52.5 -31.5 52.5 28.5 c 0,9,10
 52.5 91.5 52.5 91.5 115.5 91.5 c 2,11,-1
 256.5 91.5 l 1,12,-1
 256.5 483 l 1,13,-1
 196.5 483 l 2,14,15
 165 483 165 483 147.75 499.5 c 128,-1,16
 130.5 516 130.5 516 133.5 547.5 c 1,17,18
 133.5 607.5 133.5 607.5 196.5 607.5 c 2,19,-1
 256.5 607.5 l 1,20,-1
 256.5 1101 l 2,21,22
 256.5 1285.5 256.5 1285.5 340.5 1390.5 c 0,23,24
 427.5 1501.5 427.5 1501.5 589.5 1501.5 c 0,25,26
 748.5 1501.5 748.5 1501.5 838.5 1390.5 c 1,27,28
 921 1285.5 921 1285.5 921 1101 c 0,29,30
 921 1039.5 921 1039.5 861 1039.5 c 0,31,32
 799.5 1039.5 799.5 1039.5 799.5 1101 c 0,33,34
 799.5 1239 799.5 1239 741 1315.5 c 0,35,36
 691.5 1380 691.5 1380 589.5 1380 c 0,37,38
 541.5 1380 541.5 1380 501.75 1362.75 c 128,-1,39
 462 1345.5 462 1345.5 436.5 1315.5 c 1,40,41
 409.5 1278 409.5 1278 394.5 1224 c 128,-1,42
 379.5 1170 379.5 1170 379.5 1101 c 2,43,-1
 379.5 607.5 l 1,44,-1
 744 607.5 l 1,45,46
 804 603 804 603 804 543 c 0,47,48
 804 477 804 477 744 481.5 c 1,49,-1
 379.5 483 l 1,0,-1
EndSplineSet
EndChar
StartChar: currency
Encoding: 164 164 251
Width: 823
VWidth: 3000
Flags: W
LayerCount: 2
Back
Fore
SplineSet
523.5 853.5 m 1,0,1
 471 903 471 903 405 903 c 0,2,3
 333 903 333 903 286.5 853.5 c 1,4,5
 237 804 237 804 237 735 c 0,6,7
 237 664.5 237 664.5 286.5 618 c 1,8,9
 331.5 568.5 331.5 568.5 405 568.5 c 0,10,11
 474 568.5 474 568.5 523.5 618 c 0,12,13
 571.5 664.5 571.5 664.5 571.5 735 c 256,14,15
 571.5 805.5 571.5 805.5 523.5 853.5 c 1,0,1
648 891 m 1,16,17
 694.5 819 694.5 819 694.5 735 c 0,18,19
 694.5 691.5 694.5 691.5 683.25 651 c 128,-1,20
 672 610.5 672 610.5 649.5 577.5 c 1,21,22
 667.5 558 667.5 558 688.5 537 c 128,-1,23
 709.5 516 709.5 516 726 499.5 c 0,24,25
 765 457.5 765 457.5 726 414 c 1,26,27
 682.5 373.5 682.5 373.5 639 414 c 1,28,-1
 562.5 492 l 1,29,30
 490.5 445.5 490.5 445.5 405 445.5 c 0,31,32
 313.5 445.5 313.5 445.5 246 490.5 c 1,33,-1
 169.5 414 l 2,34,35
 126 370.5 126 370.5 82.5 415.5 c 1,36,37
 43.5 459 43.5 459 85.5 501 c 0,38,39
 106.5 522 106.5 522 123 537.75 c 128,-1,40
 139.5 553.5 139.5 553.5 160.5 577.5 c 1,41,42
 114 645 114 645 114 735 c 0,43,44
 114 781.5 114 781.5 124.5 819 c 128,-1,45
 135 856.5 135 856.5 160.5 892.5 c 1,46,47
 142.5 912 142.5 912 123.75 930.75 c 128,-1,48
 105 949.5 105 949.5 85.5 969 c 0,49,50
 64.5 988.5 64.5 988.5 64.5 1011 c 128,-1,51
 64.5 1033.5 64.5 1033.5 82.5 1054.5 c 1,52,53
 126 1095 126 1095 169.5 1056 c 1,54,55
 190.5 1035 190.5 1035 207 1017.75 c 128,-1,56
 223.5 1000.5 223.5 1000.5 246 979.5 c 1,57,58
 316.5 1026 316.5 1026 405 1026 c 0,59,60
 490.5 1026 490.5 1026 562.5 979.5 c 1,61,-1
 639 1056 l 1,62,63
 682.5 1095 682.5 1095 726 1054.5 c 1,64,65
 766.5 1011 766.5 1011 726 970.5 c 2,66,-1
 648 891 l 1,16,17
EndSplineSet
EndChar
StartChar: yen
Encoding: 165 165 177
Width: 958
VWidth: 3000
Flags: W
LayerCount: 2
Back
Fore
SplineSet
529.5 582 m 1,0,-1
 529.5 469.5 l 1,1,-1
 675 469.5 l 2,2,3
 706.5 469.5 706.5 469.5 720.75 453.75 c 128,-1,4
 735 438 735 438 738 406.5 c 1,5,6
 738 345 738 345 673.5 345 c 2,7,-1
 529.5 345 l 1,8,-1
 529.5 28.5 l 2,9,10
 529.5 -31.5 529.5 -31.5 468 -31.5 c 0,11,12
 408 -31.5 408 -31.5 408 28.5 c 2,13,-1
 408 345 l 1,14,15
 372 345 372 345 337.5 345.75 c 128,-1,16
 303 346.5 303 346.5 267 346.5 c 0,17,18
 201 346.5 201 346.5 205.5 411 c 1,19,20
 202.5 469.5 202.5 469.5 267 469.5 c 2,21,-1
 408 469.5 l 1,22,-1
 408 583.5 l 1,23,24
 370.5 583.5 370.5 583.5 335.25 584.25 c 128,-1,25
 300 585 300 585 264 585 c 0,26,27
 199.5 585 199.5 585 204 649.5 c 1,28,29
 204 709.5 204 709.5 264 709.5 c 2,30,-1
 408 709.5 l 1,31,-1
 408 721.5 l 1,32,33
 322.5 895.5 322.5 895.5 237 1068.75 c 128,-1,34
 151.5 1242 151.5 1242 66 1416 c 1,35,36
 45 1471.5 45 1471.5 94.5 1494 c 1,37,38
 147 1525.5 147 1525.5 177 1468.5 c 1,39,-1
 468 874.5 l 1,40,41
 540 1024.5 540 1024.5 614.25 1171.5 c 128,-1,42
 688.5 1318.5 688.5 1318.5 760.5 1468.5 c 1,43,44
 790.5 1524 790.5 1524 843 1494 c 1,45,-1
 841.5 1494 l 1,46,47
 867 1482 867 1482 874.5 1460.25 c 128,-1,48
 882 1438.5 882 1438.5 870 1413 c 0,49,50
 831 1332 831 1332 787.5 1244.25 c 128,-1,51
 744 1156.5 744 1156.5 699.75 1067.25 c 128,-1,52
 655.5 978 655.5 978 612 890.25 c 128,-1,53
 568.5 802.5 568.5 802.5 529.5 721.5 c 1,54,-1
 529.5 709.5 l 1,55,-1
 675 709.5 l 1,56,57
 706.5 706.5 706.5 706.5 720.75 691.5 c 128,-1,58
 735 676.5 735 676.5 738 646.5 c 1,59,60
 738 582 738 582 673.5 582 c 2,61,-1
 529.5 582 l 1,0,-1
EndSplineSet
EndChar
StartChar: brokenbar
Encoding: 166 166 195
Width: 149
Flags: W
LayerCount: 2
Back
Fore
SplineSet
75 -477 m 256,0,1
 34 -477 34 -477 34 -437 c 2,2,-1
 34 265 l 1,3,-1
 116 265 l 1,4,-1
 116 -437 l 2,5,6
 116 -477 116 -477 75 -477 c 256,0,1
116 421 m 1,7,-1
 34 421 l 1,8,-1
 34 1034 l 2,9,10
 34 1074 34 1074 75 1074 c 256,11,12
 116 1074 116 1074 116 1034 c 2,13,-1
 116 421 l 1,7,-1
EndSplineSet
EndChar
StartChar: section
Encoding: 167 167 194
Width: 524
Flags: W
LayerCount: 2
Back
Fore
SplineSet
46 831 m 1,0,1
 56 906 56 906 122 955 c 0,2,3
 181 998 181 998 269 998 c 0,4,5
 346 998 346 998 395 961 c 1,6,7
 421 940 421 940 442.5 911.5 c 128,-1,8
 464 883 464 883 479 847 c 0,9,10
 486 831 486 831 482 818.5 c 128,-1,11
 478 806 478 806 465 794 c 1,12,13
 445 779 445 779 429.5 786 c 128,-1,14
 414 793 414 793 403 813 c 1,15,16
 393 837 393 837 379.5 856 c 128,-1,17
 366 875 366 875 351 887 c 0,18,19
 314 915 314 915 269 915 c 0,20,21
 210 915 210 915 167 885 c 1,22,23
 153 871 153 871 142 853 c 128,-1,24
 131 835 131 835 129 817 c 0,25,26
 120 761 120 761 160 735 c 0,27,28
 186 718 186 718 214 703 c 128,-1,29
 242 688 242 688 269 677 c 0,30,31
 313 658 313 658 350.5 637.5 c 128,-1,32
 388 617 388 617 420 593 c 0,33,34
 482 545 482 545 482 451 c 0,35,36
 482 443 482 443 482 434.5 c 128,-1,37
 482 426 482 426 481 418 c 0,38,39
 481 417 481 417 480.5 416 c 128,-1,40
 480 415 480 415 480 414 c 2,41,-1
 480 412 l 1,42,43
 472 356 472 356 437 316 c 1,44,45
 458 292 458 292 470 259 c 128,-1,46
 482 226 482 226 482 188 c 2,47,-1
 482 181 l 2,48,49
 482 171 482 171 482 162.5 c 128,-1,50
 482 154 482 154 480 146 c 1,51,-1
 480 147 l 1,52,53
 473 109 473 109 454 77.5 c 128,-1,54
 435 46 435 46 403 21 c 0,55,56
 348 -21 348 -21 256 -21 c 0,57,58
 179 -21 179 -21 127 15 c 1,59,60
 69 60 69 60 43 129 c 0,61,62
 31 161 31 161 59 184 c 1,63,64
 79 196 79 196 92.5 190.5 c 128,-1,65
 106 185 106 185 115 171 c 1,66,67
 126 144 126 144 139.5 122.5 c 128,-1,68
 153 101 153 101 170 90 c 1,69,70
 206 60 206 60 256 60 c 0,71,72
 285 60 285 60 310.5 68 c 128,-1,73
 336 76 336 76 359 91 c 1,74,75
 375 106 375 106 385 124 c 128,-1,76
 395 142 395 142 397 162 c 0,77,78
 398 169 398 169 398.5 175.5 c 128,-1,79
 399 182 399 182 399 187 c 0,80,81
 399 243 399 243 360 270 c 0,82,83
 330 290 330 290 298.5 306 c 128,-1,84
 267 322 267 322 240 336 c 1,85,86
 201 353 201 353 165 373 c 128,-1,87
 129 393 129 393 101 412 c 0,88,89
 45 452 45 452 45 533 c 0,90,91
 45 538 45 538 45 546 c 128,-1,92
 45 554 45 554 46 564 c 0,93,94
 53 628 53 628 100 675 c 1,95,96
 74 695 74 695 59.5 725.5 c 128,-1,97
 45 756 45 756 45 796 c 0,98,99
 45 804 45 804 45 811 c 128,-1,100
 45 818 45 818 46 825 c 1,101,-1
 46 831 l 1,0,1
360 356 m 1,102,103
 366 360 366 360 368 362 c 1,104,105
 371 360 371 360 374 358.5 c 128,-1,106
 377 357 377 357 380 355 c 1,107,-1
 356 352 l 1,108,-1
 360 356 l 1,102,103
269 414 m 1,109,110
 298 400 298 400 323 387 c 128,-1,111
 348 374 348 374 368 362 c 1,112,113
 394 387 394 387 397 425 c 0,114,115
 398 433 398 433 398.5 439.5 c 128,-1,116
 399 446 399 446 399 451 c 0,117,118
 399 505 399 505 360 534 c 1,119,-1
 360 533 l 1,120,121
 297 573 297 573 239 599 c 0,122,123
 227 605 227 605 213.5 611.5 c 128,-1,124
 200 618 200 618 188 625 c 0,125,126
 181 629 181 629 181.5 629 c 128,-1,127
 182 629 182 629 176 632 c 1,128,-1
 167 622 l 1,129,130
 133 593 133 593 129 553 c 1,131,132
 124 524 124 524 133 503.5 c 128,-1,133
 142 483 142 483 161 469 c 1,134,-1
 160 470 l 1,135,136
 187 453 187 453 214 439 c 128,-1,137
 241 425 241 425 269 414 c 1,109,110
EndSplineSet
EndChar
StartChar: dieresis
Encoding: 168 168 63
Width: 300
Flags: W
LayerCount: 2
Back
Fore
SplineSet
156 737 m 256,0,1
 156 769 156 769 175.5 791 c 128,-1,2
 195 813 195 813 223 813 c 0,3,4
 252 813 252 813 271.5 791 c 128,-1,5
 291 769 291 769 291 737 c 256,6,7
 291 705 291 705 271.5 683 c 128,-1,8
 252 661 252 661 223 661 c 0,9,10
 195 661 195 661 175.5 683 c 128,-1,11
 156 705 156 705 156 737 c 256,0,1
7 737 m 256,12,13
 7 769 7 769 26.5 791 c 128,-1,14
 46 813 46 813 74 813 c 0,15,16
 103 813 103 813 122.5 791 c 128,-1,17
 142 769 142 769 142 737 c 256,18,19
 142 705 142 705 122.5 683 c 128,-1,20
 103 661 103 661 74 661 c 0,21,22
 46 661 46 661 26.5 683 c 128,-1,23
 7 705 7 705 7 737 c 256,12,13
EndSplineSet
EndChar
StartChar: copyright
Encoding: 169 169 243
Width: 1684
VWidth: 3000
Flags: W
LayerCount: 2
Back
Fore
SplineSet
1150.5 379.5 m 1,0,1
 1101 258 1101 258 1021.5 193.5 c 1,2,-1
 1023 193.5 l 1,3,4
 979.5 159 979.5 159 928.5 142.5 c 128,-1,5
 877.5 126 877.5 126 819 126 c 0,6,7
 607.5 126 607.5 126 517.5 313.5 c 1,8,9
 435 492 435 492 435 735 c 0,10,11
 435 873 435 873 459 983.25 c 128,-1,12
 483 1093.5 483 1093.5 529.5 1173 c 1,13,14
 580.5 1255.5 580.5 1255.5 654 1300.5 c 128,-1,15
 727.5 1345.5 727.5 1345.5 819 1345.5 c 0,16,17
 876 1345.5 876 1345.5 927 1329 c 128,-1,18
 978 1312.5 978 1312.5 1021.5 1278 c 0,19,20
 1063.5 1246.5 1063.5 1246.5 1094.25 1199.25 c 128,-1,21
 1125 1152 1125 1152 1150.5 1090.5 c 1,22,-1
 1149 1092 l 1,23,24
 1171.5 1033.5 1171.5 1033.5 1113 1012.5 c 1,25,-1
 1114.5 1012.5 l 1,26,27
 1056 991.5 1056 991.5 1035 1047 c 0,28,29
 999 1137 999 1137 945 1182 c 1,30,-1
 946.5 1180.5 l 1,31,32
 894 1222.5 894 1222.5 819 1222.5 c 0,33,34
 696 1222.5 696 1222.5 633 1111.5 c 0,35,36
 595.5 1045.5 595.5 1045.5 576 952.5 c 128,-1,37
 556.5 859.5 556.5 859.5 556.5 735 c 0,38,39
 556.5 636 556.5 636 573.75 543.75 c 128,-1,40
 591 451.5 591 451.5 621 381 c 1,41,42
 651 316.5 651 316.5 700.5 282 c 128,-1,43
 750 247.5 750 247.5 819 247.5 c 0,44,45
 891 247.5 891 247.5 945 289.5 c 0,46,47
 972 310.5 972 310.5 994.5 345 c 128,-1,48
 1017 379.5 1017 379.5 1035 423 c 1,49,50
 1045.5 444 1045.5 444 1067.25 455.25 c 128,-1,51
 1089 466.5 1089 466.5 1114.5 457.5 c 1,52,53
 1170 433.5 1170 433.5 1150.5 379.5 c 1,0,1
825 1501.5 m 0,54,55
 1144.5 1501.5 1144.5 1501.5 1368 1278 c 0,56,57
 1593 1053 1593 1053 1593 735 c 0,58,59
 1593 415.5 1593 415.5 1368 193.5 c 1,60,61
 1144.5 -30 1144.5 -30 825 -30 c 0,62,63
 510 -30 510 -30 283.5 193.5 c 1,64,65
 60 420 60 420 60 735 c 256,66,67
 60 1050 60 1050 283.5 1278 c 1,68,69
 510 1501.5 510 1501.5 825 1501.5 c 0,54,55
1281 1191 m 0,70,71
 1093.5 1378.5 1093.5 1378.5 825 1378.5 c 0,72,73
 558 1378.5 558 1378.5 370.5 1191 c 0,74,75
 181.5 1002 181.5 1002 181.5 735 c 0,76,77
 181.5 469.5 181.5 469.5 370.5 280.5 c 256,78,79
 559.5 91.5 559.5 91.5 825 91.5 c 0,80,81
 1092 91.5 1092 91.5 1281 280.5 c 1,82,83
 1470 466.5 1470 466.5 1470 735 c 256,84,85
 1470 1003.5 1470 1003.5 1281 1191 c 0,70,71
EndSplineSet
EndChar
StartChar: guillemotleft
Encoding: 171 171 173
Width: 762
VWidth: 3000
Flags: W
LayerCount: 2
Back
Fore
SplineSet
300 370.5 m 1,0,-1
 589.5 745.5 l 1,1,2
 609 766.5 609 766.5 631.5 771 c 128,-1,3
 654 775.5 654 775.5 676.5 759 c 1,4,5
 697.5 738 697.5 738 699 716.25 c 128,-1,6
 700.5 694.5 700.5 694.5 687 675 c 0,7,8
 625.5 595.5 625.5 595.5 569.25 522.75 c 128,-1,9
 513 450 513 450 451.5 370.5 c 1,10,11
 510 295.5 510 295.5 570 219.75 c 128,-1,12
 630 144 630 144 687 67.5 c 1,13,14
 717 24 717 24 676.5 -19.5 c 1,15,16
 628.5 -54 628.5 -54 589.5 -9 c 1,17,-1
 300 370.5 l 1,0,-1
43.5 370.5 m 1,18,-1
 333 745.5 l 1,19,20
 352.5 766.5 352.5 766.5 375 771 c 128,-1,21
 397.5 775.5 397.5 775.5 420 759 c 1,22,23
 441 738 441 738 442.5 716.25 c 128,-1,24
 444 694.5 444 694.5 430.5 675 c 0,25,26
 369 595.5 369 595.5 312.75 522.75 c 128,-1,27
 256.5 450 256.5 450 195 370.5 c 1,28,29
 253.5 295.5 253.5 295.5 313.5 219.75 c 128,-1,30
 373.5 144 373.5 144 430.5 67.5 c 1,31,32
 460.5 24 460.5 24 420 -19.5 c 1,33,34
 372 -54 372 -54 333 -9 c 1,35,-1
 43.5 370.5 l 1,18,-1
EndSplineSet
EndChar
StartChar: logicalnot
Encoding: 172 172 237
Width: 951
VWidth: 3000
Flags: W
LayerCount: 2
Back
Fore
SplineSet
736.5 286.5 m 1,0,1
 676.5 286.5 676.5 286.5 676.5 349.5 c 2,2,-1
 676.5 481.5 l 1,3,4
 553.5 481.5 553.5 481.5 436.5 482.25 c 128,-1,5
 319.5 483 319.5 483 195 483 c 0,6,7
 129 483 129 483 133.5 546 c 1,8,9
 133.5 607.5 133.5 607.5 195 607.5 c 2,10,-1
 738 607.5 l 1,11,12
 795 603 795 603 802.5 547.5 c 1,13,-1
 801 349.5 l 2,14,15
 801 318 801 318 785.25 300.75 c 128,-1,16
 769.5 283.5 769.5 283.5 736.5 286.5 c 1,0,1
EndSplineSet
EndChar
StartChar: uni00AD
Encoding: 173 173 236
Width: 951
VWidth: 3000
Flags: W
LayerCount: 2
Back
Fore
SplineSet
195 483 m 2,0,1
 129 483 129 483 133.5 546 c 1,2,3
 133.5 607.5 133.5 607.5 195 607.5 c 2,4,-1
 744 607.5 l 1,5,6
 804 603 804 603 804 543 c 0,7,8
 804 477 804 477 744 481.5 c 1,9,-1
 195 483 l 2,0,1
EndSplineSet
EndChar
StartChar: registered
Encoding: 174 174 240
Width: 939
VWidth: 3000
Flags: W
LayerCount: 2
Back
Fore
SplineSet
583.5 1057.5 m 1,0,1
 552 1030.5 552 1030.5 499.5 1023 c 1,2,3
 529.5 990 529.5 990 559.5 958.5 c 128,-1,4
 589.5 927 589.5 927 619.5 894 c 0,5,6
 636 877.5 636 877.5 635.25 858.75 c 128,-1,7
 634.5 840 634.5 840 615 826.5 c 1,8,9
 576 790.5 576 790.5 540 829.5 c 2,10,-1
 435 937.5 l 1,11,-1
 435 861 l 2,12,13
 435 813 435 813 381 813 c 256,14,15
 327 813 327 813 327 861 c 2,16,-1
 327 1278 l 2,17,18
 327 1327.5 327 1327.5 384 1327.5 c 2,19,-1
 457.5 1327.5 l 2,20,21
 535.5 1327.5 535.5 1327.5 583.5 1287 c 1,22,23
 609 1261.5 609 1261.5 621.75 1234.5 c 128,-1,24
 634.5 1207.5 634.5 1207.5 634.5 1173 c 0,25,26
 634.5 1137 634.5 1137 621.75 1109.25 c 128,-1,27
 609 1081.5 609 1081.5 583.5 1057.5 c 1,0,1
475.5 1501.5 m 0,28,29
 655.5 1501.5 655.5 1501.5 777 1375.5 c 1,30,31
 901.5 1255.5 901.5 1255.5 901.5 1074 c 256,32,33
 901.5 892.5 901.5 892.5 777 772.5 c 1,34,35
 655.5 648 655.5 648 475.5 648 c 256,36,37
 295.5 648 295.5 648 174 772.5 c 1,38,39
 48 895.5 48 895.5 48 1074 c 0,40,41
 48 1254 48 1254 174 1375.5 c 1,42,43
 297 1501.5 297 1501.5 475.5 1501.5 c 0,28,29
691.5 1291.5 m 1,44,45
 603 1378.5 603 1378.5 475.5 1378.5 c 0,46,47
 346.5 1378.5 346.5 1378.5 259.5 1291.5 c 1,48,49
 169.5 1198.5 169.5 1198.5 169.5 1074 c 0,50,51
 169.5 948 169.5 948 259.5 858 c 0,52,53
 348 769.5 348 769.5 475.5 769.5 c 0,54,55
 600 769.5 600 769.5 691.5 858 c 1,56,57
 780 949.5 780 949.5 780 1074 c 0,58,59
 780 1200 780 1200 691.5 1291.5 c 1,44,45
435 1225.5 m 1,60,-1
 435 1122 l 1,61,-1
 457.5 1122 l 2,62,63
 477 1122 477 1122 490.5 1124.25 c 128,-1,64
 504 1126.5 504 1126.5 511.5 1134 c 1,65,66
 525 1143 525 1143 525 1173 c 0,67,68
 525 1200 525 1200 510 1215 c 1,69,70
 502.5 1219.5 502.5 1219.5 488.25 1222.5 c 128,-1,71
 474 1225.5 474 1225.5 457.5 1225.5 c 2,72,-1
 435 1225.5 l 1,60,-1
EndSplineSet
EndChar
StartChar: macron
Encoding: 175 175 248
Width: 783
VWidth: 3000
Flags: W
LayerCount: 2
Back
Fore
SplineSet
114 1044 m 2,0,1
 48 1044 48 1044 52.5 1107 c 1,2,3
 52.5 1168.5 52.5 1168.5 114 1168.5 c 2,4,-1
 663 1168.5 l 1,5,6
 723 1164 723 1164 723 1104 c 0,7,8
 723 1038 723 1038 663 1042.5 c 1,9,-1
 114 1044 l 2,0,1
EndSplineSet
EndChar
StartChar: degree
Encoding: 176 176 235
Width: 589
VWidth: 3000
Flags: W
LayerCount: 2
Back
Fore
SplineSet
166.5 1248 m 256,0,1
 166.5 1221 166.5 1221 176.25 1197.75 c 128,-1,2
 186 1174.5 186 1174.5 203.25 1157.25 c 128,-1,3
 220.5 1140 220.5 1140 243.75 1130.25 c 128,-1,4
 267 1120.5 267 1120.5 292.5 1120.5 c 0,5,6
 319.5 1120.5 319.5 1120.5 342.75 1130.25 c 128,-1,7
 366 1140 366 1140 383.25 1157.25 c 128,-1,8
 400.5 1174.5 400.5 1174.5 411 1197.75 c 128,-1,9
 421.5 1221 421.5 1221 421.5 1248 c 256,10,11
 421.5 1275 421.5 1275 411 1298.25 c 128,-1,12
 400.5 1321.5 400.5 1321.5 383.25 1338.75 c 128,-1,13
 366 1356 366 1356 342.75 1365.75 c 128,-1,14
 319.5 1375.5 319.5 1375.5 292.5 1375.5 c 0,15,16
 267 1375.5 267 1375.5 243.75 1365.75 c 128,-1,17
 220.5 1356 220.5 1356 203.25 1338.75 c 128,-1,18
 186 1321.5 186 1321.5 176.25 1298.25 c 128,-1,19
 166.5 1275 166.5 1275 166.5 1248 c 256,0,1
43.5 1248 m 0,20,21
 43.5 1299 43.5 1299 63 1344.75 c 128,-1,22
 82.5 1390.5 82.5 1390.5 116.25 1425 c 128,-1,23
 150 1459.5 150 1459.5 195 1479 c 128,-1,24
 240 1498.5 240 1498.5 292.5 1498.5 c 0,25,26
 343.5 1498.5 343.5 1498.5 389.25 1479 c 128,-1,27
 435 1459.5 435 1459.5 469.5 1425 c 128,-1,28
 504 1390.5 504 1390.5 523.5 1344.75 c 128,-1,29
 543 1299 543 1299 543 1248 c 0,30,31
 543 1195.5 543 1195.5 523.5 1149.75 c 128,-1,32
 504 1104 504 1104 469.5 1070.25 c 128,-1,33
 435 1036.5 435 1036.5 389.25 1017 c 128,-1,34
 343.5 997.5 343.5 997.5 292.5 997.5 c 0,35,36
 240 997.5 240 997.5 195 1017 c 128,-1,37
 150 1036.5 150 1036.5 116.25 1070.25 c 128,-1,38
 82.5 1104 82.5 1104 63 1149.75 c 128,-1,39
 43.5 1195.5 43.5 1195.5 43.5 1248 c 0,20,21
EndSplineSet
EndChar
StartChar: plusminus
Encoding: 177 177 246
Width: 951
VWidth: 3000
Flags: W
LayerCount: 2
Back
Fore
SplineSet
195 187.5 m 2,0,1
 129 187.5 129 187.5 133.5 250.5 c 1,2,3
 133.5 312 133.5 312 195 312 c 2,4,-1
 744 312 l 1,5,6
 804 307.5 804 307.5 804 246 c 0,7,8
 804 181.5 804 181.5 744 186 c 1,9,-1
 195 187.5 l 2,0,1
804 666 m 0,10,11
 804 601.5 804 601.5 742.5 606 c 1,12,-1
 528 606 l 1,13,-1
 528 394.5 l 2,14,15
 528 364.5 528 364.5 512.25 347.25 c 128,-1,16
 496.5 330 496.5 330 463.5 333 c 1,17,18
 405 333 405 333 405 394.5 c 2,19,-1
 405 606 l 1,20,21
 355.5 606 355.5 606 299.25 606.75 c 128,-1,22
 243 607.5 243 607.5 195 607.5 c 0,23,24
 129 607.5 129 607.5 133.5 670.5 c 1,25,26
 133.5 730.5 133.5 730.5 195 730.5 c 2,27,-1
 405 730.5 l 1,28,-1
 405 943.5 l 1,29,30
 406.5 1003.5 406.5 1003.5 469.5 1003.5 c 0,31,32
 531 1003.5 531 1003.5 529.5 943.5 c 0,33,34
 529.5 883.5 529.5 883.5 528.75 837 c 128,-1,35
 528 790.5 528 790.5 528 730.5 c 1,36,-1
 744 730.5 l 1,37,38
 804 729 804 729 804 666 c 0,10,11
EndSplineSet
EndChar

StartChar: twosuperior
Encoding: 178 178 197
Width: 382
Flags: W
LayerCount: 2
Fore
SplineSet
4 776 m 0,0,1
 4 865 4 865 53 929 c 0,2,3
 107 998 107 998 185 998 c 0,4,5
 264 998 264 998 318 929 c 0,6,7
 367 867 367 867 367 776 c 0,8,9
 367 725 367 725 351 684 c 1,10,-1
 351 685 l 1,11,12
 333 637 333 637 303 607 c 2,13,-1
 147 446 l 1,14,-1
 324 446 l 2,15,16
 367 446 367 446 367 404 c 0,17,18
 367 361 367 361 324 361 c 2,19,-1
 46 361 l 2,20,21
 4 361 4 361 4 404 c 0,22,23
 4 419 4 419 14 432 c 1,24,25
 46 465 46 465 79 498.5 c 128,-1,26
 112 532 112 532 144 565 c 1,27,-1
 143 565 l 1,28,29
 191 616 191 616 241 666 c 0,30,31
 251 676 251 676 258 688.5 c 128,-1,32
 265 701 265 701 271 714 c 1,33,-1
 270 713 l 1,34,35
 282 747 282 747 282 776 c 0,36,37
 282 803 282 803 273 828.5 c 128,-1,38
 264 854 264 854 249 877 c 1,39,40
 222 912 222 912 185 912 c 0,41,42
 147 912 147 912 122 877 c 0,43,44
 106 855 106 855 97.5 830 c 128,-1,45
 89 805 89 805 89 776 c 0,46,47
 89 733 89 733 46 733 c 0,48,49
 4 733 4 733 4 776 c 0,0,1
EndSplineSet
EndChar

StartChar: threesuperior
Encoding: 179 179 198
Width: 382
Flags: W
LayerCount: 2
Fore
SplineSet
4 817 m 0,0,1
 4 893 4 893 57 946 c 256,2,3
 110 999 110 999 185 999 c 0,4,5
 259 999 259 999 313 946 c 1,6,7
 367 890 367 890 367 817 c 256,8,9
 367 744 367 744 313 690 c 0,10,11
 311 688 311 688 309 687 c 128,-1,12
 307 686 307 686 306 684 c 0,13,14
 303 681 303 681 304 681 c 1,15,16
 303 680 303 680 302 680 c 2,17,-1
 313 669 l 2,18,19
 367 616 367 616 367 542 c 0,20,21
 367 469 367 469 313 415 c 0,22,23
 260 362 260 362 185 362 c 0,24,25
 112 362 112 362 57 415 c 1,26,27
 4 470 4 470 4 542 c 0,28,29
 4 586 4 586 46 586 c 0,30,31
 89 586 89 586 89 542 c 0,32,33
 89 503 89 503 117 475 c 1,34,-1
 117 476 l 1,35,36
 149 447 149 447 185 447 c 0,37,38
 224 447 224 447 254 474 c 1,39,-1
 253 474 l 1,40,41
 282 506 282 506 282 542 c 0,42,43
 282 579 282 579 254 609 c 1,44,45
 224 637 224 637 185 637 c 0,46,47
 142 637 142 637 142 681 c 0,48,49
 142 723 142 723 185 723 c 0,50,51
 224 723 224 723 254 750 c 1,52,53
 282 778 282 778 282 817 c 0,54,55
 282 855 282 855 254 885 c 1,56,57
 225 913 225 913 185 913 c 256,58,59
 145 913 145 913 116 884 c 0,60,61
 89 857 89 857 89 817 c 0,62,63
 89 775 89 775 46 775 c 0,64,65
 4 775 4 775 4 817 c 0,0,1
EndSplineSet
EndChar
StartChar: acute
Encoding: 180 180 67
Width: 450
VWidth: 3000
Flags: W
LayerCount: 2
Back
Fore
SplineSet
130.5 979.5 m 2,0,1
 81 951 81 951 49.5 1003.5 c 0,2,3
 18 1054.5 18 1054.5 70.5 1086 c 2,4,-1
 309 1228.5 l 2,5,6
 360 1260 360 1260 393 1207.5 c 0,7,8
 408 1182 408 1182 402.75 1160.25 c 128,-1,9
 397.5 1138.5 397.5 1138.5 370.5 1123.5 c 1,10,-1
 372 1125 l 1,11,-1
 130.5 979.5 l 2,0,1
EndSplineSet
EndChar
StartChar: mu
Encoding: 181 181 191
Width: 521
Flags: W
LayerCount: 2
Back
Fore
SplineSet
116 246 m 2,0,1
 116 153 116 153 154 103 c 0,2,3
 187 60 187 60 255 60 c 0,4,5
 287 60 287 60 313.5 71.5 c 128,-1,6
 340 83 340 83 357 103 c 1,7,8
 375 128 375 128 385 164 c 128,-1,9
 395 200 395 200 395 246 c 2,10,-1
 395 473 l 2,11,12
 395 514 395 514 436 514 c 256,13,14
 477 514 477 514 477 473 c 2,15,-1
 477 19 l 2,16,17
 477 -21 477 -21 436 -21 c 256,18,19
 395 -21 395 -21 395 19 c 2,20,-1
 395 25 l 1,21,22
 342 -21 342 -21 255 -21 c 0,23,24
 169 -21 169 -21 116 25 c 1,25,-1
 116 -439 l 2,26,27
 116 -480 116 -480 74 -480 c 0,28,29
 34 -480 34 -480 34 -439 c 2,30,-1
 34 473 l 2,31,32
 34 514 34 514 74 514 c 0,33,34
 116 514 116 514 116 473 c 2,35,-1
 116 246 l 2,0,1
EndSplineSet
EndChar
StartChar: paragraph
Encoding: 182 182 190
Width: 816
VWidth: 3000
Flags: W
LayerCount: 2
Back
Fore
SplineSet
750 1501.5 m 2,0,1
 810 1501.5 810 1501.5 810 1440 c 256,2,3
 810 1378.5 810 1378.5 750 1378.5 c 2,4,-1
 630 1378.5 l 1,5,-1
 630 28.5 l 2,6,7
 630 -31.5 630 -31.5 567 -31.5 c 0,8,9
 507 -31.5 507 -31.5 507 28.5 c 2,10,-1
 507 1378.5 l 1,11,-1
 324 1378.5 l 1,12,-1
 324 28.5 l 2,13,14
 324 -31.5 324 -31.5 262.5 -31.5 c 256,15,16
 201 -31.5 201 -31.5 201 28.5 c 2,17,-1
 201 864 l 1,18,19
 126 879 126 879 76.5 948 c 0,20,21
 15 1032 15 1032 15 1179 c 0,22,23
 15 1324.5 15 1324.5 76.5 1408.5 c 0,24,25
 106.5 1452 106.5 1452 149.25 1474.5 c 128,-1,26
 192 1497 192 1497 246 1500 c 1,27,-1
 750 1501.5 l 2,0,1
EndSplineSet
EndChar
StartChar: periodcentered
Encoding: 183 183 180
Width: 303
VWidth: 3000
Flags: W
LayerCount: 2
Back
Fore
SplineSet
49.5 673.5 m 256,0,1
 49.5 721.5 49.5 721.5 78.75 755.25 c 128,-1,2
 108 789 108 789 150 789 c 0,3,4
 193.5 789 193.5 789 222.75 755.25 c 128,-1,5
 252 721.5 252 721.5 252 673.5 c 256,6,7
 252 625.5 252 625.5 222.75 592.5 c 128,-1,8
 193.5 559.5 193.5 559.5 150 559.5 c 0,9,10
 108 559.5 108 559.5 78.75 592.5 c 128,-1,11
 49.5 625.5 49.5 625.5 49.5 673.5 c 256,0,1
EndSplineSet
EndChar
StartChar: cedilla
Encoding: 184 184 154
Width: 246
VWidth: 3000
Flags: W
LayerCount: 2
Back
Fore
SplineSet
171 102 m 1,0,1
 162 73.5 162 73.5 158.25 56.25 c 128,-1,2
 154.5 39 154.5 39 153 31.5 c 2,3,-1
 151.5 25.5 l 2,4,5
 150 24 150 24 150 22.5 c 2,6,-1
 150 19.5 l 1,7,8
 196.5 31.5 196.5 31.5 225 -12 c 1,9,-1
 223.5 -10.5 l 1,10,11
 253.5 -52.5 253.5 -52.5 253.5 -106.5 c 0,12,13
 253.5 -157.5 253.5 -157.5 232.5 -208.5 c 0,14,15
 216 -250.5 216 -250.5 184.5 -308.25 c 128,-1,16
 153 -366 153 -366 106.5 -435 c 0,17,18
 72 -486 72 -486 18 -453 c 1,19,20
 -3 -436.5 -3 -436.5 -8.25 -414.75 c 128,-1,21
 -13.5 -393 -13.5 -393 1.5 -369 c 0,22,23
 43.5 -306 43.5 -306 73.5 -255.75 c 128,-1,24
 103.5 -205.5 103.5 -205.5 117 -165 c 0,25,26
 120 -153 120 -153 123 -141.75 c 128,-1,27
 126 -130.5 126 -130.5 127.5 -127.5 c 1,28,29
 114 -132 114 -132 102 -135 c 128,-1,30
 90 -138 90 -138 76.5 -138 c 0,31,32
 54 -138 54 -138 39.75 -130.5 c 128,-1,33
 25.5 -123 25.5 -123 9 -106.5 c 1,34,35
 -10.5 -72 -10.5 -72 -2.25 -41.25 c 128,-1,36
 6 -10.5 6 -10.5 18 24 c 2,37,-1
 31.5 60 l 1,38,-1
 30 57 l 1,39,-1
 39 102 l 1,40,-1
 171 102 l 1,0,1
EndSplineSet
EndChar
StartChar: onesuperior
Encoding: 185 185 199
Width: 190
VWidth: 3000
Flags: W
LayerCount: 2
Back
Fore
SplineSet
157.5 609 m 2,0,1
 157.5 544.5 157.5 544.5 91.5 544.5 c 0,2,3
 28.5 544.5 28.5 544.5 28.5 609 c 2,4,-1
 28.5 1437 l 2,5,6
 28.5 1501.5 28.5 1501.5 91.5 1501.5 c 0,7,8
 157.5 1501.5 157.5 1501.5 157.5 1437 c 2,9,-1
 157.5 609 l 2,0,1
EndSplineSet
EndChar
StartChar: guillemotright
Encoding: 187 187 174
Width: 762
VWidth: 3000
Flags: W
LayerCount: 2
Back
Fore
SplineSet
460.5 369 m 1,0,-1
 171 -6 l 1,1,2
 151.5 -27 151.5 -27 129 -32.25 c 128,-1,3
 106.5 -37.5 106.5 -37.5 84 -19.5 c 1,4,5
 63 1.5 63 1.5 61.5 23.25 c 128,-1,6
 60 45 60 45 73.5 64.5 c 0,7,8
 135 144 135 144 191.25 216.75 c 128,-1,9
 247.5 289.5 247.5 289.5 309 369 c 1,10,11
 250.5 444 250.5 444 190.5 520.5 c 128,-1,12
 130.5 597 130.5 597 73.5 672 c 1,13,14
 43.5 715.5 43.5 715.5 84 759 c 1,15,16
 130.5 792 130.5 792 169.5 747 c 1,17,-1
 460.5 369 l 1,0,-1
717 369 m 1,18,-1
 427.5 -6 l 2,19,20
 409.5 -27 409.5 -27 386.25 -32.25 c 128,-1,21
 363 -37.5 363 -37.5 340.5 -19.5 c 1,22,23
 319.5 1.5 319.5 1.5 318 23.25 c 128,-1,24
 316.5 45 316.5 45 330 64.5 c 0,25,26
 391.5 144 391.5 144 447.75 216.75 c 128,-1,27
 504 289.5 504 289.5 565.5 369 c 1,28,29
 507 444 507 444 447 520.5 c 128,-1,30
 387 597 387 597 330 672 c 1,31,32
 300 715.5 300 715.5 340.5 759 c 1,33,34
 388.5 793.5 388.5 793.5 426 747 c 2,35,-1
 717 369 l 1,18,-1
EndSplineSet
EndChar
StartChar: onequarter
Encoding: 188 188 201
Width: 1206
VWidth: 3000
Flags: W
LayerCount: 2
Back
Fore
SplineSet
936 508.5 m 1,0,-1
 1063.5 508.5 l 2,1,2
 1128 508.5 1128 508.5 1128 444 c 0,3,4
 1128 381 1128 381 1063.5 381 c 2,5,-1
 936 381 l 1,6,-1
 936 46.5 l 2,7,8
 936 -19.5 936 -19.5 873 -19.5 c 256,9,10
 810 -19.5 810 -19.5 810 46.5 c 2,11,-1
 810 381 l 1,12,-1
 648 381 l 1,13,14
 612 385.5 612 385.5 586.5 420 c 1,15,-1
 619.5 879 l 2,16,17
 624 937.5 624 937.5 688.5 937.5 c 1,18,19
 718.5 934.5 718.5 934.5 732.75 913.5 c 128,-1,20
 747 892.5 747 892.5 747 867 c 1,21,22
 738 765 738 765 733.5 673.5 c 0,23,24
 732 649.5 732 649.5 730.5 630.75 c 128,-1,25
 729 612 729 612 726.75 593.25 c 128,-1,26
 724.5 574.5 724.5 574.5 723 554.25 c 128,-1,27
 721.5 534 721.5 534 720 508.5 c 1,28,-1
 810 508.5 l 1,29,-1
 810 873 l 2,30,31
 810 937.5 810 937.5 873 937.5 c 256,32,33
 936 937.5 936 937.5 936 873 c 2,34,-1
 936 508.5 l 1,0,-1
181.5 36 m 1,35,-1
 181.5 37.5 l 1,36,37
 154.5 -19.5 154.5 -19.5 99 9 c 1,38,-1
 100.5 9 l 1,39,40
 75 21 75 21 67.5 42.75 c 128,-1,41
 60 64.5 60 64.5 72 90 c 0,42,43
 235.5 432 235.5 432 404.25 778.5 c 128,-1,44
 573 1125 573 1125 736.5 1467 c 1,45,46
 753 1494 753 1494 772.5 1502.25 c 128,-1,47
 792 1510.5 792 1510.5 819 1494 c 1,48,49
 874.5 1465.5 874.5 1465.5 847.5 1411.5 c 2,50,-1
 181.5 36 l 1,35,-1
204 609 m 2,51,52
 204 544.5 204 544.5 136.5 544.5 c 0,53,54
 73.5 544.5 73.5 544.5 73.5 609 c 2,55,-1
 73.5 1437 l 2,56,57
 73.5 1501.5 73.5 1501.5 136.5 1501.5 c 0,58,59
 204 1501.5 204 1501.5 204 1437 c 2,60,-1
 204 609 l 2,51,52
EndSplineSet
EndChar

StartChar: onehalf
Encoding: 189 189 202
Width: 774
Flags: W
LayerCount: 2
Fore
SplineSet
121 24 m 1,0,-1
 121 25 l 1,1,2
 102 -13 102 -13 66 6 c 1,3,-1
 67 6 l 1,4,5
 50 14 50 14 45 28.5 c 128,-1,6
 40 43 40 43 48 60 c 0,7,8
 157 288 157 288 269.5 519 c 128,-1,9
 382 750 382 750 491 978 c 1,10,11
 502 996 502 996 515 1001.5 c 128,-1,12
 528 1007 528 1007 546 996 c 1,13,14
 583 977 583 977 565 941 c 2,15,-1
 121 24 l 1,0,-1
143 406 m 2,16,17
 143 363 143 363 99 363 c 0,18,19
 57 363 57 363 57 406 c 2,20,-1
 57 958 l 2,21,22
 57 1001 57 1001 99 1001 c 0,23,24
 143 1001 143 1001 143 958 c 2,25,-1
 143 406 l 2,16,17
359 403 m 0,26,27
 359 448 359 448 372 486 c 128,-1,28
 385 524 385 524 408 556 c 1,29,30
 463 625 463 625 541 625 c 0,31,32
 620 625 620 625 674 556 c 0,33,34
 723 492 723 492 723 403 c 0,35,36
 723 378 723 378 719 354.5 c 128,-1,37
 715 331 715 331 707 311 c 1,38,-1
 707 312 l 1,39,40
 689 263 689 263 658 234 c 1,41,-1
 503 73 l 1,42,-1
 680 73 l 2,43,44
 723 73 723 73 723 31 c 0,45,46
 723 -13 723 -13 680 -13 c 2,47,-1
 402 -13 l 2,48,49
 359 -13 359 -13 359 31 c 0,50,51
 359 39 359 39 362 46 c 128,-1,52
 365 53 365 53 370 59 c 0,53,54
 402 92 402 92 435 125.5 c 128,-1,55
 468 159 468 159 500 192 c 1,56,-1
 499 192 l 1,57,58
 547 243 547 243 597 293 c 0,59,60
 606 303 606 303 613.5 315.5 c 128,-1,61
 621 328 621 328 627 341 c 1,62,-1
 626 340 l 1,63,64
 637 375 637 375 637 403 c 0,65,66
 637 430 637 430 628.5 455.5 c 128,-1,67
 620 481 620 481 605 504 c 1,68,69
 576 539 576 539 541 539 c 0,70,71
 503 539 503 539 478 504 c 0,72,73
 462 482 462 482 453.5 457 c 128,-1,74
 445 432 445 432 445 403 c 0,75,76
 445 360 445 360 402 360 c 256,77,78
 359 360 359 360 359 403 c 0,26,27
EndSplineSet
EndChar
StartChar: threequarters
Encoding: 190 190 200
Width: 1459
VWidth: 3000
Flags: W
LayerCount: 2
Back
Fore
SplineSet
57 1228.5 m 0,0,1
 57 1339.5 57 1339.5 136.5 1422 c 1,2,3
 216 1501.5 216 1501.5 330 1501.5 c 0,4,5
 438 1501.5 438 1501.5 522 1422 c 1,6,7
 603 1336.5 603 1336.5 603 1228.5 c 0,8,9
 603 1122 603 1122 522 1038 c 0,10,11
 516 1032 516 1032 510 1029 c 1,12,13
 505.5 1024.5 505.5 1024.5 507 1024.5 c 1,14,15
 505.5 1023 505.5 1023 504 1023 c 1,16,17
 507 1020 507 1020 513 1014.75 c 128,-1,18
 519 1009.5 519 1009.5 522 1006.5 c 0,19,20
 603 925.5 603 925.5 603 816 c 0,21,22
 603 709.5 603 709.5 522 625.5 c 1,23,24
 438 544.5 438 544.5 330 544.5 c 256,25,26
 222 544.5 222 544.5 138 625.5 c 1,27,28
 57 706.5 57 706.5 57 816 c 0,29,30
 57 880.5 57 880.5 120 880.5 c 0,31,32
 186 880.5 186 880.5 186 816 c 0,33,34
 186 756 186 756 228 715.5 c 1,35,-1
 228 717 l 1,36,37
 276 673.5 276 673.5 330 673.5 c 0,38,39
 388.5 673.5 388.5 673.5 432 714 c 1,40,-1
 430.5 714 l 1,41,42
 474 762 474 762 474 816 c 0,43,44
 474 871.5 474 871.5 432 916.5 c 1,45,46
 391.5 957 391.5 957 330 957 c 0,47,48
 265.5 957 265.5 957 265.5 1024.5 c 0,49,50
 265.5 1087.5 265.5 1087.5 330 1087.5 c 0,51,52
 388.5 1087.5 388.5 1087.5 432 1128 c 1,53,54
 474 1170 474 1170 474 1228.5 c 0,55,56
 474 1285.5 474 1285.5 432 1330.5 c 1,57,58
 390 1372.5 390 1372.5 330 1372.5 c 256,59,60
 270 1372.5 270 1372.5 226.5 1329 c 0,61,62
 186 1290 186 1290 186 1228.5 c 0,63,64
 186 1165.5 186 1165.5 120 1165.5 c 0,65,66
 57 1165.5 57 1165.5 57 1228.5 c 0,0,1
1182 508.5 m 1,67,-1
 1309.5 508.5 l 2,68,69
 1374 508.5 1374 508.5 1374 444 c 0,70,71
 1374 381 1374 381 1309.5 381 c 2,72,-1
 1182 381 l 1,73,-1
 1182 46.5 l 2,74,75
 1182 -19.5 1182 -19.5 1119 -19.5 c 256,76,77
 1056 -19.5 1056 -19.5 1056 46.5 c 2,78,-1
 1056 381 l 1,79,-1
 894 381 l 1,80,81
 858 385.5 858 385.5 832.5 420 c 1,82,-1
 865.5 879 l 1,83,84
 871.5 937.5 871.5 937.5 934.5 937.5 c 1,85,86
 964.5 934.5 964.5 934.5 978.75 913.5 c 128,-1,87
 993 892.5 993 892.5 993 867 c 1,88,89
 984 765 984 765 979.5 673.5 c 0,90,91
 978 649.5 978 649.5 976.5 630.75 c 128,-1,92
 975 612 975 612 972.75 593.25 c 128,-1,93
 970.5 574.5 970.5 574.5 969 554.25 c 128,-1,94
 967.5 534 967.5 534 966 508.5 c 1,95,-1
 1056 508.5 l 1,96,-1
 1056 873 l 2,97,98
 1056 937.5 1056 937.5 1119 937.5 c 256,99,100
 1182 937.5 1182 937.5 1182 873 c 2,101,-1
 1182 508.5 l 1,67,-1
427.5 36 m 1,102,-1
 427.5 37.5 l 1,103,104
 400.5 -19.5 400.5 -19.5 345 9 c 1,105,-1
 346.5 9 l 1,106,107
 321 21 321 21 313.5 42.75 c 128,-1,108
 306 64.5 306 64.5 318 90 c 0,109,110
 481.5 432 481.5 432 650.25 778.5 c 128,-1,111
 819 1125 819 1125 982.5 1467 c 1,112,113
 999 1494 999 1494 1018.5 1502.25 c 128,-1,114
 1038 1510.5 1038 1510.5 1065 1494 c 1,115,116
 1119 1465.5 1119 1465.5 1095 1411.5 c 1,117,-1
 427.5 36 l 1,102,-1
EndSplineSet
EndChar
StartChar: questiondown
Encoding: 191 191 204
Width: 964
VWidth: 3000
Flags: W
LayerCount: 2
Back
Fore
SplineSet
880.5 -369 m 1,0,1
 855 -442.5 855 -442.5 814.5 -499.5 c 128,-1,2
 774 -556.5 774 -556.5 724.5 -595.5 c 256,3,4
 675 -634.5 675 -634.5 613.5 -654.75 c 128,-1,5
 552 -675 552 -675 480 -675 c 0,6,7
 399 -675 399 -675 327.75 -651.75 c 128,-1,8
 256.5 -628.5 256.5 -628.5 199.5 -585 c 0,9,10
 67.5 -484.5 67.5 -484.5 60 -315 c 0,11,12
 57 -232.5 57 -232.5 70.5 -167.25 c 128,-1,13
 84 -102 84 -102 117 -55.5 c 0,14,15
 148.5 -9 148.5 -9 183 28.5 c 128,-1,16
 217.5 66 217.5 66 256.5 97.5 c 1,17,18
 292.5 129 292.5 129 324.75 164.25 c 128,-1,19
 357 199.5 357 199.5 384 240 c 0,20,21
 405 270 405 270 417 321 c 128,-1,22
 429 372 429 372 429 444 c 0,23,24
 429 460.5 429 460.5 428.25 477 c 128,-1,25
 427.5 493.5 427.5 493.5 426 510 c 1,26,27
 427.5 535.5 427.5 535.5 441.75 554.25 c 128,-1,28
 456 573 456 573 484.5 574.5 c 0,29,30
 544.5 579 544.5 579 549 516 c 0,31,32
 550.5 496.5 550.5 496.5 551.25 477 c 128,-1,33
 552 457.5 552 457.5 552 439.5 c 0,34,35
 552 270 552 270 489 177 c 0,36,37
 454.5 127.5 454.5 127.5 415.5 84 c 128,-1,38
 376.5 40.5 376.5 40.5 334.5 6 c 1,39,40
 306 -19.5 306 -19.5 276.75 -53.25 c 128,-1,41
 247.5 -87 247.5 -87 222 -118.5 c 1,42,43
 183 -174 183 -174 183 -289.5 c 0,44,45
 183 -300 183 -300 183 -309.75 c 128,-1,46
 183 -319.5 183 -319.5 184.5 -331.5 c 1,47,-1
 184.5 -330 l 1,48,49
 198 -432 198 -432 273 -487.5 c 1,50,51
 357 -552 357 -552 480 -552 c 0,52,53
 580.5 -552 580.5 -552 651 -499.5 c 1,54,-1
 649.5 -499.5 l 1,55,56
 685.5 -469.5 685.5 -469.5 714.75 -426 c 128,-1,57
 744 -382.5 744 -382.5 766.5 -325.5 c 1,58,-1
 766.5 -327 l 1,59,60
 789 -265.5 789 -265.5 847.5 -292.5 c 1,61,62
 903 -310.5 903 -310.5 880.5 -367.5 c 1,63,-1
 880.5 -369 l 1,0,1
579 738 m 256,64,65
 579 690 579 690 549.75 656.25 c 128,-1,66
 520.5 622.5 520.5 622.5 478.5 622.5 c 0,67,68
 435 622.5 435 622.5 405 656.25 c 128,-1,69
 375 690 375 690 375 738 c 256,70,71
 375 786 375 786 405 819 c 128,-1,72
 435 852 435 852 478.5 852 c 0,73,74
 520.5 852 520.5 852 549.75 819 c 128,-1,75
 579 786 579 786 579 738 c 256,64,65
EndSplineSet
EndChar

StartChar: AE
Encoding: 198 198 110
Width: 912
Flags: W
LayerCount: 2
Fore
SplineSet
19 -13 m 1,0,1
 -19 5 -19 5 -1 42 c 0,2,3
 114 280 114 280 227 515.5 c 128,-1,4
 340 751 340 751 454 989 c 0,5,6
 467 1015 467 1015 496 1012 c 1,7,-1
 839 1012 l 2,8,9
 880 1012 880 1012 880 971 c 0,10,11
 880 929 880 929 839 929 c 2,12,-1
 536 929 l 1,13,-1
 536 520 l 1,14,-1
 839 520 l 2,15,16
 880 520 880 520 880 478 c 0,17,18
 880 437 880 437 839 437 c 2,19,-1
 536 437 l 1,20,-1
 536 60 l 1,21,-1
 839 60 l 2,22,23
 880 60 880 60 880 19 c 0,24,25
 880 -21 880 -21 839 -21 c 2,26,-1
 494 -21 l 2,27,28
 453 -21 453 -21 453 19 c 2,29,-1
 453 437 l 1,30,-1
 280 437 l 1,31,32
 229 331 229 331 176 221 c 128,-1,33
 123 111 123 111 73 6 c 1,34,-1
 73 7 l 1,35,36
 56 -31 56 -31 18 -13 c 1,37,-1
 19 -13 l 1,0,1
453 520 m 1,38,-1
 453 794 l 1,39,40
 420 725 420 725 388.5 659.5 c 128,-1,41
 357 594 357 594 320 520 c 1,42,-1
 453 520 l 1,38,-1
EndSplineSet
EndChar
StartChar: Eth
Encoding: 208 208 166
Width: 931
VWidth: 3000
Flags: W
LayerCount: 2
Back
Fore
SplineSet
385.5 1518 m 2,0,1
 622.5 1518 622.5 1518 748.5 1303.5 c 0,2,3
 811.5 1195.5 811.5 1195.5 840 1052.25 c 128,-1,4
 868.5 909 868.5 909 868.5 744 c 0,5,6
 868.5 576 868.5 576 840 432 c 128,-1,7
 811.5 288 811.5 288 748.5 183 c 1,8,9
 624 -31.5 624 -31.5 385.5 -31.5 c 2,10,-1
 111 -31.5 l 2,11,12
 49.5 -31.5 49.5 -31.5 49.5 28.5 c 2,13,-1
 49.5 663 l 1,14,15
 19.5 664.5 19.5 664.5 3.75 681 c 128,-1,16
 -12 697.5 -12 697.5 -9 729 c 1,17,18
 -7.5 786 -7.5 786 49.5 789 c 1,19,-1
 49.5 1456.5 l 2,20,21
 49.5 1518 49.5 1518 111 1518 c 2,22,-1
 385.5 1518 l 2,0,1
174 663 m 1,23,-1
 174 90 l 1,24,-1
 385.5 90 l 2,25,26
 552 90 552 90 643.5 244.5 c 0,27,28
 697.5 334.5 697.5 334.5 720.75 462 c 128,-1,29
 744 589.5 744 589.5 744 744 c 0,30,31
 744 891 744 891 720 1021.5 c 128,-1,32
 696 1152 696 1152 643.5 1242 c 1,33,34
 598.5 1314 598.5 1314 533.25 1353.75 c 128,-1,35
 468 1393.5 468 1393.5 385.5 1393.5 c 2,36,-1
 174 1393.5 l 1,37,-1
 174 789 l 1,38,-1
 609 789 l 1,39,40
 669 784.5 669 784.5 669 723 c 0,41,42
 669 657 669 657 609 661.5 c 1,43,-1
 174 663 l 1,23,-1
EndSplineSet
EndChar

StartChar: multiply
Encoding: 215 215 158
Width: 417
Flags: W
LayerCount: 2
Fore
SplineSet
262 362 m 1,0,-1
 361 262 l 2,1,2
 391 231 391 231 360 203 c 1,3,-1
 361 205 l 1,4,5
 332 175 332 175 303 204 c 2,6,-1
 203 304 l 1,7,8
 177 279 177 279 153.5 254.5 c 128,-1,9
 130 230 130 230 104 206 c 0,10,11
 90 192 90 192 74 192 c 128,-1,12
 58 192 58 192 44 207 c 1,13,-1
 46 206 l 1,14,15
 16 234 16 234 45 263 c 2,16,-1
 144 362 l 1,17,18
 119 388 119 388 94 412.5 c 128,-1,19
 69 437 69 437 43 462 c 1,20,21
 16 491 16 491 46 521 c 0,22,23
 76 550 76 550 104 520 c 0,24,25
 110 514 110 514 123.5 500.5 c 128,-1,26
 137 487 137 487 152 471.5 c 128,-1,27
 167 456 167 456 181.5 442 c 128,-1,28
 196 428 196 428 203 421 c 1,29,-1
 304 522 l 1,30,31
 333 548 333 548 363 520 c 1,32,33
 391 491 391 491 362 462 c 2,34,-1
 262 362 l 1,0,-1
EndSplineSet
EndChar
StartChar: Thorn
Encoding: 222 222 165
Width: 865
VWidth: 3000
Flags: W
LayerCount: 2
Back
Fore
SplineSet
171 336 m 1,0,-1
 171 28.5 l 2,1,2
 171 -31.5 171 -31.5 108 -31.5 c 0,3,4
 46.5 -31.5 46.5 -31.5 46.5 28.5 c 2,5,-1
 45 1461 l 2,6,7
 45 1522.5 45 1522.5 108 1522.5 c 0,8,9
 169.5 1522.5 169.5 1522.5 169.5 1461 c 2,10,-1
 169.5 1173 l 1,11,-1
 354 1173 l 2,12,13
 562.5 1173 562.5 1173 682.5 1065 c 1,14,15
 804 952.5 804 952.5 804 754.5 c 0,16,17
 804 552 804 552 682.5 444 c 1,18,19
 565.5 336 565.5 336 354 336 c 2,20,-1
 171 336 l 1,0,-1
171 1050 m 1,21,-1
 171 459 l 1,22,-1
 354 459 l 2,23,24
 517.5 459 517.5 459 598.5 535.5 c 256,25,26
 679.5 612 679.5 612 679.5 754.5 c 0,27,28
 679.5 895.5 679.5 895.5 598.5 972 c 1,29,30
 516 1047 516 1047 351 1050 c 1,31,-1
 171 1050 l 1,21,-1
EndSplineSet
EndChar
StartChar: germandbls
Encoding: 223 223 178
Width: 762
VWidth: 3000
Flags: W
LayerCount: 2
Back
Fore
SplineSet
174 28.5 m 2,0,1
 174 -31.5 174 -31.5 111 -31.5 c 0,2,3
 51 -31.5 51 -31.5 51 28.5 c 2,4,-1
 51 1062 l 1,5,6
 54 1285.5 54 1285.5 140.25 1389.75 c 128,-1,7
 226.5 1494 226.5 1494 382.5 1494 c 0,8,9
 541.5 1494 541.5 1494 622.5 1380 c 1,10,-1
 622.5 1381.5 l 1,11,12
 699 1273.5 699 1273.5 699 1119 c 0,13,14
 699 994.5 699 994.5 643.5 895.5 c 0,15,16
 627 865.5 627 865.5 609 842.25 c 128,-1,17
 591 819 591 819 573 802.5 c 1,18,19
 588 792 588 792 602.25 778.5 c 128,-1,20
 616.5 765 616.5 765 628.5 753 c 0,21,22
 730.5 646.5 730.5 646.5 730.5 406.5 c 0,23,24
 730.5 292.5 730.5 292.5 711 210.75 c 128,-1,25
 691.5 129 691.5 129 655.5 75.75 c 128,-1,26
 619.5 22.5 619.5 22.5 568.5 -3.75 c 128,-1,27
 517.5 -30 517.5 -30 454.5 -31.5 c 1,28,29
 373.5 -31.5 373.5 -31.5 308.25 23.25 c 128,-1,30
 243 78 243 78 211.5 174 c 0,31,32
 192 232.5 192 232.5 247.5 252 c 0,33,34
 304.5 273 304.5 273 325.5 222 c 1,35,36
 340.5 157.5 340.5 157.5 374.25 124.5 c 128,-1,37
 408 91.5 408 91.5 454.5 91.5 c 0,38,39
 480 91.5 480 91.5 504.75 108.75 c 128,-1,40
 529.5 126 529.5 126 555 157.5 c 1,41,42
 580.5 193.5 580.5 193.5 594 256.5 c 128,-1,43
 607.5 319.5 607.5 319.5 607.5 406.5 c 0,44,45
 607.5 601.5 607.5 601.5 535.5 673.5 c 0,46,47
 468 741 468 741 366 741 c 0,48,49
 301.5 741 301.5 741 297 799.5 c 256,50,51
 292.5 858 292.5 858 364.5 862.5 c 1,52,53
 423 864 423 864 463.5 882.75 c 128,-1,54
 504 901.5 504 901.5 526.5 942 c 1,55,56
 552 984 552 984 564 1029 c 128,-1,57
 576 1074 576 1074 576 1119 c 0,58,59
 576 1174.5 576 1174.5 564.75 1221 c 128,-1,60
 553.5 1267.5 553.5 1267.5 529.5 1300.5 c 128,-1,61
 505.5 1333.5 505.5 1333.5 469.5 1352.25 c 128,-1,62
 433.5 1371 433.5 1371 382.5 1371 c 0,63,64
 280.5 1371 280.5 1371 228 1300.5 c 128,-1,65
 175.5 1230 175.5 1230 174 1062 c 1,66,-1
 174 28.5 l 2,0,1
EndSplineSet
EndChar
StartChar: aring
Encoding: 229 229 131
Width: 781
VWidth: 3000
Flags: W
LayerCount: 2
Back
Fore
SplineSet
441 1062 m 256,0,1
 441 1084.5 441 1084.5 425.25 1099.5 c 128,-1,2
 409.5 1114.5 409.5 1114.5 387 1114.5 c 0,3,4
 366 1114.5 366 1114.5 349.5 1099.5 c 128,-1,5
 333 1084.5 333 1084.5 333 1062 c 256,6,7
 333 1039.5 333 1039.5 349.5 1024.5 c 128,-1,8
 366 1009.5 366 1009.5 387 1009.5 c 0,9,10
 409.5 1009.5 409.5 1009.5 425.25 1024.5 c 128,-1,11
 441 1039.5 441 1039.5 441 1062 c 256,0,1
219 1062 m 0,12,13
 219 1096.5 219 1096.5 232.5 1127.25 c 128,-1,14
 246 1158 246 1158 268.5 1181.25 c 128,-1,15
 291 1204.5 291 1204.5 321.75 1218 c 128,-1,16
 352.5 1231.5 352.5 1231.5 387 1231.5 c 256,17,18
 421.5 1231.5 421.5 1231.5 451.5 1218 c 128,-1,19
 481.5 1204.5 481.5 1204.5 504 1181.25 c 128,-1,20
 526.5 1158 526.5 1158 540 1127.25 c 128,-1,21
 553.5 1096.5 553.5 1096.5 553.5 1062 c 0,22,23
 553.5 1026 553.5 1026 540 995.25 c 128,-1,24
 526.5 964.5 526.5 964.5 504 941.25 c 128,-1,25
 481.5 918 481.5 918 451.5 905.25 c 128,-1,26
 421.5 892.5 421.5 892.5 387 892.5 c 256,27,28
 352.5 892.5 352.5 892.5 321.75 905.25 c 128,-1,29
 291 918 291 918 268.5 941.25 c 128,-1,30
 246 964.5 246 964.5 232.5 995.25 c 128,-1,31
 219 1026 219 1026 219 1062 c 0,12,13
715.5 28.5 m 2,32,33
 715.5 -31.5 715.5 -31.5 654 -31.5 c 256,34,35
 592.5 -31.5 592.5 -31.5 592.5 28.5 c 2,36,-1
 592.5 37.5 l 1,37,38
 513 -31.5 513 -31.5 382.5 -31.5 c 0,39,40
 222 -31.5 222 -31.5 135 78 c 1,41,42
 51 180 51 180 51 369 c 0,43,44
 51 460.5 51 460.5 73.5 533.25 c 128,-1,45
 96 606 96 606 135 658.5 c 1,46,47
 178.5 712.5 178.5 712.5 241.5 741.75 c 128,-1,48
 304.5 771 304.5 771 382.5 771 c 0,49,50
 507 771 507 771 592.5 697.5 c 1,51,-1
 592.5 709.5 l 2,52,53
 592.5 771 592.5 771 654 771 c 256,54,55
 715.5 771 715.5 771 715.5 709.5 c 2,56,-1
 715.5 28.5 l 2,32,33
535.5 585 m 0,57,58
 486 649.5 486 649.5 382.5 649.5 c 0,59,60
 334.5 649.5 334.5 649.5 295.5 632.25 c 128,-1,61
 256.5 615 256.5 615 231 585 c 1,62,63
 204 549 204 549 189 494.25 c 128,-1,64
 174 439.5 174 439.5 174 369 c 0,65,66
 174 229.5 174 229.5 231 154.5 c 0,67,68
 280.5 90 280.5 90 382.5 90 c 0,69,70
 430.5 90 430.5 90 470.25 107.25 c 128,-1,71
 510 124.5 510 124.5 535.5 154.5 c 1,72,73
 562.5 192 562.5 192 577.5 246 c 128,-1,74
 592.5 300 592.5 300 592.5 369 c 0,75,76
 592.5 511.5 592.5 511.5 535.5 585 c 0,57,58
EndSplineSet
EndChar
StartChar: ae
Encoding: 230 230 61
Width: 1332
VWidth: 3000
Flags: W
LayerCount: 2
Back
Fore
SplineSet
87 567 m 1,0,1
 130.5 669 130.5 669 204 720 c 1,2,3
 282 769.5 282 769.5 388.5 769.5 c 0,4,5
 469.5 769.5 469.5 769.5 531 741.75 c 128,-1,6
 592.5 714 592.5 714 637.5 660 c 1,7,-1
 637.5 658.5 l 1,8,9
 643.5 652.5 643.5 652.5 648.75 644.25 c 128,-1,10
 654 636 654 636 658.5 628.5 c 1,11,12
 670.5 648 670.5 648 682.5 660 c 1,13,-1
 682.5 658.5 l 1,14,15
 769.5 771 769.5 771 930 771 c 256,16,17
 1090.5 771 1090.5 771 1179 658.5 c 1,18,19
 1263 555 1263 555 1263 369 c 0,20,21
 1263 309 1263 309 1201.5 309 c 2,22,-1
 723 309 l 1,23,24
 732 213 732 213 778.5 154.5 c 0,25,26
 828 90 828 90 930 90 c 0,27,28
 1002 90 1002 90 1047 121.5 c 0,29,30
 1090.5 151.5 1090.5 151.5 1116 214.5 c 1,31,32
 1128 240 1128 240 1148.25 249.75 c 128,-1,33
 1168.5 259.5 1168.5 259.5 1197 247.5 c 1,34,-1
 1195.5 249 l 1,35,36
 1252.5 228 1252.5 228 1231.5 171 c 1,37,38
 1210.5 120 1210.5 120 1181.25 81.75 c 128,-1,39
 1152 43.5 1152 43.5 1114.5 18 c 1,40,41
 1035 -31.5 1035 -31.5 930 -31.5 c 0,42,43
 771 -31.5 771 -31.5 682.5 78 c 0,44,45
 676.5 85.5 676.5 85.5 669.75 93 c 128,-1,46
 663 100.5 663 100.5 657 109.5 c 1,47,48
 651 100.5 651 100.5 647.25 93.75 c 128,-1,49
 643.5 87 643.5 87 637.5 79.5 c 0,50,51
 592.5 27 592.5 27 525 -3 c 128,-1,52
 457.5 -33 457.5 -33 370.5 -33 c 1,53,54
 90 -21 90 -21 39 196.5 c 1,55,56
 30 228 30 228 30 255 c 0,57,58
 30 427.5 30 427.5 280.5 430.5 c 1,59,-1
 597 430.5 l 1,60,61
 586.5 529.5 586.5 529.5 540 583.5 c 1,62,63
 490.5 649.5 490.5 649.5 388.5 649.5 c 0,64,65
 321 649.5 321 649.5 273 618 c 1,66,67
 228 586.5 228 586.5 202.5 523.5 c 0,68,69
 192 498 192 498 171.75 488.25 c 128,-1,70
 151.5 478.5 151.5 478.5 123 490.5 c 1,71,-1
 123 489 l 1,72,73
 67.5 511.5 67.5 511.5 87 567 c 1,0,1
540 153 m 1,74,75
 562.5 180 562.5 180 576 221.25 c 128,-1,76
 589.5 262.5 589.5 262.5 594 312 c 1,77,78
 516 312 516 312 438 313.5 c 128,-1,79
 360 315 360 315 280.5 315 c 1,80,81
 139.5 318 139.5 318 156 214.5 c 1,82,83
 171 102 171 102 373.5 90 c 1,84,85
 492 90 492 90 540 153 c 1,74,75
778.5 585 m 0,86,87
 756 556.5 756 556.5 741.75 519 c 128,-1,88
 727.5 481.5 727.5 481.5 723 430.5 c 1,89,-1
 1137 430.5 l 1,90,91
 1131 478.5 1131 478.5 1117.5 517.5 c 128,-1,92
 1104 556.5 1104 556.5 1083 585 c 1,93,94
 1057.5 615 1057.5 615 1017.75 632.25 c 128,-1,95
 978 649.5 978 649.5 930 649.5 c 0,96,97
 828 649.5 828 649.5 778.5 585 c 0,86,87
EndSplineSet
EndChar
StartChar: igrave
Encoding: 236 236 83
Width: 217
VWidth: 3000
Flags: W
LayerCount: 2
Back
Fore
SplineSet
168 28.5 m 2,0,1
 168 -31.5 168 -31.5 106.5 -31.5 c 256,2,3
 45 -31.5 45 -31.5 45 28.5 c 2,4,-1
 45 709.5 l 2,5,6
 45 771 45 771 106.5 771 c 256,7,8
 168 771 168 771 168 709.5 c 2,9,-1
 168 28.5 l 2,0,1
-43.5 1125 m 1,10,-1
 -42 1123.5 l 1,11,12
 -69 1138.5 -69 1138.5 -74.25 1160.25 c 128,-1,13
 -79.5 1182 -79.5 1182 -67.5 1207.5 c 1,14,15
 -33 1263 -33 1263 19.5 1228.5 c 1,16,-1
 258 1086 l 2,17,18
 309 1054.5 309 1054.5 279 1003.5 c 0,19,20
 247.5 951 247.5 951 195 979.5 c 1,21,-1
 -43.5 1125 l 1,10,-1
EndSplineSet
EndChar
StartChar: iacute
Encoding: 237 237 82
Width: 217
VWidth: 3000
Flags: W
LayerCount: 2
Back
Fore
SplineSet
168 28.5 m 2,0,1
 168 -31.5 168 -31.5 106.5 -31.5 c 256,2,3
 45 -31.5 45 -31.5 45 28.5 c 2,4,-1
 45 709.5 l 2,5,6
 45 771 45 771 106.5 771 c 256,7,8
 168 771 168 771 168 709.5 c 2,9,-1
 168 28.5 l 2,0,1
16.5 979.5 m 1,10,11
 -33 952.5 -33 952.5 -66 1003.5 c 1,12,13
 -96 1054.5 -96 1054.5 -43.5 1086 c 2,14,-1
 193.5 1228.5 l 2,15,16
 246 1260 246 1260 279 1207.5 c 1,17,18
 307.5 1152 307.5 1152 256.5 1123.5 c 1,19,-1
 258 1125 l 1,20,-1
 16.5 979.5 l 1,10,11
EndSplineSet
EndChar
StartChar: icircumflex
Encoding: 238 238 81
Width: 217
VWidth: 3000
Flags: W
LayerCount: 2
Back
Fore
SplineSet
168 28.5 m 2,0,1
 168 -31.5 168 -31.5 106.5 -31.5 c 256,2,3
 45 -31.5 45 -31.5 45 28.5 c 2,4,-1
 45 709.5 l 2,5,6
 45 771 45 771 106.5 771 c 256,7,8
 168 771 168 771 168 709.5 c 2,9,-1
 168 28.5 l 2,0,1
108 1209 m 1,10,-1
 286.5 1069.5 l 2,11,12
 307.5 1051.5 307.5 1051.5 312 1029 c 128,-1,13
 316.5 1006.5 316.5 1006.5 298.5 984 c 1,14,15
 256.5 942 256.5 942 216 973.5 c 0,16,17
 184.5 997.5 184.5 997.5 161.25 1015.5 c 128,-1,18
 138 1033.5 138 1033.5 108 1057.5 c 1,19,20
 81 1036.5 81 1036.5 53.25 1014 c 128,-1,21
 25.5 991.5 25.5 991.5 0 972 c 1,22,23
 -45 942 -45 942 -85.5 982.5 c 1,24,25
 -123 1029 -123 1029 -76.5 1068 c 1,26,-1
 108 1209 l 1,10,-1
EndSplineSet
EndChar
StartChar: idieresis
Encoding: 239 239 80
Width: 217
VWidth: 3000
Flags: W
LayerCount: 2
Back
Fore
SplineSet
168 28.5 m 2,0,1
 168 -31.5 168 -31.5 106.5 -31.5 c 256,2,3
 45 -31.5 45 -31.5 45 28.5 c 2,4,-1
 45 709.5 l 2,5,6
 45 771 45 771 106.5 771 c 256,7,8
 168 771 168 771 168 709.5 c 2,9,-1
 168 28.5 l 2,0,1
117 1105.5 m 256,10,11
 117 1153.5 117 1153.5 146.25 1186.5 c 128,-1,12
 175.5 1219.5 175.5 1219.5 219 1219.5 c 0,13,14
 261 1219.5 261 1219.5 291 1186.5 c 128,-1,15
 321 1153.5 321 1153.5 321 1105.5 c 256,16,17
 321 1057.5 321 1057.5 291 1024.5 c 128,-1,18
 261 991.5 261 991.5 219 991.5 c 0,19,20
 175.5 991.5 175.5 991.5 146.25 1024.5 c 128,-1,21
 117 1057.5 117 1057.5 117 1105.5 c 256,10,11
-106.5 1105.5 m 256,22,23
 -106.5 1153.5 -106.5 1153.5 -77.25 1186.5 c 128,-1,24
 -48 1219.5 -48 1219.5 -4.5 1219.5 c 0,25,26
 37.5 1219.5 37.5 1219.5 67.5 1186.5 c 128,-1,27
 97.5 1153.5 97.5 1153.5 97.5 1105.5 c 256,28,29
 97.5 1057.5 97.5 1057.5 67.5 1024.5 c 128,-1,30
 37.5 991.5 37.5 991.5 -4.5 991.5 c 0,31,32
 -48 991.5 -48 991.5 -77.25 1024.5 c 128,-1,33
 -106.5 1057.5 -106.5 1057.5 -106.5 1105.5 c 256,22,23
EndSplineSet
EndChar
StartChar: eth
Encoding: 240 240 167
Width: 783
VWidth: 3000
Flags: W
LayerCount: 2
Back
Fore
SplineSet
384 771 m 2,0,1
 382.5 771 382.5 771 382.5 771.75 c 128,-1,2
 382.5 772.5 382.5 772.5 381 772.5 c 0,3,4
 375 772.5 375 772.5 382.5 771 c 1,5,-1
 384 771 l 2,0,1
277.5 792 m 1,6,-1
 277.5 793.5 l 1,7,8
 232.5 748.5 232.5 748.5 189 793.5 c 0,9,10
 148.5 835.5 148.5 835.5 193.5 880.5 c 2,11,-1
 250.5 937.5 l 1,12,13
 231 960 231 960 212.25 982.5 c 128,-1,14
 193.5 1005 193.5 1005 175.5 1029 c 0,15,16
 141 1072.5 141 1072.5 180 1111.5 c 1,17,18
 226.5 1155 226.5 1155 268.5 1105.5 c 2,19,-1
 339 1021.5 l 1,20,21
 354 1035 354 1035 366.75 1048.5 c 128,-1,22
 379.5 1062 379.5 1062 394.5 1074 c 1,23,24
 436.5 1116 436.5 1116 478.5 1072.5 c 1,25,26
 525 1027.5 525 1027.5 478.5 984 c 2,27,-1
 417 924 l 1,28,29
 469.5 858 469.5 858 524.25 792 c 128,-1,30
 579 726 579 726 631.5 658.5 c 1,31,32
 715.5 555 715.5 555 715.5 369 c 0,33,34
 715.5 180 715.5 180 631.5 78 c 1,35,36
 544.5 -31.5 544.5 -31.5 382.5 -31.5 c 0,37,38
 222 -31.5 222 -31.5 135 78 c 1,39,40
 51 180 51 180 51 369 c 0,41,42
 51 460.5 51 460.5 73.5 533.25 c 128,-1,43
 96 606 96 606 135 658.5 c 1,44,45
 178.5 712.5 178.5 712.5 241.5 741.75 c 128,-1,46
 304.5 771 304.5 771 382.5 771 c 2,47,-1
 384 771 l 2,48,49
 391.5 771 391.5 771 388.5 771.75 c 128,-1,50
 385.5 772.5 385.5 772.5 381 772.5 c 1,51,52
 369 789 369 789 357 804.75 c 128,-1,53
 345 820.5 345 820.5 328.5 841.5 c 1,54,-1
 277.5 792 l 1,6,-1
382.5 649.5 m 0,55,56
 334.5 649.5 334.5 649.5 295.5 632.25 c 128,-1,57
 256.5 615 256.5 615 231 585 c 1,58,59
 204 549 204 549 189 494.25 c 128,-1,60
 174 439.5 174 439.5 174 369 c 0,61,62
 174 229.5 174 229.5 231 154.5 c 0,63,64
 280.5 90 280.5 90 382.5 90 c 0,65,66
 430.5 90 430.5 90 470.25 107.25 c 128,-1,67
 510 124.5 510 124.5 535.5 154.5 c 1,68,69
 562.5 192 562.5 192 577.5 246 c 128,-1,70
 592.5 300 592.5 300 592.5 369 c 0,71,72
 592.5 439.5 592.5 439.5 577.5 494.25 c 128,-1,73
 562.5 549 562.5 549 535.5 585 c 1,74,75
 525 595.5 525 595.5 520.5 601.5 c 0,76,77
 469.5 649.5 469.5 649.5 382.5 649.5 c 0,55,56
EndSplineSet
EndChar

StartChar: divide
Encoding: 247 247 164
Width: 634
Flags: W
LayerCount: 2
Fore
SplineSet
130 322 m 2,0,1
 86 322 86 322 89 364 c 1,2,3
 89 405 89 405 130 405 c 2,4,-1
 496 405 l 1,5,6
 536 402 536 402 536 362 c 0,7,8
 536 318 536 318 496 321 c 1,9,-1
 130 322 l 2,0,1
244 553 m 256,10,11
 244 585 244 585 263 607.5 c 128,-1,12
 282 630 282 630 311 630 c 0,13,14
 339 630 339 630 359 607.5 c 128,-1,15
 379 585 379 585 379 553 c 256,16,17
 379 521 379 521 359 499 c 128,-1,18
 339 477 339 477 311 477 c 0,19,20
 282 477 282 477 263 499 c 128,-1,21
 244 521 244 521 244 553 c 256,10,11
244 162 m 256,22,23
 244 194 244 194 263 216.5 c 128,-1,24
 282 239 282 239 311 239 c 0,25,26
 339 239 339 239 359 216.5 c 128,-1,27
 379 194 379 194 379 162 c 256,28,29
 379 130 379 130 359 108.5 c 128,-1,30
 339 87 339 87 311 87 c 0,31,32
 282 87 282 87 263 108.5 c 128,-1,33
 244 130 244 130 244 162 c 256,22,23
EndSplineSet
EndChar
StartChar: oslash
Encoding: 248 248 75
Width: 783
VWidth: 3000
Flags: W
LayerCount: 2
Back
Fore
SplineSet
135 658.5 m 1,0,1
 222 771 222 771 382.5 771 c 0,2,3
 516 771 516 771 601.5 693 c 1,4,5
 633 723 633 723 663 754.5 c 1,6,7
 705 792 705 792 748.5 754.5 c 1,8,9
 789 711 789 711 748.5 667.5 c 1,10,-1
 673.5 591 l 1,11,12
 696 544.5 696 544.5 705.75 490.5 c 128,-1,13
 715.5 436.5 715.5 436.5 715.5 369 c 0,14,15
 715.5 180 715.5 180 631.5 78 c 1,16,17
 544.5 -31.5 544.5 -31.5 382.5 -31.5 c 0,18,19
 310.5 -31.5 310.5 -31.5 253.5 -10.5 c 128,-1,20
 196.5 10.5 196.5 10.5 151.5 55.5 c 1,21,22
 139.5 43.5 139.5 43.5 127.5 30.75 c 128,-1,23
 115.5 18 115.5 18 103.5 7.5 c 0,24,25
 82.5 -13.5 82.5 -13.5 60.75 -12.75 c 128,-1,26
 39 -12 39 -12 19.5 6 c 0,27,28
 -27 48 -27 48 18 93 c 2,29,-1
 85.5 162 l 1,30,31
 69 204 69 204 60 258 c 128,-1,32
 51 312 51 312 51 369 c 0,33,34
 51 553.5 51 553.5 135 658.5 c 1,0,1
231 154.5 m 2,35,36
 232.5 151.5 232.5 151.5 234 150 c 128,-1,37
 235.5 148.5 235.5 148.5 237 145.5 c 1,38,39
 232.5 141 232.5 141 228 135.75 c 128,-1,40
 223.5 130.5 223.5 130.5 219 127.5 c 1,41,-1
 223.5 163.5 l 1,42,43
 228 157.5 228 157.5 228 157.5 c 1,44,-1
 231 154.5 l 2,35,36
579 493.5 m 1,45,46
 493.5 406.5 493.5 406.5 408 319.5 c 128,-1,47
 322.5 232.5 322.5 232.5 237 145.5 c 1,48,49
 286.5 90 286.5 90 382.5 90 c 0,50,51
 430.5 90 430.5 90 470.25 107.25 c 128,-1,52
 510 124.5 510 124.5 535.5 154.5 c 1,53,54
 562.5 192 562.5 192 577.5 246 c 128,-1,55
 592.5 300 592.5 300 592.5 369 c 0,56,57
 592.5 439.5 592.5 439.5 579 493.5 c 1,45,46
382.5 649.5 m 0,58,59
 334.5 649.5 334.5 649.5 295.5 632.25 c 128,-1,60
 256.5 615 256.5 615 231 585 c 1,61,62
 204 549 204 549 189 494.25 c 128,-1,63
 174 439.5 174 439.5 174 369 c 0,64,65
 174 339 174 339 175.5 312.75 c 128,-1,66
 177 286.5 177 286.5 183 262.5 c 1,67,68
 268.5 351 268.5 351 348.75 432 c 128,-1,69
 429 513 429 513 517.5 603 c 1,70,71
 469.5 649.5 469.5 649.5 382.5 649.5 c 0,58,59
EndSplineSet
EndChar

StartChar: Amacron
Encoding: 256 256 256
Width: 790
Flags: W
LayerCount: 2
Fore
SplineSet
258 437 m 1,0,1
 223 329 223 329 187.5 223 c 128,-1,2
 152 117 152 117 117 8 c 1,3,-1
 117 9 l 1,4,5
 105 -32 105 -32 66 -18 c 1,6,7
 30 -8 30 -8 38 27 c 1,8,-1
 349 983 l 2,9,10
 353 994 353 994 360 999.5 c 128,-1,11
 367 1005 367 1005 377 1010 c 1,12,13
 413 1021 413 1021 427 984 c 1,14,-1
 737 32 l 1,15,-1
 737 33 l 1,16,17
 751 -5 751 -5 711 -18 c 1,18,19
 672 -32 672 -32 658 7 c 1,20,-1
 518 437 l 1,21,-1
 258 437 l 1,0,1
388 837 m 1,22,23
 374 793 374 793 361.5 755 c 128,-1,24
 349 717 349 717 336.5 680 c 128,-1,25
 324 643 324 643 311.5 604.5 c 128,-1,26
 299 566 299 566 284 520 c 1,27,-1
 492 520 l 1,28,-1
 388 837 l 1,22,23
206 1190 m 2,29,30
 185 1190 185 1190 173.5 1200.5 c 128,-1,31
 162 1211 162 1211 164 1233 c 1,32,33
 164 1274 164 1274 206 1274 c 2,34,-1
 575 1274 l 1,35,36
 616 1271 616 1271 616 1230 c 0,37,38
 616 1186 616 1186 575 1189 c 1,39,-1
 206 1190 l 2,29,30
EndSplineSet
EndChar
StartChar: amacron
Encoding: 257 257 324
Width: 781
VWidth: 3000
Flags: W
LayerCount: 2
Back
Fore
SplineSet
715.5 28.5 m 2,0,1
 715.5 -31.5 715.5 -31.5 654 -31.5 c 256,2,3
 592.5 -31.5 592.5 -31.5 592.5 28.5 c 2,4,-1
 592.5 37.5 l 1,5,6
 513 -31.5 513 -31.5 382.5 -31.5 c 0,7,8
 222 -31.5 222 -31.5 135 78 c 1,9,10
 51 180 51 180 51 369 c 0,11,12
 51 460.5 51 460.5 73.5 533.25 c 128,-1,13
 96 606 96 606 135 658.5 c 1,14,15
 178.5 712.5 178.5 712.5 241.5 741.75 c 128,-1,16
 304.5 771 304.5 771 382.5 771 c 0,17,18
 507 771 507 771 592.5 697.5 c 1,19,-1
 592.5 709.5 l 2,20,21
 592.5 771 592.5 771 654 771 c 256,22,23
 715.5 771 715.5 771 715.5 709.5 c 2,24,-1
 715.5 28.5 l 2,0,1
535.5 585 m 0,25,26
 486 649.5 486 649.5 382.5 649.5 c 0,27,28
 334.5 649.5 334.5 649.5 295.5 632.25 c 128,-1,29
 256.5 615 256.5 615 231 585 c 1,30,31
 204 549 204 549 189 494.25 c 128,-1,32
 174 439.5 174 439.5 174 369 c 0,33,34
 174 229.5 174 229.5 231 154.5 c 0,35,36
 280.5 90 280.5 90 382.5 90 c 0,37,38
 430.5 90 430.5 90 470.25 107.25 c 128,-1,39
 510 124.5 510 124.5 535.5 154.5 c 1,40,41
 562.5 192 562.5 192 577.5 246 c 128,-1,42
 592.5 300 592.5 300 592.5 369 c 0,43,44
 592.5 511.5 592.5 511.5 535.5 585 c 0,25,26
111 1044 m 2,45,46
 45 1044 45 1044 49.5 1107 c 1,47,48
 49.5 1168.5 49.5 1168.5 111 1168.5 c 2,49,-1
 660 1168.5 l 1,50,51
 720 1164 720 1164 720 1104 c 0,52,53
 720 1038 720 1038 660 1042.5 c 1,54,-1
 111 1044 l 2,45,46
EndSplineSet
EndChar

StartChar: Abreve
Encoding: 258 258 264
Width: 790
Flags: W
LayerCount: 2
Fore
SplineSet
258 437 m 1,0,1
 223 329 223 329 187.5 223 c 128,-1,2
 152 117 152 117 117 8 c 1,3,-1
 117 9 l 1,4,5
 105 -32 105 -32 66 -18 c 1,6,7
 30 -8 30 -8 38 27 c 1,8,-1
 349 983 l 2,9,10
 353 994 353 994 360 999.5 c 128,-1,11
 367 1005 367 1005 377 1010 c 1,12,13
 413 1021 413 1021 427 984 c 1,14,-1
 737 32 l 1,15,-1
 737 33 l 1,16,17
 751 -5 751 -5 711 -18 c 1,18,19
 672 -32 672 -32 658 7 c 1,20,-1
 518 437 l 1,21,-1
 258 437 l 1,0,1
388 837 m 1,22,23
 374 793 374 793 361.5 755 c 128,-1,24
 349 717 349 717 336.5 680 c 128,-1,25
 324 643 324 643 311.5 604.5 c 128,-1,26
 299 566 299 566 284 520 c 1,27,-1
 492 520 l 1,28,-1
 388 837 l 1,22,23
333 1219 m 1,29,30
 366 1188 366 1188 389 1188 c 0,31,32
 414 1188 414 1188 444 1218 c 0,33,34
 472 1247 472 1247 502 1219 c 0,35,36
 532 1190 532 1190 503 1161 c 0,37,38
 449 1105 449 1105 389 1105 c 1,39,40
 332 1106 332 1106 275 1160 c 1,41,-1
 276 1160 l 1,42,43
 244 1189 244 1189 275 1219 c 0,44,45
 304 1246 304 1246 332 1220 c 1,46,-1
 333 1219 l 1,29,30
EndSplineSet
EndChar

StartChar: abreve
Encoding: 259 259 323
Width: 521
Flags: W
LayerCount: 2
Fore
SplineSet
477 19 m 2,0,1
 477 -21 477 -21 436 -21 c 256,2,3
 395 -21 395 -21 395 19 c 2,4,-1
 395 25 l 1,5,6
 342 -21 342 -21 255 -21 c 0,7,8
 148 -21 148 -21 90 52 c 1,9,10
 34 120 34 120 34 246 c 0,11,12
 34 307 34 307 49 355.5 c 128,-1,13
 64 404 64 404 90 439 c 1,14,15
 119 475 119 475 161 494.5 c 128,-1,16
 203 514 203 514 255 514 c 0,17,18
 338 514 338 514 395 465 c 1,19,-1
 395 473 l 2,20,21
 395 514 395 514 436 514 c 256,22,23
 477 514 477 514 477 473 c 2,24,-1
 477 19 l 2,0,1
357 390 m 0,25,26
 324 433 324 433 255 433 c 0,27,28
 223 433 223 433 197 421.5 c 128,-1,29
 171 410 171 410 154 390 c 1,30,31
 136 366 136 366 126 329.5 c 128,-1,32
 116 293 116 293 116 246 c 0,33,34
 116 153 116 153 154 103 c 0,35,36
 187 60 187 60 255 60 c 0,37,38
 287 60 287 60 313.5 71.5 c 128,-1,39
 340 83 340 83 357 103 c 1,40,41
 375 128 375 128 385 164 c 128,-1,42
 395 200 395 200 395 246 c 0,43,44
 395 341 395 341 357 390 c 0,25,26
200 725 m 2,45,46
 231 694 231 694 256 694 c 256,47,48
 281 694 281 694 310 724 c 0,49,50
 337 751 337 751 367 725 c 1,51,52
 397 696 397 696 368 667 c 0,53,54
 315 612 315 612 255 612 c 1,55,56
 199 613 199 613 142 666 c 1,57,-1
 143 666 l 1,58,59
 113 696 113 696 142 725 c 1,60,61
 172 750 172 750 199 726 c 1,62,-1
 200 725 l 2,45,46
EndSplineSet
EndChar
StartChar: Aogonek
Encoding: 260 260 263
Width: 800
Flags: W
LayerCount: 2
Back
Fore
SplineSet
713 -18 m 2,0,1
 711 -18 711 -18 710 -18.5 c 128,-1,2
 709 -19 709 -19 707 -19 c 1,3,4
 682 -35 682 -35 680 -60 c 0,5,6
 680 -69 680 -69 685.5 -77 c 128,-1,7
 691 -85 691 -85 710 -80 c 1,8,-1
 708 -80 l 1,9,10
 746 -67 746 -67 760 -104 c 256,11,12
 774 -141 774 -141 736 -157 c 1,13,14
 715 -164 715 -164 693 -164 c 0,15,16
 668 -164 668 -164 648 -151 c 1,17,-1
 648 -152 l 1,18,19
 619 -132 619 -132 607 -106 c 0,20,21
 597 -83 597 -83 599 -56 c 0,22,23
 601 -27 601 -27 614 -3 c 128,-1,24
 627 21 627 21 648 39 c 1,25,26
 616 141 616 141 583.5 237.5 c 128,-1,27
 551 334 551 334 518 437 c 1,28,-1
 258 437 l 1,29,30
 223 329 223 329 187.5 223 c 128,-1,31
 152 117 152 117 117 8 c 1,32,-1
 117 9 l 1,33,34
 106 -33 106 -33 66 -18 c 1,35,36
 30 -7 30 -7 38 27 c 1,37,-1
 349 983 l 1,38,39
 354 994 354 994 360.5 999.5 c 128,-1,40
 367 1005 367 1005 377 1010 c 1,41,42
 413 1021 413 1021 428 984 c 1,43,-1
 737 32 l 1,44,-1
 737 33 l 1,45,46
 751 -5 751 -5 711 -18 c 1,47,-1
 713 -18 l 2,0,1
388 837 m 1,48,49
 374 793 374 793 361.5 755 c 128,-1,50
 349 717 349 717 337 680 c 128,-1,51
 325 643 325 643 312.5 604.5 c 128,-1,52
 300 566 300 566 285 520 c 1,53,-1
 492 520 l 1,54,-1
 388 837 l 1,48,49
EndSplineSet
EndChar
StartChar: aogonek
Encoding: 261 261 325
Width: 521
Flags: W
LayerCount: 2
Back
Fore
SplineSet
458 -18 m 0,0,1
 430 -35 430 -35 429 -62 c 0,2,3
 429 -67 429 -67 433 -75 c 0,4,5
 435 -79 435 -79 440.5 -81 c 128,-1,6
 446 -83 446 -83 457 -79 c 1,7,-1
 456 -79 l 1,8,9
 495 -65 495 -65 508 -103 c 1,10,11
 516 -123 516 -123 509 -135 c 128,-1,12
 502 -147 502 -147 484 -155 c 0,13,14
 473 -160 473 -160 462.5 -161.5 c 128,-1,15
 452 -163 452 -163 442 -163 c 0,16,17
 416 -163 416 -163 398 -149 c 1,18,-1
 398 -150 l 1,19,20
 367 -131 367 -131 357 -105 c 1,21,-1
 358 -106 l 1,22,23
 352 -92 352 -92 350 -80 c 128,-1,24
 348 -68 348 -68 349 -56 c 1,25,26
 349 -21 349 -21 365 4 c 1,27,28
 319 -21 319 -21 255 -21 c 0,29,30
 148 -21 148 -21 90 52 c 1,31,32
 34 120 34 120 34 246 c 0,33,34
 34 307 34 307 49 355.5 c 128,-1,35
 64 404 64 404 90 439 c 1,36,37
 119 475 119 475 161 494.5 c 128,-1,38
 203 514 203 514 255 514 c 0,39,40
 338 514 338 514 396 465 c 1,41,-1
 396 473 l 2,42,43
 396 514 396 514 436 514 c 0,44,45
 477 514 477 514 477 473 c 2,46,-1
 477 19 l 1,47,48
 479 8 479 8 474 -2 c 128,-1,49
 469 -12 469 -12 458 -18 c 0,0,1
357 390 m 0,50,51
 324 433 324 433 255 433 c 0,52,53
 223 433 223 433 197 421.5 c 128,-1,54
 171 410 171 410 154 390 c 1,55,56
 136 366 136 366 126 329.5 c 128,-1,57
 116 293 116 293 116 246 c 0,58,59
 116 153 116 153 154 103 c 0,60,61
 187 60 187 60 255 60 c 0,62,63
 287 60 287 60 313.5 71.5 c 128,-1,64
 340 83 340 83 357 103 c 1,65,66
 375 128 375 128 385.5 164 c 128,-1,67
 396 200 396 200 396 246 c 0,68,69
 396 340 396 340 357 390 c 0,50,51
EndSplineSet
EndChar

StartChar: cacute
Encoding: 263 263 327
Width: 508
Flags: W
LayerCount: 2
Fore
SplineSet
456 114 m 1,0,1
 442 80 442 80 422.5 54.5 c 128,-1,2
 403 29 403 29 378 12 c 1,3,4
 325 -21 325 -21 255 -21 c 0,5,6
 149 -21 149 -21 89 52 c 0,7,8
 34 120 34 120 34 246 c 0,9,10
 34 307 34 307 48.5 355.5 c 128,-1,11
 63 404 63 404 89 439 c 1,12,13
 119 475 119 475 161 494.5 c 128,-1,14
 203 514 203 514 255 514 c 0,15,16
 326 514 326 514 378 478 c 1,17,-1
 378 479 l 1,18,19
 430 445 430 445 456 377 c 1,20,21
 462 357 462 357 457 345 c 128,-1,22
 452 333 452 333 432 325 c 0,23,24
 415 319 415 319 400.5 327 c 128,-1,25
 386 335 386 335 379 349 c 1,26,27
 362 391 362 391 333 412 c 1,28,29
 301 433 301 433 255 433 c 0,30,31
 223 433 223 433 197 421.5 c 128,-1,32
 171 410 171 410 154 390 c 1,33,34
 136 366 136 366 125.5 329.5 c 128,-1,35
 115 293 115 293 115 246 c 0,36,37
 115 154 115 154 154 103 c 0,38,39
 187 60 187 60 255 60 c 0,40,41
 303 60 303 60 333 81 c 0,42,43
 362 101 362 101 379 143 c 0,44,45
 386 160 386 160 400 166.5 c 128,-1,46
 414 173 414 173 433 165 c 1,47,-1
 432 166 l 1,48,49
 469 152 469 152 456 114 c 1,0,1
188 653 m 2,50,51
 155 634 155 634 134 669 c 0,52,53
 113 703 113 703 148 724 c 2,54,-1
 307 819 l 2,55,56
 341 840 341 840 363 805 c 0,57,58
 373 788 373 788 369.5 773.5 c 128,-1,59
 366 759 366 759 348 749 c 1,60,-1
 349 750 l 1,61,-1
 188 653 l 2,50,51
EndSplineSet
EndChar
StartChar: Ccircumflex
Encoding: 264 264 255
Width: 1026
VWidth: 3000
Flags: W
LayerCount: 2
Back
Fore
SplineSet
946.5 286.5 m 1,0,1
 918 211.5 918 211.5 875.25 150.75 c 128,-1,2
 832.5 90 832.5 90 784.5 51 c 1,3,4
 732 12 732 12 668.25 -9.75 c 128,-1,5
 604.5 -31.5 604.5 -31.5 534 -31.5 c 0,6,7
 294 -31.5 294 -31.5 171 183 c 1,8,9
 106.5 288 106.5 288 78.75 432 c 128,-1,10
 51 576 51 576 51 744 c 0,11,12
 51 909 51 909 78.75 1052.25 c 128,-1,13
 106.5 1195.5 106.5 1195.5 171 1303.5 c 1,14,15
 295.5 1518 295.5 1518 534 1518 c 0,16,17
 679.5 1518 679.5 1518 784.5 1435.5 c 0,18,19
 832.5 1396.5 832.5 1396.5 875.25 1332 c 128,-1,20
 918 1267.5 918 1267.5 946.5 1200 c 0,21,22
 970.5 1140 970.5 1140 910.5 1120.5 c 0,23,24
 853.5 1101 853.5 1101 831 1156.5 c 0,25,26
 807 1215 807 1215 776.25 1262.25 c 128,-1,27
 745.5 1309.5 745.5 1309.5 709.5 1338 c 0,28,29
 636 1393.5 636 1393.5 534 1393.5 c 0,30,31
 451.5 1393.5 451.5 1393.5 385.5 1353.75 c 128,-1,32
 319.5 1314 319.5 1314 276 1242 c 0,33,34
 223.5 1152 223.5 1152 199.5 1021.5 c 128,-1,35
 175.5 891 175.5 891 175.5 744 c 0,36,37
 175.5 589.5 175.5 589.5 198.75 462 c 128,-1,38
 222 334.5 222 334.5 276 244.5 c 1,39,40
 364.5 90 364.5 90 534 90 c 0,41,42
 633 90 633 90 709.5 148.5 c 0,43,44
 784.5 205.5 784.5 205.5 831 330 c 1,45,46
 843 357 843 357 861 366.75 c 128,-1,47
 879 376.5 879 376.5 909 366 c 1,48,49
 969 339 969 339 945 285 c 1,50,-1
 946.5 286.5 l 1,0,1
505.5 1951.5 m 1,51,-1
 687 1810.5 l 2,52,53
 708 1792.5 708 1792.5 712.5 1770 c 128,-1,54
 717 1747.5 717 1747.5 700.5 1723.5 c 1,55,56
 657 1681.5 657 1681.5 615 1713 c 0,57,58
 583.5 1738.5 583.5 1738.5 560.25 1755.75 c 128,-1,59
 537 1773 537 1773 505.5 1798.5 c 1,60,61
 480 1777.5 480 1777.5 451.5 1755 c 128,-1,62
 423 1732.5 423 1732.5 397.5 1711.5 c 1,63,64
 352.5 1680 352.5 1680 310.5 1722 c 1,65,66
 273 1770 273 1770 321 1809 c 1,67,-1
 505.5 1951.5 l 1,51,-1
EndSplineSet
EndChar
StartChar: ccircumflex
Encoding: 265 265 329
Width: 762
VWidth: 3000
Flags: W
LayerCount: 2
Back
Fore
SplineSet
684 171 m 1,0,1
 663 120 663 120 633.75 81.75 c 128,-1,2
 604.5 43.5 604.5 43.5 567 18 c 1,3,4
 487.5 -31.5 487.5 -31.5 382.5 -31.5 c 0,5,6
 223.5 -31.5 223.5 -31.5 133.5 78 c 0,7,8
 51 180 51 180 51 369 c 0,9,10
 51 460.5 51 460.5 72.75 533.25 c 128,-1,11
 94.5 606 94.5 606 133.5 658.5 c 1,12,13
 178.5 712.5 178.5 712.5 241.5 741.75 c 128,-1,14
 304.5 771 304.5 771 382.5 771 c 0,15,16
 489 771 489 771 567 717 c 1,17,-1
 567 718.5 l 1,18,19
 645 667.5 645 667.5 684 565.5 c 1,20,21
 693 535.5 693 535.5 685.5 517.5 c 128,-1,22
 678 499.5 678 499.5 648 487.5 c 0,23,24
 622.5 478.5 622.5 478.5 600.75 490.5 c 128,-1,25
 579 502.5 579 502.5 568.5 523.5 c 1,26,27
 543 586.5 543 586.5 499.5 618 c 1,28,29
 451.5 649.5 451.5 649.5 382.5 649.5 c 0,30,31
 334.5 649.5 334.5 649.5 295.5 632.25 c 128,-1,32
 256.5 615 256.5 615 231 585 c 1,33,34
 204 549 204 549 188.25 494.25 c 128,-1,35
 172.5 439.5 172.5 439.5 172.5 369 c 0,36,37
 172.5 231 172.5 231 231 154.5 c 0,38,39
 280.5 90 280.5 90 382.5 90 c 0,40,41
 454.5 90 454.5 90 499.5 121.5 c 0,42,43
 543 151.5 543 151.5 568.5 214.5 c 0,44,45
 579 240 579 240 600 249.75 c 128,-1,46
 621 259.5 621 259.5 649.5 247.5 c 1,47,-1
 648 249 l 1,48,49
 703.5 228 703.5 228 684 171 c 1,0,1
373.5 1209 m 1,50,-1
 552 1069.5 l 2,51,52
 574.5 1051.5 574.5 1051.5 578.25 1029 c 128,-1,53
 582 1006.5 582 1006.5 565.5 984 c 1,54,55
 523.5 942 523.5 942 481.5 973.5 c 0,56,57
 450 997.5 450 997.5 427.5 1015.5 c 128,-1,58
 405 1033.5 405 1033.5 373.5 1057.5 c 1,59,60
 348 1036.5 348 1036.5 320.25 1014 c 128,-1,61
 292.5 991.5 292.5 991.5 267 972 c 0,62,63
 222 940.5 222 940.5 180 982.5 c 1,64,65
 144 1029 144 1029 190.5 1068 c 1,66,-1
 373.5 1209 l 1,50,-1
EndSplineSet
EndChar
StartChar: Cdotaccent
Encoding: 266 266 265
Width: 684
Flags: W
LayerCount: 2
Back
Fore
SplineSet
631 191 m 1,0,1
 612 141 612 141 583.5 100.5 c 128,-1,2
 555 60 555 60 523 34 c 1,3,4
 488 8 488 8 445.5 -6.5 c 128,-1,5
 403 -21 403 -21 356 -21 c 0,6,7
 196 -21 196 -21 114 122 c 1,8,9
 71 192 71 192 52.5 288 c 128,-1,10
 34 384 34 384 34 496 c 0,11,12
 34 606 34 606 52.5 701.5 c 128,-1,13
 71 797 71 797 114 869 c 1,14,15
 197 1012 197 1012 356 1012 c 0,16,17
 453 1012 453 1012 523 957 c 0,18,19
 555 931 555 931 583.5 888 c 128,-1,20
 612 845 612 845 631 800 c 0,21,22
 647 760 647 760 607 747 c 0,23,24
 569 734 569 734 554 771 c 0,25,26
 538 810 538 810 517.5 841.5 c 128,-1,27
 497 873 497 873 473 892 c 0,28,29
 424 929 424 929 356 929 c 0,30,31
 301 929 301 929 257 902.5 c 128,-1,32
 213 876 213 876 184 828 c 0,33,34
 149 768 149 768 133 681 c 128,-1,35
 117 594 117 594 117 496 c 0,36,37
 117 393 117 393 132.5 308 c 128,-1,38
 148 223 148 223 184 163 c 1,39,40
 243 60 243 60 356 60 c 0,41,42
 422 60 422 60 473 99 c 0,43,44
 523 137 523 137 554 220 c 1,45,46
 562 238 562 238 574 244.5 c 128,-1,47
 586 251 586 251 606 244 c 1,48,49
 646 226 646 226 630 190 c 1,50,-1
 631 191 l 1,0,1
268 1231 m 256,51,52
 268 1263 268 1263 287.5 1286 c 128,-1,53
 307 1309 307 1309 336 1309 c 256,54,55
 365 1309 365 1309 385 1286 c 128,-1,56
 405 1263 405 1263 405 1231 c 256,57,58
 405 1199 405 1199 385 1176.5 c 128,-1,59
 365 1154 365 1154 336 1154 c 256,60,61
 307 1154 307 1154 287.5 1176.5 c 128,-1,62
 268 1199 268 1199 268 1231 c 256,51,52
EndSplineSet
EndChar
StartChar: cdotaccent
Encoding: 267 267 330
Width: 762
VWidth: 3000
Flags: W
LayerCount: 2
Back
Fore
SplineSet
684 171 m 1,0,1
 663 120 663 120 633.75 81.75 c 128,-1,2
 604.5 43.5 604.5 43.5 567 18 c 1,3,4
 487.5 -31.5 487.5 -31.5 382.5 -31.5 c 0,5,6
 223.5 -31.5 223.5 -31.5 133.5 78 c 0,7,8
 51 180 51 180 51 369 c 0,9,10
 51 460.5 51 460.5 72.75 533.25 c 128,-1,11
 94.5 606 94.5 606 133.5 658.5 c 1,12,13
 178.5 712.5 178.5 712.5 241.5 741.75 c 128,-1,14
 304.5 771 304.5 771 382.5 771 c 0,15,16
 489 771 489 771 567 717 c 1,17,-1
 567 718.5 l 1,18,19
 645 667.5 645 667.5 684 565.5 c 1,20,21
 693 535.5 693 535.5 685.5 517.5 c 128,-1,22
 678 499.5 678 499.5 648 487.5 c 0,23,24
 622.5 478.5 622.5 478.5 600.75 490.5 c 128,-1,25
 579 502.5 579 502.5 568.5 523.5 c 1,26,27
 543 586.5 543 586.5 499.5 618 c 1,28,29
 451.5 649.5 451.5 649.5 382.5 649.5 c 0,30,31
 334.5 649.5 334.5 649.5 295.5 632.25 c 128,-1,32
 256.5 615 256.5 615 231 585 c 1,33,34
 204 549 204 549 188.25 494.25 c 128,-1,35
 172.5 439.5 172.5 439.5 172.5 369 c 0,36,37
 172.5 231 172.5 231 231 154.5 c 0,38,39
 280.5 90 280.5 90 382.5 90 c 0,40,41
 454.5 90 454.5 90 499.5 121.5 c 0,42,43
 543 151.5 543 151.5 568.5 214.5 c 0,44,45
 579 240 579 240 600 249.75 c 128,-1,46
 621 259.5 621 259.5 649.5 247.5 c 1,47,-1
 648 249 l 1,48,49
 703.5 228 703.5 228 684 171 c 1,0,1
271.5 1105.5 m 256,50,51
 271.5 1153.5 271.5 1153.5 300.75 1186.5 c 128,-1,52
 330 1219.5 330 1219.5 372 1219.5 c 0,53,54
 415.5 1219.5 415.5 1219.5 444.75 1186.5 c 128,-1,55
 474 1153.5 474 1153.5 474 1105.5 c 256,56,57
 474 1057.5 474 1057.5 444.75 1024.5 c 128,-1,58
 415.5 991.5 415.5 991.5 372 991.5 c 0,59,60
 330 991.5 330 991.5 300.75 1024.5 c 128,-1,61
 271.5 1057.5 271.5 1057.5 271.5 1105.5 c 256,50,51
EndSplineSet
EndChar
StartChar: Ccaron
Encoding: 268 268 254
Width: 1026
VWidth: 3000
Flags: W
LayerCount: 2
Back
Fore
SplineSet
946.5 286.5 m 1,0,1
 918 211.5 918 211.5 875.25 150.75 c 128,-1,2
 832.5 90 832.5 90 784.5 51 c 1,3,4
 732 12 732 12 668.25 -9.75 c 128,-1,5
 604.5 -31.5 604.5 -31.5 534 -31.5 c 0,6,7
 294 -31.5 294 -31.5 171 183 c 1,8,9
 106.5 288 106.5 288 78.75 432 c 128,-1,10
 51 576 51 576 51 744 c 0,11,12
 51 909 51 909 78.75 1052.25 c 128,-1,13
 106.5 1195.5 106.5 1195.5 171 1303.5 c 1,14,15
 295.5 1518 295.5 1518 534 1518 c 0,16,17
 679.5 1518 679.5 1518 784.5 1435.5 c 0,18,19
 832.5 1396.5 832.5 1396.5 875.25 1332 c 128,-1,20
 918 1267.5 918 1267.5 946.5 1200 c 0,21,22
 970.5 1140 970.5 1140 910.5 1120.5 c 0,23,24
 853.5 1101 853.5 1101 831 1156.5 c 0,25,26
 807 1215 807 1215 776.25 1262.25 c 128,-1,27
 745.5 1309.5 745.5 1309.5 709.5 1338 c 0,28,29
 636 1393.5 636 1393.5 534 1393.5 c 0,30,31
 451.5 1393.5 451.5 1393.5 385.5 1353.75 c 128,-1,32
 319.5 1314 319.5 1314 276 1242 c 0,33,34
 223.5 1152 223.5 1152 199.5 1021.5 c 128,-1,35
 175.5 891 175.5 891 175.5 744 c 0,36,37
 175.5 589.5 175.5 589.5 198.75 462 c 128,-1,38
 222 334.5 222 334.5 276 244.5 c 1,39,40
 364.5 90 364.5 90 534 90 c 0,41,42
 633 90 633 90 709.5 148.5 c 0,43,44
 784.5 205.5 784.5 205.5 831 330 c 1,45,46
 843 357 843 357 861 366.75 c 128,-1,47
 879 376.5 879 376.5 909 366 c 1,48,49
 969 339 969 339 945 285 c 1,50,-1
 946.5 286.5 l 1,0,1
504 1681.5 m 1,51,-1
 324 1821 l 1,52,53
 301.5 1840.5 301.5 1840.5 296.25 1863 c 128,-1,54
 291 1885.5 291 1885.5 310.5 1909.5 c 1,55,56
 354 1953 354 1953 394.5 1918.5 c 1,57,58
 427.5 1894.5 427.5 1894.5 450 1876.5 c 128,-1,59
 472.5 1858.5 472.5 1858.5 504 1834.5 c 1,60,61
 531 1855.5 531 1855.5 558.75 1878 c 128,-1,62
 586.5 1900.5 586.5 1900.5 612 1920 c 0,63,64
 657 1951.5 657 1951.5 700.5 1911 c 1,65,66
 735 1863 735 1863 688.5 1822.5 c 1,67,-1
 504 1681.5 l 1,51,-1
EndSplineSet
EndChar
StartChar: ccaron
Encoding: 269 269 328
Width: 762
VWidth: 3000
Flags: W
LayerCount: 2
Back
Fore
SplineSet
684 171 m 1,0,1
 663 120 663 120 633.75 81.75 c 128,-1,2
 604.5 43.5 604.5 43.5 567 18 c 1,3,4
 487.5 -31.5 487.5 -31.5 382.5 -31.5 c 0,5,6
 223.5 -31.5 223.5 -31.5 133.5 78 c 0,7,8
 51 180 51 180 51 369 c 0,9,10
 51 460.5 51 460.5 72.75 533.25 c 128,-1,11
 94.5 606 94.5 606 133.5 658.5 c 1,12,13
 178.5 712.5 178.5 712.5 241.5 741.75 c 128,-1,14
 304.5 771 304.5 771 382.5 771 c 0,15,16
 489 771 489 771 567 717 c 1,17,-1
 567 718.5 l 1,18,19
 645 667.5 645 667.5 684 565.5 c 1,20,21
 693 535.5 693 535.5 685.5 517.5 c 128,-1,22
 678 499.5 678 499.5 648 487.5 c 0,23,24
 622.5 478.5 622.5 478.5 600.75 490.5 c 128,-1,25
 579 502.5 579 502.5 568.5 523.5 c 1,26,27
 543 586.5 543 586.5 499.5 618 c 1,28,29
 451.5 649.5 451.5 649.5 382.5 649.5 c 0,30,31
 334.5 649.5 334.5 649.5 295.5 632.25 c 128,-1,32
 256.5 615 256.5 615 231 585 c 1,33,34
 204 549 204 549 188.25 494.25 c 128,-1,35
 172.5 439.5 172.5 439.5 172.5 369 c 0,36,37
 172.5 231 172.5 231 231 154.5 c 0,38,39
 280.5 90 280.5 90 382.5 90 c 0,40,41
 454.5 90 454.5 90 499.5 121.5 c 0,42,43
 543 151.5 543 151.5 568.5 214.5 c 0,44,45
 579 240 579 240 600 249.75 c 128,-1,46
 621 259.5 621 259.5 649.5 247.5 c 1,47,-1
 648 249 l 1,48,49
 703.5 228 703.5 228 684 171 c 1,0,1
372 942 m 1,50,-1
 193.5 1080 l 1,51,52
 172.5 1099.5 172.5 1099.5 167.25 1122 c 128,-1,53
 162 1144.5 162 1144.5 180 1167 c 1,54,55
 222 1209 222 1209 264 1177.5 c 0,56,57
 295.5 1152 295.5 1152 318 1134.75 c 128,-1,58
 340.5 1117.5 340.5 1117.5 372 1093.5 c 1,59,60
 397.5 1114.5 397.5 1114.5 425.25 1136.25 c 128,-1,61
 453 1158 453 1158 478.5 1179 c 1,62,63
 523.5 1210.5 523.5 1210.5 565.5 1168.5 c 1,64,65
 601.5 1120.5 601.5 1120.5 553.5 1081.5 c 1,66,-1
 372 942 l 1,50,-1
EndSplineSet
EndChar
StartChar: Dcaron
Encoding: 270 270 258
Width: 931
VWidth: 3000
Flags: W
LayerCount: 2
Back
Fore
SplineSet
385.5 1518 m 2,0,1
 624 1518 624 1518 748.5 1303.5 c 1,2,3
 813 1195.5 813 1195.5 840.75 1052.25 c 128,-1,4
 868.5 909 868.5 909 868.5 744 c 0,5,6
 868.5 576 868.5 576 840.75 432 c 128,-1,7
 813 288 813 288 748.5 183 c 1,8,9
 625.5 -31.5 625.5 -31.5 385.5 -31.5 c 2,10,-1
 111 -31.5 l 2,11,12
 49.5 -31.5 49.5 -31.5 49.5 28.5 c 2,13,-1
 49.5 1456.5 l 2,14,15
 49.5 1518 49.5 1518 111 1518 c 2,16,-1
 385.5 1518 l 2,0,1
385.5 90 m 2,17,18
 552 90 552 90 643.5 244.5 c 0,19,20
 697.5 334.5 697.5 334.5 720.75 462 c 128,-1,21
 744 589.5 744 589.5 744 744 c 0,22,23
 744 891 744 891 720 1021.5 c 128,-1,24
 696 1152 696 1152 643.5 1242 c 1,25,26
 598.5 1314 598.5 1314 533.25 1353.75 c 128,-1,27
 468 1393.5 468 1393.5 385.5 1393.5 c 2,28,-1
 174 1393.5 l 1,29,-1
 174 90 l 1,30,-1
 385.5 90 l 2,17,18
346.5 1681.5 m 1,31,-1
 165 1821 l 1,32,33
 144 1840.5 144 1840.5 138.75 1863 c 128,-1,34
 133.5 1885.5 133.5 1885.5 153 1909.5 c 1,35,36
 195 1951.5 195 1951.5 237 1918.5 c 0,37,38
 268.5 1894.5 268.5 1894.5 291.75 1876.5 c 128,-1,39
 315 1858.5 315 1858.5 346.5 1834.5 c 1,40,41
 372 1855.5 372 1855.5 400.5 1878 c 128,-1,42
 429 1900.5 429 1900.5 454.5 1920 c 0,43,44
 499.5 1953 499.5 1953 541.5 1911 c 1,45,46
 579 1863 579 1863 529.5 1822.5 c 1,47,-1
 346.5 1681.5 l 1,31,-1
EndSplineSet
EndChar
StartChar: dcaron
Encoding: 271 271 332
Width: 1060
VWidth: 3000
Flags: W
LayerCount: 2
Back
Fore
SplineSet
718.5 30 m 2,0,1
 718.5 -31.5 718.5 -31.5 658.5 -31.5 c 0,2,3
 595.5 -31.5 595.5 -31.5 595.5 30 c 2,4,-1
 595.5 40.5 l 1,5,6
 510 -31.5 510 -31.5 385.5 -31.5 c 0,7,8
 307.5 -31.5 307.5 -31.5 244.5 -1.5 c 128,-1,9
 181.5 28.5 181.5 28.5 136.5 81 c 1,10,11
 97.5 133.5 97.5 133.5 75.75 206.25 c 128,-1,12
 54 279 54 279 54 370.5 c 0,13,14
 54 555 54 555 136.5 660 c 0,15,16
 225 771 225 771 385.5 771 c 0,17,18
 516 771 516 771 595.5 702 c 1,19,-1
 595.5 1438.5 l 2,20,21
 595.5 1498.5 595.5 1498.5 658.5 1498.5 c 0,22,23
 718.5 1498.5 718.5 1498.5 718.5 1438.5 c 2,24,-1
 718.5 30 l 2,0,1
538.5 156 m 1,25,26
 595.5 231 595.5 231 595.5 370.5 c 0,27,28
 595.5 441 595.5 441 580.5 495 c 128,-1,29
 565.5 549 565.5 549 538.5 585 c 1,30,31
 513 615 513 615 473.25 633 c 128,-1,32
 433.5 651 433.5 651 385.5 651 c 256,33,34
 337.5 651 337.5 651 298.5 633 c 128,-1,35
 259.5 615 259.5 615 234 585 c 1,36,37
 207 549 207 549 191.25 495 c 128,-1,38
 175.5 441 175.5 441 175.5 370.5 c 0,39,40
 175.5 303 175.5 303 191.25 248.25 c 128,-1,41
 207 193.5 207 193.5 234 156 c 1,42,43
 259.5 126 259.5 126 298.5 108.75 c 128,-1,44
 337.5 91.5 337.5 91.5 385.5 91.5 c 0,45,46
 487.5 91.5 487.5 91.5 538.5 156 c 1,25,26
804 1393.5 m 1,47,48
 792 1420.5 792 1420.5 804.75 1445.25 c 128,-1,49
 817.5 1470 817.5 1470 850.5 1491 c 1,50,51
 928.5 1536 928.5 1536 967.5 1479 c 1,52,53
 984 1458 984 1458 990.75 1433.25 c 128,-1,54
 997.5 1408.5 997.5 1408.5 997.5 1383 c 0,55,56
 997.5 1332 997.5 1332 976.5 1281 c 0,57,58
 960 1237.5 960 1237.5 927.75 1179.75 c 128,-1,59
 895.5 1122 895.5 1122 849 1053 c 0,60,61
 831 1027.5 831 1027.5 810 1022.25 c 128,-1,62
 789 1017 789 1017 762 1035 c 1,63,64
 714 1071 714 1071 745.5 1120.5 c 1,65,66
 789 1185 789 1185 816.75 1234.5 c 128,-1,67
 844.5 1284 844.5 1284 858 1323 c 1,68,69
 870 1351.5 870 1351.5 876 1353 c 1,70,71
 820.5 1350 820.5 1350 804 1393.5 c 1,47,48
EndSplineSet
EndChar
StartChar: Dcroat
Encoding: 272 272 259
Width: 931
VWidth: 3000
Flags: W
LayerCount: 2
Back
Fore
SplineSet
385.5 1518 m 2,0,1
 622.5 1518 622.5 1518 748.5 1303.5 c 0,2,3
 811.5 1195.5 811.5 1195.5 839.25 1052.25 c 128,-1,4
 867 909 867 909 867 744 c 0,5,6
 867 576 867 576 839.25 432 c 128,-1,7
 811.5 288 811.5 288 748.5 183 c 1,8,9
 624 -31.5 624 -31.5 385.5 -31.5 c 2,10,-1
 111 -31.5 l 2,11,12
 49.5 -31.5 49.5 -31.5 49.5 28.5 c 2,13,-1
 49.5 1456.5 l 2,14,15
 49.5 1518 49.5 1518 111 1518 c 2,16,-1
 385.5 1518 l 2,0,1
385.5 90 m 2,17,18
 552 90 552 90 643.5 244.5 c 0,19,20
 696 334.5 696 334.5 720 462 c 128,-1,21
 744 589.5 744 589.5 744 744 c 0,22,23
 744 891 744 891 720 1021.5 c 128,-1,24
 696 1152 696 1152 643.5 1242 c 1,25,26
 598.5 1314 598.5 1314 533.25 1353.75 c 128,-1,27
 468 1393.5 468 1393.5 385.5 1393.5 c 2,28,-1
 174 1393.5 l 1,29,-1
 174 90 l 1,30,-1
 385.5 90 l 2,17,18
22.5 693 m 2,31,32
 -42 693 -42 693 -40.5 757.5 c 0,33,34
 -40.5 817.5 -40.5 817.5 22.5 817.5 c 2,35,-1
 576 817.5 l 1,36,37
 637.5 813 637.5 813 637.5 753 c 0,38,39
 637.5 687 637.5 687 576 691.5 c 1,40,-1
 22.5 693 l 2,31,32
EndSplineSet
EndChar
StartChar: dcroat
Encoding: 273 273 333
Width: 781
VWidth: 3000
Flags: W
LayerCount: 2
Back
Fore
SplineSet
825 1044 m 0,0,1
 825 979.5 825 979.5 763.5 984 c 1,2,-1
 717 984 l 1,3,-1
 717 30 l 2,4,5
 717 -31.5 717 -31.5 655.5 -31.5 c 256,6,7
 594 -31.5 594 -31.5 594 30 c 2,8,-1
 594 40.5 l 1,9,10
 508.5 -31.5 508.5 -31.5 384 -31.5 c 0,11,12
 304.5 -31.5 304.5 -31.5 242.25 -1.5 c 128,-1,13
 180 28.5 180 28.5 135 81 c 1,14,15
 96 133.5 96 133.5 74.25 206.25 c 128,-1,16
 52.5 279 52.5 279 52.5 370.5 c 0,17,18
 52.5 555 52.5 555 135 660 c 0,19,20
 223.5 771 223.5 771 384 771 c 0,21,22
 447 771 447 771 500.25 753.75 c 128,-1,23
 553.5 736.5 553.5 736.5 594 702 c 1,24,-1
 594 984 l 1,25,26
 498 984 498 984 405 984.75 c 128,-1,27
 312 985.5 312 985.5 216 985.5 c 0,28,29
 150 985.5 150 985.5 154.5 1050 c 1,30,31
 154.5 1108.5 154.5 1108.5 216 1108.5 c 2,32,-1
 594 1108.5 l 1,33,-1
 594 1438.5 l 2,34,35
 594 1498.5 594 1498.5 655.5 1498.5 c 256,36,37
 717 1498.5 717 1498.5 717 1438.5 c 2,38,-1
 717 1108.5 l 1,39,-1
 765 1108.5 l 1,40,41
 825 1104 825 1104 825 1044 c 0,0,1
537 156 m 1,42,43
 594 231 594 231 594 370.5 c 0,44,45
 594 441 594 441 579 495 c 128,-1,46
 564 549 564 549 537 585 c 1,47,48
 511.5 615 511.5 615 471.75 633 c 128,-1,49
 432 651 432 651 384 651 c 256,50,51
 336 651 336 651 297 633 c 128,-1,52
 258 615 258 615 232.5 585 c 1,53,54
 205.5 549 205.5 549 189.75 495 c 128,-1,55
 174 441 174 441 174 370.5 c 0,56,57
 174 303 174 303 189.75 248.25 c 128,-1,58
 205.5 193.5 205.5 193.5 232.5 156 c 1,59,60
 258 126 258 126 297 108.75 c 128,-1,61
 336 91.5 336 91.5 384 91.5 c 0,62,63
 486 91.5 486 91.5 537 156 c 1,42,43
EndSplineSet
EndChar
StartChar: Emacron
Encoding: 274 274 269
Width: 823
VWidth: 3000
Flags: W
LayerCount: 2
Back
Fore
SplineSet
174 655.5 m 1,0,-1
 174 90 l 1,1,-1
 702 90 l 2,2,3
 762 90 762 90 762 28.5 c 0,4,5
 762 -31.5 762 -31.5 702 -31.5 c 2,6,-1
 111 -31.5 l 2,7,8
 49.5 -31.5 49.5 -31.5 49.5 28.5 c 2,9,-1
 49.5 1456.5 l 2,10,11
 49.5 1518 49.5 1518 111 1518 c 2,12,-1
 702 1518 l 2,13,14
 762 1518 762 1518 762 1456.5 c 0,15,16
 762 1393.5 762 1393.5 702 1393.5 c 2,17,-1
 174 1393.5 l 1,18,-1
 174 780 l 1,19,-1
 702 780 l 2,20,21
 762 780 762 780 762 717 c 0,22,23
 762 655.5 762 655.5 702 655.5 c 2,24,-1
 174 655.5 l 1,0,-1
129 1785 m 2,25,26
 63 1785 63 1785 67.5 1849.5 c 1,27,28
 67.5 1911 67.5 1911 129 1911 c 2,29,-1
 684 1911 l 1,30,31
 745.5 1906.5 745.5 1906.5 745.5 1845 c 0,32,33
 745.5 1779 745.5 1779 684 1783.5 c 1,34,-1
 129 1785 l 2,25,26
EndSplineSet
EndChar

StartChar: emacron
Encoding: 275 275 337
Width: 520
Flags: W
LayerCount: 2
Fore
SplineSet
153 390 m 0,0,1
 138 371 138 371 128.5 346 c 128,-1,2
 119 321 119 321 116 287 c 1,3,-1
 392 287 l 1,4,5
 388 319 388 319 379 345 c 128,-1,6
 370 371 370 371 356 390 c 1,7,8
 339 410 339 410 312.5 421.5 c 128,-1,9
 286 433 286 433 254 433 c 0,10,11
 186 433 186 433 153 390 c 0,0,1
455 114 m 1,12,13
 441 80 441 80 421.5 54.5 c 128,-1,14
 402 29 402 29 377 12 c 1,15,16
 324 -21 324 -21 254 -21 c 0,17,18
 147 -21 147 -21 89 52 c 1,19,-1
 90 52 l 1,20,21
 55 94 55 94 44 145 c 128,-1,22
 33 196 33 196 33 246 c 0,23,24
 33 307 33 307 48 355.5 c 128,-1,25
 63 404 63 404 89 439 c 1,26,27
 118 475 118 475 160 494.5 c 128,-1,28
 202 514 202 514 254 514 c 0,29,30
 361 514 361 514 420 439 c 1,31,32
 476 370 476 370 476 246 c 0,33,34
 476 206 476 206 435 206 c 2,35,-1
 116 206 l 1,36,37
 122 142 122 142 153 103 c 0,38,39
 186 60 186 60 254 60 c 0,40,41
 302 60 302 60 332 81 c 0,42,43
 361 101 361 101 378 143 c 1,44,45
 386 160 386 160 399.5 166.5 c 128,-1,46
 413 173 413 173 432 165 c 1,47,-1
 431 166 l 1,48,49
 469 152 469 152 455 114 c 1,12,13
73 696 m 2,50,51
 29 696 29 696 32 738 c 1,52,53
 32 779 32 779 73 779 c 2,54,-1
 439 779 l 1,55,56
 479 776 479 776 479 736 c 0,57,58
 479 692 479 692 439 695 c 1,59,-1
 73 696 l 2,50,51
EndSplineSet
EndChar
StartChar: Ebreve
Encoding: 276 276 266
Width: 549
Flags: W
LayerCount: 2
Back
Fore
SplineSet
116 437 m 1,0,-1
 116 60 l 1,1,-1
 468 60 l 2,2,3
 508 60 508 60 508 19 c 0,4,5
 508 -21 508 -21 468 -21 c 2,6,-1
 74 -21 l 2,7,8
 33 -21 33 -21 33 19 c 2,9,-1
 33 971 l 2,10,11
 33 1012 33 1012 74 1012 c 2,12,-1
 468 1012 l 2,13,14
 508 1012 508 1012 508 971 c 0,15,16
 508 929 508 929 468 929 c 2,17,-1
 116 929 l 1,18,-1
 116 520 l 1,19,-1
 468 520 l 2,20,21
 508 520 508 520 508 478 c 0,22,23
 508 437 508 437 468 437 c 2,24,-1
 116 437 l 1,0,-1
215 1219 m 2,25,26
 246 1188 246 1188 271 1188 c 256,27,28
 296 1188 296 1188 326 1218 c 1,29,30
 353 1247 353 1247 384 1219 c 1,31,32
 413 1190 413 1190 385 1161 c 0,33,34
 331 1105 331 1105 270 1105 c 1,35,36
 213 1106 213 1106 156 1160 c 1,37,-1
 157 1160 l 1,38,39
 126 1189 126 1189 156 1219 c 1,40,41
 186 1246 186 1246 214 1220 c 1,42,-1
 215 1219 l 2,25,26
EndSplineSet
EndChar
StartChar: ebreve
Encoding: 277 277 334
Width: 780
VWidth: 3000
Flags: W
LayerCount: 2
Back
Fore
SplineSet
229.5 585 m 0,0,1
 207 556.5 207 556.5 192.75 519 c 128,-1,2
 178.5 481.5 178.5 481.5 174 430.5 c 1,3,-1
 588 430.5 l 1,4,5
 582 478.5 582 478.5 568.5 517.5 c 128,-1,6
 555 556.5 555 556.5 534 585 c 1,7,8
 508.5 615 508.5 615 468.75 632.25 c 128,-1,9
 429 649.5 429 649.5 381 649.5 c 0,10,11
 279 649.5 279 649.5 229.5 585 c 0,0,1
682.5 171 m 1,12,13
 661.5 120 661.5 120 632.25 81.75 c 128,-1,14
 603 43.5 603 43.5 565.5 18 c 1,15,16
 486 -31.5 486 -31.5 381 -31.5 c 0,17,18
 220.5 -31.5 220.5 -31.5 133.5 78 c 1,19,-1
 135 78 l 1,20,21
 82.5 141 82.5 141 66 217.5 c 128,-1,22
 49.5 294 49.5 294 49.5 369 c 0,23,24
 49.5 460.5 49.5 460.5 72 533.25 c 128,-1,25
 94.5 606 94.5 606 133.5 658.5 c 1,26,27
 177 712.5 177 712.5 240 741.75 c 128,-1,28
 303 771 303 771 381 771 c 0,29,30
 541.5 771 541.5 771 630 658.5 c 1,31,32
 714 555 714 555 714 369 c 0,33,34
 714 309 714 309 652.5 309 c 2,35,-1
 174 309 l 1,36,37
 183 213 183 213 229.5 154.5 c 0,38,39
 279 90 279 90 381 90 c 0,40,41
 453 90 453 90 498 121.5 c 0,42,43
 541.5 151.5 541.5 151.5 567 214.5 c 1,44,45
 579 240 579 240 599.25 249.75 c 128,-1,46
 619.5 259.5 619.5 259.5 648 247.5 c 1,47,-1
 646.5 249 l 1,48,49
 703.5 228 703.5 228 682.5 171 c 1,12,13
298.5 1087.5 m 2,50,51
 345 1041 345 1041 382.5 1041 c 256,52,53
 420 1041 420 1041 463.5 1086 c 0,54,55
 504 1126.5 504 1126.5 550.5 1087.5 c 1,56,57
 594 1044 594 1044 550.5 1000.5 c 0,58,59
 471 918 471 918 381 918 c 1,60,61
 337.5 919.5 337.5 919.5 295.5 939.75 c 128,-1,62
 253.5 960 253.5 960 213 999 c 0,63,64
 168 1044 168 1044 213 1087.5 c 1,65,66
 256.5 1126.5 256.5 1126.5 297 1089 c 1,67,-1
 298.5 1087.5 l 2,50,51
EndSplineSet
EndChar
StartChar: Edotaccent
Encoding: 278 278 268
Width: 823
VWidth: 3000
Flags: W
LayerCount: 2
Back
Fore
SplineSet
174 655.5 m 1,0,-1
 174 90 l 1,1,-1
 702 90 l 2,2,3
 762 90 762 90 762 28.5 c 0,4,5
 762 -31.5 762 -31.5 702 -31.5 c 2,6,-1
 111 -31.5 l 2,7,8
 49.5 -31.5 49.5 -31.5 49.5 28.5 c 2,9,-1
 49.5 1456.5 l 2,10,11
 49.5 1518 49.5 1518 111 1518 c 2,12,-1
 702 1518 l 2,13,14
 762 1518 762 1518 762 1456.5 c 0,15,16
 762 1393.5 762 1393.5 702 1393.5 c 2,17,-1
 174 1393.5 l 1,18,-1
 174 780 l 1,19,-1
 702 780 l 2,20,21
 762 780 762 780 762 717 c 0,22,23
 762 655.5 762 655.5 702 655.5 c 2,24,-1
 174 655.5 l 1,0,-1
303 1846.5 m 256,25,26
 303 1894.5 303 1894.5 332.25 1929 c 128,-1,27
 361.5 1963.5 361.5 1963.5 405 1963.5 c 256,28,29
 448.5 1963.5 448.5 1963.5 478.5 1929 c 128,-1,30
 508.5 1894.5 508.5 1894.5 508.5 1846.5 c 256,31,32
 508.5 1798.5 508.5 1798.5 478.5 1764.75 c 128,-1,33
 448.5 1731 448.5 1731 405 1731 c 256,34,35
 361.5 1731 361.5 1731 332.25 1764.75 c 128,-1,36
 303 1798.5 303 1798.5 303 1846.5 c 256,25,26
EndSplineSet
EndChar
StartChar: edotaccent
Encoding: 279 279 336
Width: 520
Flags: W
LayerCount: 2
Back
Fore
SplineSet
153 390 m 0,0,1
 138 371 138 371 128.5 346 c 128,-1,2
 119 321 119 321 116 287 c 1,3,-1
 392 287 l 1,4,5
 388 319 388 319 379 345 c 128,-1,6
 370 371 370 371 356 390 c 1,7,8
 339 410 339 410 312.5 421.5 c 128,-1,9
 286 433 286 433 254 433 c 0,10,11
 186 433 186 433 153 390 c 0,0,1
455 114 m 1,12,13
 441 80 441 80 421.5 54.5 c 128,-1,14
 402 29 402 29 377 12 c 1,15,16
 324 -21 324 -21 254 -21 c 0,17,18
 147 -21 147 -21 89 52 c 1,19,-1
 90 52 l 1,20,21
 55 94 55 94 44 145 c 128,-1,22
 33 196 33 196 33 246 c 0,23,24
 33 307 33 307 48 355.5 c 128,-1,25
 63 404 63 404 89 439 c 1,26,27
 118 475 118 475 160 494.5 c 128,-1,28
 202 514 202 514 254 514 c 0,29,30
 361 514 361 514 420 439 c 1,31,32
 476 370 476 370 476 246 c 0,33,34
 476 206 476 206 435 206 c 2,35,-1
 116 206 l 1,36,37
 122 142 122 142 153 103 c 0,38,39
 186 60 186 60 254 60 c 0,40,41
 302 60 302 60 332 81 c 0,42,43
 361 101 361 101 378 143 c 1,44,45
 386 160 386 160 399.5 166.5 c 128,-1,46
 413 173 413 173 432 165 c 1,47,-1
 431 166 l 1,48,49
 469 152 469 152 455 114 c 1,12,13
187 737 m 256,50,51
 187 769 187 769 206.5 791 c 128,-1,52
 226 813 226 813 254 813 c 0,53,54
 283 813 283 813 302.5 791 c 128,-1,55
 322 769 322 769 322 737 c 256,56,57
 322 705 322 705 302.5 683 c 128,-1,58
 283 661 283 661 254 661 c 0,59,60
 226 661 226 661 206.5 683 c 128,-1,61
 187 705 187 705 187 737 c 256,50,51
EndSplineSet
EndChar
StartChar: Eogonek
Encoding: 280 280 270
Width: 549
Flags: W
LayerCount: 2
Back
Fore
SplineSet
445 -21 m 1,0,1
 423 -35 423 -35 421 -60 c 0,2,3
 421 -69 421 -69 426.5 -77 c 128,-1,4
 432 -85 432 -85 450 -80 c 1,5,-1
 448 -80 l 1,6,7
 487 -67 487 -67 501 -104 c 1,8,9
 514 -142 514 -142 476 -157 c 0,10,11
 456 -164 456 -164 434 -164 c 0,12,13
 408 -164 408 -164 389 -151 c 1,14,-1
 389 -152 l 1,15,16
 361 -134 361 -134 348 -106 c 0,17,18
 337 -83 337 -83 339 -56 c 0,19,20
 340 -46 340 -46 340.5 -38.5 c 128,-1,21
 341 -31 341 -31 345 -21 c 1,22,-1
 74 -21 l 2,23,24
 33 -21 33 -21 33 19 c 2,25,-1
 33 971 l 2,26,27
 33 1012 33 1012 74 1012 c 2,28,-1
 468 1012 l 2,29,30
 508 1012 508 1012 508 971 c 0,31,32
 508 929 508 929 468 929 c 2,33,-1
 116 929 l 1,34,-1
 116 520 l 1,35,-1
 468 520 l 2,36,37
 508 520 508 520 508 478 c 0,38,39
 508 437 508 437 468 437 c 2,40,-1
 116 437 l 1,41,-1
 116 60 l 1,42,-1
 468 60 l 2,43,44
 508 60 508 60 508 19 c 0,45,46
 508 -21 508 -21 468 -21 c 2,47,-1
 445 -21 l 1,0,1
EndSplineSet
EndChar
StartChar: eogonek
Encoding: 281 281 338
Width: 780
VWidth: 3000
Flags: W
LayerCount: 2
Back
Fore
SplineSet
469.5 -27 m 0,0,1
 429 -48 429 -48 426 -90 c 0,2,3
 426 -102 426 -102 434.25 -114 c 128,-1,4
 442.5 -126 442.5 -126 469.5 -118.5 c 1,5,-1
 466.5 -118.5 l 1,6,7
 523.5 -99 523.5 -99 544.5 -154.5 c 0,8,9
 564 -210 564 -210 508.5 -232.5 c 0,10,11
 478.5 -244.5 478.5 -244.5 444 -244.5 c 0,12,13
 408 -244.5 408 -244.5 378 -223.5 c 1,14,-1
 378 -225 l 1,15,16
 334.5 -198 334.5 -198 318 -157.5 c 1,17,18
 301.5 -123 301.5 -123 304.5 -84 c 0,19,20
 307.5 -51 307.5 -51 315 -27 c 1,21,22
 202.5 -12 202.5 -12 133.5 78 c 1,23,-1
 135 78 l 1,24,25
 82.5 141 82.5 141 66 217.5 c 128,-1,26
 49.5 294 49.5 294 49.5 369 c 0,27,28
 49.5 460.5 49.5 460.5 72 533.25 c 128,-1,29
 94.5 606 94.5 606 133.5 658.5 c 1,30,31
 177 712.5 177 712.5 240 741.75 c 128,-1,32
 303 771 303 771 381 771 c 0,33,34
 541.5 771 541.5 771 630 658.5 c 1,35,36
 714 555 714 555 714 369 c 0,37,38
 714 309 714 309 652.5 309 c 2,39,-1
 174 309 l 1,40,41
 183 213 183 213 229.5 154.5 c 0,42,43
 279 90 279 90 381 90 c 0,44,45
 453 90 453 90 498 121.5 c 0,46,47
 541.5 151.5 541.5 151.5 567 214.5 c 1,48,49
 579 240 579 240 599.25 249.75 c 128,-1,50
 619.5 259.5 619.5 259.5 648 247.5 c 1,51,-1
 646.5 249 l 1,52,53
 703.5 228 703.5 228 682.5 171 c 0,54,55
 645 73.5 645 73.5 564 18 c 1,56,57
 543 6 543 6 523.5 -3.75 c 128,-1,58
 504 -13.5 504 -13.5 480 -19.5 c 0,59,60
 477 -21 477 -21 474.75 -23.25 c 128,-1,61
 472.5 -25.5 472.5 -25.5 469.5 -27 c 0,0,1
229.5 585 m 0,62,63
 207 556.5 207 556.5 192.75 519 c 128,-1,64
 178.5 481.5 178.5 481.5 174 430.5 c 1,65,-1
 588 430.5 l 1,66,67
 582 478.5 582 478.5 568.5 517.5 c 128,-1,68
 555 556.5 555 556.5 534 585 c 1,69,70
 508.5 615 508.5 615 468.75 632.25 c 128,-1,71
 429 649.5 429 649.5 381 649.5 c 0,72,73
 279 649.5 279 649.5 229.5 585 c 0,62,63
EndSplineSet
EndChar
StartChar: Ecaron
Encoding: 282 282 267
Width: 823
VWidth: 3000
Flags: W
LayerCount: 2
Back
Fore
SplineSet
174 655.5 m 1,0,-1
 174 90 l 1,1,-1
 702 90 l 2,2,3
 762 90 762 90 762 28.5 c 0,4,5
 762 -31.5 762 -31.5 702 -31.5 c 2,6,-1
 111 -31.5 l 2,7,8
 49.5 -31.5 49.5 -31.5 49.5 28.5 c 2,9,-1
 49.5 1456.5 l 2,10,11
 49.5 1518 49.5 1518 111 1518 c 2,12,-1
 702 1518 l 2,13,14
 762 1518 762 1518 762 1456.5 c 0,15,16
 762 1393.5 762 1393.5 702 1393.5 c 2,17,-1
 174 1393.5 l 1,18,-1
 174 780 l 1,19,-1
 702 780 l 2,20,21
 762 780 762 780 762 717 c 0,22,23
 762 655.5 762 655.5 702 655.5 c 2,24,-1
 174 655.5 l 1,0,-1
405 1681.5 m 1,25,-1
 225 1821 l 1,26,27
 202.5 1840.5 202.5 1840.5 197.25 1863 c 128,-1,28
 192 1885.5 192 1885.5 211.5 1909.5 c 1,29,30
 255 1953 255 1953 295.5 1918.5 c 1,31,32
 327 1894.5 327 1894.5 350.25 1876.5 c 128,-1,33
 373.5 1858.5 373.5 1858.5 405 1834.5 c 1,34,35
 432 1855.5 432 1855.5 459.75 1878 c 128,-1,36
 487.5 1900.5 487.5 1900.5 513 1920 c 1,37,38
 559.5 1951.5 559.5 1951.5 600 1911 c 1,39,40
 637.5 1863 637.5 1863 589.5 1822.5 c 1,41,-1
 405 1681.5 l 1,25,-1
EndSplineSet
EndChar
StartChar: ecaron
Encoding: 283 283 335
Width: 780
VWidth: 3000
Flags: W
LayerCount: 2
Back
Fore
SplineSet
229.5 585 m 0,0,1
 207 556.5 207 556.5 192.75 519 c 128,-1,2
 178.5 481.5 178.5 481.5 174 430.5 c 1,3,-1
 588 430.5 l 1,4,5
 582 478.5 582 478.5 568.5 517.5 c 128,-1,6
 555 556.5 555 556.5 534 585 c 1,7,8
 508.5 615 508.5 615 468.75 632.25 c 128,-1,9
 429 649.5 429 649.5 381 649.5 c 0,10,11
 279 649.5 279 649.5 229.5 585 c 0,0,1
682.5 171 m 1,12,13
 661.5 120 661.5 120 632.25 81.75 c 128,-1,14
 603 43.5 603 43.5 565.5 18 c 1,15,16
 486 -31.5 486 -31.5 381 -31.5 c 0,17,18
 220.5 -31.5 220.5 -31.5 133.5 78 c 1,19,-1
 135 78 l 1,20,21
 82.5 141 82.5 141 66 217.5 c 128,-1,22
 49.5 294 49.5 294 49.5 369 c 0,23,24
 49.5 460.5 49.5 460.5 72 533.25 c 128,-1,25
 94.5 606 94.5 606 133.5 658.5 c 1,26,27
 177 712.5 177 712.5 240 741.75 c 128,-1,28
 303 771 303 771 381 771 c 0,29,30
 541.5 771 541.5 771 630 658.5 c 1,31,32
 714 555 714 555 714 369 c 0,33,34
 714 309 714 309 652.5 309 c 2,35,-1
 174 309 l 1,36,37
 183 213 183 213 229.5 154.5 c 0,38,39
 279 90 279 90 381 90 c 0,40,41
 453 90 453 90 498 121.5 c 0,42,43
 541.5 151.5 541.5 151.5 567 214.5 c 1,44,45
 579 240 579 240 599.25 249.75 c 128,-1,46
 619.5 259.5 619.5 259.5 648 247.5 c 1,47,-1
 646.5 249 l 1,48,49
 703.5 228 703.5 228 682.5 171 c 1,12,13
381 942 m 1,50,-1
 202.5 1080 l 1,51,52
 181.5 1099.5 181.5 1099.5 176.25 1122 c 128,-1,53
 171 1144.5 171 1144.5 189 1167 c 1,54,55
 231 1209 231 1209 273 1177.5 c 0,56,57
 304.5 1152 304.5 1152 327 1134.75 c 128,-1,58
 349.5 1117.5 349.5 1117.5 381 1093.5 c 1,59,60
 406.5 1114.5 406.5 1114.5 434.25 1136.25 c 128,-1,61
 462 1158 462 1158 487.5 1179 c 1,62,63
 532.5 1210.5 532.5 1210.5 574.5 1168.5 c 1,64,65
 610.5 1120.5 610.5 1120.5 562.5 1081.5 c 1,66,-1
 381 942 l 1,50,-1
EndSplineSet
EndChar
StartChar: Gcircumflex
Encoding: 284 284 272
Width: 763
Flags: W
LayerCount: 2
Back
Fore
SplineSet
634 437 m 1,0,-1
 634 19 l 2,1,2
 634 -21 634 -21 593 -21 c 256,3,4
 552 -21 552 -21 552 19 c 2,5,-1
 552 57 l 1,6,7
 546 52 546 52 537.5 45.5 c 128,-1,8
 529 39 529 39 523 34 c 0,9,10
 489 8 489 8 446 -6.5 c 128,-1,11
 403 -21 403 -21 356 -21 c 0,12,13
 197 -21 197 -21 114 122 c 1,14,15
 72 192 72 192 53 288 c 128,-1,16
 34 384 34 384 34 496 c 0,17,18
 34 606 34 606 53 701.5 c 128,-1,19
 72 797 72 797 114 869 c 0,20,21
 198 1012 198 1012 356 1012 c 0,22,23
 404 1012 404 1012 446 998.5 c 128,-1,24
 488 985 488 985 523 957 c 0,25,26
 555 931 555 931 583.5 888 c 128,-1,27
 612 845 612 845 631 800 c 0,28,29
 647 760 647 760 607 747 c 1,30,31
 569 733 569 733 555 771 c 1,32,33
 538 810 538 810 518 841.5 c 128,-1,34
 498 873 498 873 474 892 c 0,35,36
 425 929 425 929 356 929 c 0,37,38
 301 929 301 929 257.5 902.5 c 128,-1,39
 214 876 214 876 184 828 c 1,40,41
 149 768 149 768 133 681 c 128,-1,42
 117 594 117 594 117 496 c 0,43,44
 117 393 117 393 133 308 c 128,-1,45
 149 223 149 223 184 163 c 0,46,47
 214 112 214 112 256.5 86 c 128,-1,48
 299 60 299 60 356 60 c 0,49,50
 423 60 423 60 474 99 c 0,51,52
 499 118 499 118 517.5 146 c 128,-1,53
 536 174 536 174 552 213 c 1,54,-1
 552 437 l 1,55,-1
 451 437 l 2,56,57
 411 437 411 437 411 478 c 0,58,59
 411 520 411 520 451 520 c 2,60,-1
 678 520 l 2,61,62
 718 520 718 520 718 478 c 0,63,64
 718 437 718 437 678 437 c 2,65,-1
 634 437 l 1,0,-1
377 1301 m 1,66,-1
 497 1207 l 2,67,68
 512 1195 512 1195 515 1180 c 128,-1,69
 518 1165 518 1165 506 1149 c 1,70,71
 478 1121 478 1121 450 1142 c 0,72,73
 428 1159 428 1159 413 1170.5 c 128,-1,74
 398 1182 398 1182 377 1199 c 1,75,76
 359 1185 359 1185 340.5 1170 c 128,-1,77
 322 1155 322 1155 305 1141 c 1,78,79
 274 1121 274 1121 246 1148 c 1,80,81
 223 1180 223 1180 253 1206 c 1,82,-1
 377 1301 l 1,66,-1
EndSplineSet
EndChar
StartChar: gcircumflex
Encoding: 285 285 341
Width: 781
VWidth: 3000
Flags: W
LayerCount: 2
Back
Fore
SplineSet
198 -456 m 1,0,1
 219 -517.5 219 -517.5 267 -549 c 1,2,3
 312 -580.5 312 -580.5 382.5 -580.5 c 0,4,5
 430.5 -580.5 430.5 -580.5 470.25 -563.25 c 128,-1,6
 510 -546 510 -546 535.5 -516 c 1,7,8
 562.5 -480 562.5 -480 577.5 -425.25 c 128,-1,9
 592.5 -370.5 592.5 -370.5 592.5 -300 c 2,10,-1
 592.5 37.5 l 1,11,12
 513 -31.5 513 -31.5 382.5 -31.5 c 0,13,14
 222 -31.5 222 -31.5 135 78 c 1,15,16
 51 180 51 180 51 369 c 0,17,18
 51 460.5 51 460.5 73.5 533.25 c 128,-1,19
 96 606 96 606 135 658.5 c 1,20,21
 178.5 712.5 178.5 712.5 241.5 741.75 c 128,-1,22
 304.5 771 304.5 771 382.5 771 c 0,23,24
 507 771 507 771 592.5 697.5 c 1,25,-1
 592.5 709.5 l 2,26,27
 592.5 771 592.5 771 654 771 c 256,28,29
 715.5 771 715.5 771 715.5 709.5 c 2,30,-1
 715.5 -300 l 2,31,32
 715.5 -391.5 715.5 -391.5 693.75 -464.25 c 128,-1,33
 672 -537 672 -537 631.5 -589.5 c 1,34,35
 588 -642 588 -642 524.25 -672 c 128,-1,36
 460.5 -702 460.5 -702 382.5 -702 c 0,37,38
 279 -702 279 -702 199.5 -651 c 1,39,40
 121.5 -598.5 121.5 -598.5 82.5 -501 c 0,41,42
 57 -441 57 -441 120 -420 c 1,43,-1
 118.5 -420 l 1,44,45
 171 -400.5 171 -400.5 196.5 -454.5 c 1,46,-1
 198 -456 l 1,0,1
535.5 585 m 0,47,48
 486 649.5 486 649.5 382.5 649.5 c 0,49,50
 334.5 649.5 334.5 649.5 295.5 632.25 c 128,-1,51
 256.5 615 256.5 615 231 585 c 1,52,53
 204 549 204 549 189 494.25 c 128,-1,54
 174 439.5 174 439.5 174 369 c 0,55,56
 174 229.5 174 229.5 231 154.5 c 0,57,58
 280.5 90 280.5 90 382.5 90 c 0,59,60
 430.5 90 430.5 90 470.25 107.25 c 128,-1,61
 510 124.5 510 124.5 535.5 154.5 c 1,62,63
 562.5 192 562.5 192 577.5 246 c 128,-1,64
 592.5 300 592.5 300 592.5 369 c 0,65,66
 592.5 511.5 592.5 511.5 535.5 585 c 0,47,48
384 1209 m 1,67,-1
 562.5 1069.5 l 2,68,69
 583.5 1051.5 583.5 1051.5 588 1029 c 128,-1,70
 592.5 1006.5 592.5 1006.5 576 984 c 1,71,72
 534 942 534 942 492 973.5 c 0,73,74
 460.5 997.5 460.5 997.5 438 1015.5 c 128,-1,75
 415.5 1033.5 415.5 1033.5 384 1057.5 c 1,76,77
 358.5 1036.5 358.5 1036.5 330.75 1014 c 128,-1,78
 303 991.5 303 991.5 277.5 972 c 0,79,80
 232.5 940.5 232.5 940.5 190.5 982.5 c 1,81,82
 154.5 1029 154.5 1029 201 1068 c 1,83,-1
 384 1209 l 1,67,-1
EndSplineSet
EndChar
StartChar: Gbreve
Encoding: 286 286 271
Width: 1144
VWidth: 3000
Flags: W
LayerCount: 2
Back
Fore
SplineSet
951 655.5 m 1,0,-1
 951 28.5 l 2,1,2
 951 -31.5 951 -31.5 889.5 -31.5 c 256,3,4
 828 -31.5 828 -31.5 828 28.5 c 2,5,-1
 828 85.5 l 1,6,7
 819 78 819 78 806.25 68.25 c 128,-1,8
 793.5 58.5 793.5 58.5 784.5 51 c 0,9,10
 733.5 12 733.5 12 669 -9.75 c 128,-1,11
 604.5 -31.5 604.5 -31.5 534 -31.5 c 0,12,13
 295.5 -31.5 295.5 -31.5 171 183 c 1,14,15
 108 288 108 288 79.5 432 c 128,-1,16
 51 576 51 576 51 744 c 0,17,18
 51 909 51 909 79.5 1052.25 c 128,-1,19
 108 1195.5 108 1195.5 171 1303.5 c 0,20,21
 297 1518 297 1518 534 1518 c 0,22,23
 606 1518 606 1518 669 1497.75 c 128,-1,24
 732 1477.5 732 1477.5 784.5 1435.5 c 0,25,26
 832.5 1396.5 832.5 1396.5 875.25 1332 c 128,-1,27
 918 1267.5 918 1267.5 946.5 1200 c 0,28,29
 970.5 1140 970.5 1140 910.5 1120.5 c 1,30,31
 853.5 1099.5 853.5 1099.5 832.5 1156.5 c 1,32,33
 807 1215 807 1215 777 1262.25 c 128,-1,34
 747 1309.5 747 1309.5 711 1338 c 0,35,36
 637.5 1393.5 637.5 1393.5 534 1393.5 c 0,37,38
 451.5 1393.5 451.5 1393.5 386.25 1353.75 c 128,-1,39
 321 1314 321 1314 276 1242 c 1,40,41
 223.5 1152 223.5 1152 199.5 1021.5 c 128,-1,42
 175.5 891 175.5 891 175.5 744 c 0,43,44
 175.5 589.5 175.5 589.5 199.5 462 c 128,-1,45
 223.5 334.5 223.5 334.5 276 244.5 c 0,46,47
 321 168 321 168 384.75 129 c 128,-1,48
 448.5 90 448.5 90 534 90 c 0,49,50
 634.5 90 634.5 90 711 148.5 c 0,51,52
 748.5 177 748.5 177 776.25 219 c 128,-1,53
 804 261 804 261 828 319.5 c 1,54,-1
 828 655.5 l 1,55,-1
 676.5 655.5 l 2,56,57
 616.5 655.5 616.5 655.5 616.5 717 c 0,58,59
 616.5 780 616.5 780 676.5 780 c 2,60,-1
 1017 780 l 2,61,62
 1077 780 1077 780 1077 717 c 0,63,64
 1077 655.5 1077 655.5 1017 655.5 c 2,65,-1
 951 655.5 l 1,0,-1
430.5 1849.5 m 2,66,67
 477 1803 477 1803 516 1803 c 0,68,69
 556.5 1803 556.5 1803 597 1848 c 1,70,71
 640.5 1888.5 640.5 1888.5 684 1849.5 c 1,72,73
 708 1825.5 708 1825.5 708 1805.25 c 128,-1,74
 708 1785 708 1785 685.5 1761 c 0,75,76
 604.5 1678.5 604.5 1678.5 514.5 1678.5 c 1,77,78
 426 1680 426 1680 343.5 1759.5 c 1,79,-1
 345 1759.5 l 1,80,81
 298.5 1804.5 298.5 1804.5 343.5 1849.5 c 1,82,83
 387 1888.5 387 1888.5 429 1851 c 1,84,-1
 430.5 1849.5 l 2,66,67
EndSplineSet
EndChar
StartChar: Gdotaccent
Encoding: 288 288 275
Width: 763
Flags: W
LayerCount: 2
Back
Fore
SplineSet
634 437 m 1,0,-1
 634 19 l 2,1,2
 634 -21 634 -21 593 -21 c 256,3,4
 552 -21 552 -21 552 19 c 2,5,-1
 552 57 l 1,6,7
 546 52 546 52 537.5 45.5 c 128,-1,8
 529 39 529 39 523 34 c 0,9,10
 489 8 489 8 446 -6.5 c 128,-1,11
 403 -21 403 -21 356 -21 c 0,12,13
 197 -21 197 -21 114 122 c 1,14,15
 72 192 72 192 53 288 c 128,-1,16
 34 384 34 384 34 496 c 0,17,18
 34 606 34 606 53 701.5 c 128,-1,19
 72 797 72 797 114 869 c 0,20,21
 198 1012 198 1012 356 1012 c 0,22,23
 404 1012 404 1012 446 998.5 c 128,-1,24
 488 985 488 985 523 957 c 0,25,26
 555 931 555 931 583.5 888 c 128,-1,27
 612 845 612 845 631 800 c 0,28,29
 647 760 647 760 607 747 c 1,30,31
 569 733 569 733 555 771 c 1,32,33
 538 810 538 810 518 841.5 c 128,-1,34
 498 873 498 873 474 892 c 0,35,36
 425 929 425 929 356 929 c 0,37,38
 301 929 301 929 257.5 902.5 c 128,-1,39
 214 876 214 876 184 828 c 1,40,41
 149 768 149 768 133 681 c 128,-1,42
 117 594 117 594 117 496 c 0,43,44
 117 393 117 393 133 308 c 128,-1,45
 149 223 149 223 184 163 c 0,46,47
 214 112 214 112 256.5 86 c 128,-1,48
 299 60 299 60 356 60 c 0,49,50
 423 60 423 60 474 99 c 0,51,52
 499 118 499 118 517.5 146 c 128,-1,53
 536 174 536 174 552 213 c 1,54,-1
 552 437 l 1,55,-1
 451 437 l 2,56,57
 411 437 411 437 411 478 c 0,58,59
 411 520 411 520 451 520 c 2,60,-1
 678 520 l 2,61,62
 718 520 718 520 718 478 c 0,63,64
 718 437 718 437 678 437 c 2,65,-1
 634 437 l 1,0,-1
308 1231 m 256,66,67
 308 1263 308 1263 327.5 1286 c 128,-1,68
 347 1309 347 1309 376 1309 c 256,69,70
 405 1309 405 1309 425 1286 c 128,-1,71
 445 1263 445 1263 445 1231 c 256,72,73
 445 1199 445 1199 425 1176.5 c 128,-1,74
 405 1154 405 1154 376 1154 c 256,75,76
 347 1154 347 1154 327.5 1176.5 c 128,-1,77
 308 1199 308 1199 308 1231 c 256,66,67
EndSplineSet
EndChar
StartChar: gdotaccent
Encoding: 289 289 343
Width: 521
Flags: W
LayerCount: 2
Back
Fore
SplineSet
132 -304 m 1,0,1
 146 -345 146 -345 178 -366 c 1,2,3
 208 -387 208 -387 255 -387 c 0,4,5
 287 -387 287 -387 313.5 -375.5 c 128,-1,6
 340 -364 340 -364 357 -344 c 1,7,8
 375 -320 375 -320 385 -283.5 c 128,-1,9
 395 -247 395 -247 395 -200 c 2,10,-1
 395 25 l 1,11,12
 342 -21 342 -21 255 -21 c 0,13,14
 148 -21 148 -21 90 52 c 1,15,16
 34 120 34 120 34 246 c 0,17,18
 34 307 34 307 49 355.5 c 128,-1,19
 64 404 64 404 90 439 c 1,20,21
 119 475 119 475 161 494.5 c 128,-1,22
 203 514 203 514 255 514 c 0,23,24
 338 514 338 514 395 465 c 1,25,-1
 395 473 l 2,26,27
 395 514 395 514 436 514 c 256,28,29
 477 514 477 514 477 473 c 2,30,-1
 477 -200 l 2,31,32
 477 -261 477 -261 462.5 -309.5 c 128,-1,33
 448 -358 448 -358 421 -393 c 1,34,35
 392 -428 392 -428 349.5 -448 c 128,-1,36
 307 -468 307 -468 255 -468 c 0,37,38
 186 -468 186 -468 133 -434 c 1,39,40
 81 -399 81 -399 55 -334 c 0,41,42
 38 -294 38 -294 80 -280 c 1,43,-1
 79 -280 l 1,44,45
 114 -267 114 -267 131 -303 c 1,46,-1
 132 -304 l 1,0,1
357 390 m 0,47,48
 324 433 324 433 255 433 c 0,49,50
 223 433 223 433 197 421.5 c 128,-1,51
 171 410 171 410 154 390 c 1,52,53
 136 366 136 366 126 329.5 c 128,-1,54
 116 293 116 293 116 246 c 0,55,56
 116 153 116 153 154 103 c 0,57,58
 187 60 187 60 255 60 c 0,59,60
 287 60 287 60 313.5 71.5 c 128,-1,61
 340 83 340 83 357 103 c 1,62,63
 375 128 375 128 385 164 c 128,-1,64
 395 200 395 200 395 246 c 0,65,66
 395 341 395 341 357 390 c 0,47,48
188 737 m 256,67,68
 188 769 188 769 207 791 c 128,-1,69
 226 813 226 813 255 813 c 0,70,71
 283 813 283 813 303 791 c 128,-1,72
 323 769 323 769 323 737 c 256,73,74
 323 705 323 705 303 683 c 128,-1,75
 283 661 283 661 255 661 c 0,76,77
 226 661 226 661 207 683 c 128,-1,78
 188 705 188 705 188 737 c 256,67,68
EndSplineSet
EndChar
